<svg width="100" height="123" viewBox="0 0 100 123" fill="none" xmlns="http://www.w3.org/2000/svg">
    <g filter="url(#filter0_d_257_11)">
    <path fill-rule="evenodd" clip-rule="evenodd" d="M66.3647 18.9296C65.5162 17.6006 64.0805 16.7098 62.4271 16.6925C59.7782 16.6575 57.5617 18.8781 57.522 21.6216L57.1201 46.0539L56.9506 57.1422C56.9309 58.6117 54.9435 58.5188 54.9624 57.1089L55.1167 45.9932C55.1196 45.8213 55.1349 45.6567 55.1212 45.4893C54.9149 42.9781 52.8585 41.0073 50.3784 40.9812C47.732 40.9535 45.5128 43.1677 45.4732 45.9103L45.439 47.5768L45.3038 56.9988C45.2837 58.504 43.2996 58.1638 43.3156 56.9653L43.4507 47.5435C43.4977 44.7942 41.3425 42.5319 38.6972 42.5042C36.0502 42.4765 33.8399 44.6824 33.7921 47.4333L33.7441 50.6113L33.657 56.8552C33.6356 58.4506 31.6234 58.1907 31.6415 56.8371L31.7559 50.578C31.7949 47.8338 29.6532 45.5978 27.0178 45.5661C24.3688 45.5312 22.137 47.7244 22.0974 50.4679L21.645 79.2256C21.644 79.2628 21.6413 79.301 21.6367 79.3379C21.6398 79.413 21.6339 79.4885 21.6192 79.5626C21.546 84.5365 21.5093 89.3241 23.4078 92.7424C25.3349 96.213 29.2519 98.6484 38.0835 98.7468L53.2575 98.9221C53.2903 98.9152 53.3217 98.9079 53.3546 98.9033L53.6066 98.9055C53.6438 98.9064 53.682 98.9091 53.7189 98.9137C66.0903 98.9687 71.9311 93.6601 74.9716 86.9138C78.0368 80.1127 78.0389 71.752 78.1228 66.243L78.2439 59.228C78.2829 56.4836 76.1235 54.2591 73.4785 54.2314C70.8432 54.1996 68.6248 56.3752 68.5854 59.118C68.5881 59.1933 68.5821 59.2687 68.5678 59.3426L68.4182 69.9545C68.4694 70.512 67.9652 71.0554 67.4055 71.046C66.8457 71.0366 66.36 70.4766 66.43 69.9211L66.6102 59.3638C66.6024 59.3315 66.5962 59.2994 66.5915 59.2666L66.5884 59.1972C66.5807 59.1649 66.5745 59.1328 66.5698 59.1C66.5714 58.9879 66.5892 58.8736 66.5961 58.7629L67.1647 21.704C67.1824 20.673 66.8737 19.727 66.3647 18.9296Z" fill="#FBF3E5"/>
    </g>
    <path d="M54 20.9999H47" stroke="#FBF3E5" stroke-width="3" stroke-linecap="round"/>
    <path d="M54.9609 15.4367L48.6876 12.331" stroke="#FBF3E5" stroke-width="3" stroke-linecap="round"/>
    <path d="M59.2422 13.204L56.0005 6.99987" stroke="#FBF3E5" stroke-width="3" stroke-linecap="round"/>
    <path d="M65 12.7536L66.8404 5.99987" stroke="#FBF3E5" stroke-width="3" stroke-linecap="round"/>
    <path d="M69 15.4302L74.878 11.629" stroke="#FBF3E5" stroke-width="3" stroke-linecap="round"/>
    <path d="M71 20.9999H78" stroke="#FBF3E5" stroke-width="3" stroke-linecap="round"/>
    <defs>
    <filter id="filter0_d_257_11" x="1.59375" y="0.692078" width="96.6504" height="122.23" filterUnits="userSpaceOnUse" color-interpolation-filters="sRGB">
    <feFlood flood-opacity="0" result="BackgroundImageFix"/>
    <feColorMatrix in="SourceAlpha" type="matrix" values="0 0 0 0 0 0 0 0 0 0 0 0 0 0 0 0 0 0 127 0" result="hardAlpha"/>
    <feOffset dy="4"/>
    <feGaussianBlur stdDeviation="10"/>
    <feComposite in2="hardAlpha" operator="out"/>
    <feColorMatrix type="matrix" values="0 0 0 0 0 0 0 0 0 0 0 0 0 0 0 0 0 0 0.25 0"/>
    <feBlend mode="normal" in2="BackgroundImageFix" result="effect1_dropShadow_257_11"/>
    <feBlend mode="normal" in="SourceGraphic" in2="effect1_dropShadow_257_11" result="shape"/>
    </filter>
    </defs>
</svg>