<svg width="2500" height="1616" viewBox="0 0 2500 1616" fill="none" xmlns="http://www.w3.org/2000/svg">
<g clip-path="url(#clip0_30_6697)">
<rect width="2500" height="1616" fill="#B0CCF7"/>
<g filter="url(#filter0_d_30_6697)">
<path fill-rule="evenodd" clip-rule="evenodd" d="M-561 880C-531.048 869.748 -471.143 849.245 -432.632 842.41C-424.074 838.993 -411.238 835.576 -402.68 832.159C-394.122 825.324 -385.564 821.907 -372.727 818.49C-359.89 811.655 -342.775 808.238 -329.938 804.821C-312.822 797.986 -304.264 791.152 -299.985 787.735C-248.638 753.562 -193.012 750.145 -120.27 712.556C-94.5968 702.304 -47.5286 647.628 12.3764 623.708C46.6078 610.039 89.3971 603.204 93.676 599.787C119.35 596.37 123.629 610.039 136.465 616.873C140.744 620.29 149.302 623.708 153.581 627.125C170.697 603.204 187.812 569.032 200.649 558.78C217.765 548.529 234.881 545.111 243.439 538.277C286.228 510.939 307.622 504.105 329.017 507.522C346.133 507.522 380.364 507.522 406.038 521.191C410.317 521.191 418.875 524.608 423.154 528.025C427.432 524.608 431.711 521.191 435.99 517.774C448.827 510.939 530.127 493.853 590.032 483.601C594.311 476.767 598.59 466.515 607.147 459.681C619.984 449.429 641.379 452.846 649.937 446.012C679.889 418.674 735.515 398.17 752.631 391.336C756.91 391.336 769.747 398.17 795.42 411.839C821.094 405.005 846.767 398.17 868.162 387.919C928.067 370.833 962.298 346.912 966.577 350.329C987.972 353.746 1039.32 374.25 1069.27 401.588C1082.11 411.839 1103.5 405.005 1112.06 415.257C1133.46 432.343 1133.46 452.846 1150.57 466.515C1154.85 469.932 1163.41 469.932 1167.69 476.767C1193.36 493.853 1219.03 517.774 1231.87 514.356C1278.94 507.522 1291.78 487.018 1313.17 476.767C1343.12 463.098 1373.08 466.515 1394.47 463.098C1411.59 459.681 1437.26 469.932 1475.77 493.853C1488.61 504.105 1501.44 504.105 1518.56 514.356C1531.4 524.608 1548.51 555.363 1565.63 575.866C1587.02 562.198 1599.86 558.78 1612.7 558.78C1625.53 562.198 1646.93 558.78 1668.32 569.032C1681.16 575.866 1689.72 592.953 1719.67 599.787C1732.51 599.787 1749.62 582.701 1766.74 569.032C1771.02 565.615 1775.29 565.615 1779.57 562.198C1792.41 551.946 1792.41 534.86 1805.25 524.608C1813.81 514.356 1826.64 517.774 1835.2 510.939C1856.59 490.436 1890.83 476.767 1903.66 473.35C1907.94 469.932 1929.34 487.018 1972.13 504.105C2019.19 517.774 2087.66 534.86 2121.89 562.198C2134.72 572.449 2254.53 589.535 2267.37 603.204C2331.56 651.046 2404.3 688.635 2408.58 688.635C2451.37 760.397 2412.86 712.556 2472.76 674.966C2481.32 671.549 2485.6 661.297 2502.71 664.714C2506.99 668.132 2532.67 671.549 2558.34 681.801C2596.85 702.304 2631.08 743.311 2648.2 753.562C2699.54 777.483 2738.05 784.318 2772.29 808.238C2780.84 815.073 2836.47 845.828 2862.14 849.245C2887.82 856.079 2930.61 873.166 2952 880H2348.67H958.02H-561Z" fill="#415D44"/>
</g>
<g filter="url(#filter1_d_30_6697)">
<path d="M652.827 822.152C-854.292 589.179 -750.735 742.161 -1790 874.646V1272H2978.19V900.515C2937.48 879.242 2887.96 853.331 2828.44 822.152C2258.14 523.386 1721.68 786.156 652.827 822.152Z" fill="#31893A"/>
<path d="M2828.44 822.152C2258.14 523.386 1721.68 786.156 652.828 822.152C-854.292 589.179 -750.735 742.161 -1790 874.646V1272H2978.19V900.515M2828.44 822.152C2887.96 853.331 2937.48 879.242 2978.19 900.515M2828.44 822.152C3028.02 924.094 3327.58 1083.09 2978.19 900.515" stroke="#25802E"/>
</g>
<g filter="url(#filter2_d_30_6697)">
<path d="M1583.83 1061.69C76.7084 768.408 180.265 960.995 -859 1127.78V1628H3909.19V1160.34C3868.48 1133.56 3818.96 1100.94 3759.44 1061.69C3189.14 685.583 2652.68 1016.38 1583.83 1061.69Z" fill="#519959"/>
<path d="M3759.44 1061.69C3189.14 685.583 2652.68 1016.38 1583.83 1061.69C76.7084 768.408 180.265 960.995 -859 1127.78V1628H3909.19V1160.34M3759.44 1061.69C3818.96 1100.94 3868.48 1133.56 3909.19 1160.34M3759.44 1061.69C3959.02 1190.03 4258.58 1390.19 3909.19 1160.34" stroke="#25802E"/>
</g>
<g filter="url(#filter3_d_30_6697)">
<rect x="551.006" y="770.699" width="1399.42" height="312.109" fill="#B0CCF7"/>
<path d="M456.284 704.522C848.258 704.522 1697.52 704.522 2046.06 704.522C2055.44 704.522 2063.09 696.286 2063.09 686.187V623.128C2063.09 613.029 2055.44 604.793 2046.06 604.793H456.284C446.903 604.793 439.252 613.029 439.252 623.128V686.187C439.252 696.286 446.903 704.522 456.284 704.522Z" fill="#262626"/>
<path d="M2006.25 1127.87V704.91C1708.18 704.91 806.706 704.91 488.67 704.91V1127.87H2006.25ZM1802.4 796.045H1904.12V901.258H1802.4V796.045ZM1802.4 931.607H1904.12V1036.82H1802.4V931.607ZM1584.03 796.045H1685.73V901.258H1584.03V796.045ZM1584.03 931.607H1685.73V1036.82H1584.03V931.607ZM1312.18 796.045H1413.91V901.258H1312.18V796.045ZM1312.18 931.607H1413.91V1036.82H1312.18V931.607ZM1093.82 796.045H1195.52V901.258H1093.82V796.045ZM1093.82 931.607H1195.52V1036.82H1093.82V931.607ZM809.259 796.045H910.988V901.258H809.259V796.045ZM809.259 931.607H910.988V1036.82H809.259V931.607ZM590.898 796.045H692.593V901.258H590.898V796.045ZM590.898 931.607H692.593V1036.82H590.898V931.607Z" fill="#B0ADAC"/>
<path d="M436 1127.42V1175.24H2058.96V1127.42C1865.93 1127.43 723.618 1127.52 436 1127.42Z" fill="#262626"/>
<ellipse cx="1252.5" cy="491.736" rx="66.4931" ry="61.3078" fill="#B0CCF7"/>
<path d="M1001.91 604.542C1332.74 604.542 914.909 604.542 1500.43 604.542C1505.24 604.542 1509.17 600.929 1509.17 596.499V578.324C1509.17 573.894 1505.24 570.281 1500.43 570.281C1365.12 567.125 1346.19 577.17 1346.19 562.239V488.393C1346.19 440.623 1305.29 402.263 1253.06 401.053C1202.6 399.284 1156.15 441.837 1156.15 492.587V562.239C1156.15 566.684 1152.24 570.281 1147.42 570.281H1001.91C997.017 570.281 993.179 573.816 993.179 578.324V596.499C993.179 601.007 997.017 604.542 1001.91 604.542ZM1251.1 431.933C1285.91 431.933 1314.24 458.027 1314.24 490.107C1314.24 522.187 1285.91 548.282 1251.1 548.282C1216.3 548.282 1187.96 522.187 1187.96 490.107C1187.96 458.027 1216.3 431.933 1251.1 431.933Z" fill="#262626"/>
<path d="M1251.7 500.319H1265.27C1269.97 500.319 1273.78 496.741 1273.78 492.32C1273.78 487.899 1269.97 484.321 1265.27 484.321H1260.21V462.95C1260.21 458.528 1256.41 454.951 1251.7 454.951C1247 454.951 1243.19 458.528 1243.19 462.95V492.32C1243.19 496.741 1247 500.319 1251.7 500.319Z" fill="#262626"/>
<rect x="590.675" y="796.856" width="100.865" height="104.449" stroke="#262626"/>
<rect x="809.5" y="795.5" width="101" height="105" stroke="#262626"/>
<rect x="1093.5" y="795.5" width="101" height="105" stroke="#262626"/>
<rect x="1311.5" y="795.5" width="102" height="105" stroke="#262626"/>
<rect x="1584.5" y="795.5" width="101" height="105" stroke="#262626"/>
<rect x="1802.5" y="795.5" width="101" height="106" stroke="#262626"/>
<rect x="590.5" y="932.5" width="101" height="105" stroke="#262626"/>
<rect x="809.547" y="931.733" width="100.865" height="104.449" stroke="#262626"/>
<rect x="1093.5" y="931.5" width="102" height="105" stroke="#262626"/>
<rect x="1311.5" y="931.5" width="102" height="105" stroke="#262626"/>
<rect x="1584.55" y="931.733" width="100.865" height="104.449" stroke="#262626"/>
<rect x="1802.5" y="931.5" width="101" height="105" stroke="#262626"/>
<g filter="url(#filter4_d_30_6697)">
<path d="M657.058 636.805H661.513V668.305H657.058V636.805ZM681.016 668.575C678.586 668.575 676.411 668.05 674.491 667C672.601 665.95 671.116 664.51 670.036 662.68C668.956 660.82 668.416 658.72 668.416 656.38C668.416 654.04 668.956 651.955 670.036 650.125C671.116 648.265 672.601 646.825 674.491 645.805C676.411 644.755 678.586 644.23 681.016 644.23C683.176 644.23 685.096 644.665 686.776 645.535C688.486 646.405 689.806 647.665 690.736 649.315L687.451 651.43C686.701 650.29 685.771 649.435 684.661 648.865C683.551 648.295 682.321 648.01 680.971 648.01C679.411 648.01 678.001 648.355 676.741 649.045C675.511 649.735 674.536 650.725 673.816 652.015C673.126 653.275 672.781 654.73 672.781 656.38C672.781 658.06 673.126 659.545 673.816 660.835C674.536 662.095 675.511 663.07 676.741 663.76C678.001 664.45 679.411 664.795 680.971 664.795C682.321 664.795 683.551 664.51 684.661 663.94C685.771 663.37 686.701 662.515 687.451 661.375L690.736 663.445C689.806 665.095 688.486 666.37 686.776 667.27C685.096 668.14 683.176 668.575 681.016 668.575ZM726.164 644.23C729.164 644.23 731.534 645.1 733.274 646.84C735.044 648.58 735.929 651.16 735.929 654.58V668.305H731.609V655.075C731.609 652.765 731.069 651.025 729.989 649.855C728.939 648.685 727.424 648.1 725.444 648.1C723.254 648.1 721.514 648.79 720.224 650.17C718.934 651.52 718.289 653.47 718.289 656.02V668.305H713.969V655.075C713.969 652.765 713.429 651.025 712.349 649.855C711.299 648.685 709.784 648.1 707.804 648.1C705.614 648.1 703.874 648.79 702.584 650.17C701.294 651.52 700.649 653.47 700.649 656.02V668.305H696.329V644.455H700.469V648.01C701.339 646.78 702.479 645.85 703.889 645.22C705.299 644.56 706.904 644.23 708.704 644.23C710.564 644.23 712.214 644.605 713.654 645.355C715.094 646.105 716.204 647.2 716.984 648.64C717.884 647.26 719.129 646.18 720.719 645.4C722.339 644.62 724.154 644.23 726.164 644.23ZM753.829 668.575C751.459 668.575 749.329 668.05 747.439 667C745.549 665.95 744.064 664.51 742.984 662.68C741.934 660.82 741.409 658.72 741.409 656.38C741.409 654.04 741.934 651.955 742.984 650.125C744.064 648.265 745.549 646.825 747.439 645.805C749.329 644.755 751.459 644.23 753.829 644.23C756.199 644.23 758.314 644.755 760.174 645.805C762.064 646.825 763.534 648.265 764.584 650.125C765.664 651.955 766.204 654.04 766.204 656.38C766.204 658.72 765.664 660.82 764.584 662.68C763.534 664.51 762.064 665.95 760.174 667C758.314 668.05 756.199 668.575 753.829 668.575ZM753.829 664.795C755.359 664.795 756.724 664.45 757.924 663.76C759.154 663.04 760.114 662.05 760.804 660.79C761.494 659.5 761.839 658.03 761.839 656.38C761.839 654.73 761.494 653.275 760.804 652.015C760.114 650.725 759.154 649.735 757.924 649.045C756.724 648.355 755.359 648.01 753.829 648.01C752.299 648.01 750.919 648.355 749.689 649.045C748.489 649.735 747.529 650.725 746.809 652.015C746.119 653.275 745.774 654.73 745.774 656.38C745.774 658.03 746.119 659.5 746.809 660.79C747.529 662.05 748.489 663.04 749.689 663.76C750.919 664.45 752.299 664.795 753.829 664.795ZM783.782 644.23C786.182 644.23 788.297 644.74 790.127 645.76C791.987 646.78 793.412 648.22 794.402 650.08C795.422 651.91 795.932 654.025 795.932 656.425C795.932 658.795 795.437 660.91 794.447 662.77C793.457 664.6 792.077 666.025 790.307 667.045C788.537 668.065 786.512 668.575 784.232 668.575C782.432 668.575 780.812 668.26 779.372 667.63C777.932 666.97 776.732 666.025 775.772 664.795V677.035H771.407V656.47C771.407 654.07 771.917 651.94 772.937 650.08C773.987 648.22 775.442 646.78 777.302 645.76C779.192 644.74 781.352 644.23 783.782 644.23ZM783.647 664.795C785.177 664.795 786.557 664.45 787.787 663.76C789.017 663.04 789.962 662.05 790.622 660.79C791.312 659.5 791.657 658.045 791.657 656.425C791.657 654.805 791.312 653.365 790.622 652.105C789.962 650.815 789.017 649.81 787.787 649.09C786.587 648.37 785.207 648.01 783.647 648.01C781.277 648.01 779.357 648.79 777.887 650.35C776.417 651.88 775.682 653.89 775.682 656.38C775.682 658.03 776.012 659.5 776.672 660.79C777.362 662.05 778.307 663.04 779.507 663.76C780.707 664.45 782.087 664.795 783.647 664.795ZM823.972 644.455V668.305H819.832V664.795C818.962 665.995 817.822 666.925 816.412 667.585C815.002 668.245 813.457 668.575 811.777 668.575C808.597 668.575 806.092 667.705 804.262 665.965C802.432 664.195 801.517 661.6 801.517 658.18V644.455H805.837V657.685C805.837 659.995 806.392 661.75 807.502 662.95C808.612 664.12 810.202 664.705 812.272 664.705C814.552 664.705 816.352 664.015 817.672 662.635C818.992 661.255 819.652 659.305 819.652 656.785V644.455H823.972ZM851.418 644.455V668.305H847.098V658.675C844.518 659.875 841.953 660.475 839.403 660.475C836.433 660.475 834.138 659.785 832.518 658.405C830.898 657.025 830.088 654.955 830.088 652.195V644.455H834.408V651.925C834.408 653.575 834.918 654.82 835.938 655.66C836.988 656.5 838.443 656.92 840.303 656.92C842.403 656.92 844.668 656.395 847.098 655.345V644.455H851.418ZM859.805 644.455H864.125V654.58H877.715V644.455H882.035V668.305H877.715V658.315H864.125V668.305H859.805V644.455ZM912.845 644.455V668.305H908.705V664.525C907.745 665.845 906.53 666.85 905.06 667.54C903.59 668.23 901.97 668.575 900.2 668.575C897.89 668.575 895.82 668.065 893.99 667.045C892.16 666.025 890.72 664.6 889.67 662.77C888.65 660.91 888.14 658.78 888.14 656.38C888.14 653.98 888.65 651.865 889.67 650.035C890.72 648.205 892.16 646.78 893.99 645.76C895.82 644.74 897.89 644.23 900.2 644.23C901.91 644.23 903.485 644.56 904.925 645.22C906.365 645.85 907.565 646.795 908.525 648.055V644.455H912.845ZM900.56 664.795C902.06 664.795 903.425 664.45 904.655 663.76C905.885 663.04 906.845 662.05 907.535 660.79C908.225 659.5 908.57 658.03 908.57 656.38C908.57 654.73 908.225 653.275 907.535 652.015C906.845 650.725 905.885 649.735 904.655 649.045C903.425 648.355 902.06 648.01 900.56 648.01C899.03 648.01 897.65 648.355 896.42 649.045C895.22 649.735 894.26 650.725 893.54 652.015C892.85 653.275 892.505 654.73 892.505 656.38C892.505 658.03 892.85 659.5 893.54 660.79C894.26 662.05 895.22 663.04 896.42 663.76C897.65 664.45 899.03 664.795 900.56 664.795ZM955.289 644.455V668.305H950.969V648.235H937.514V668.305H933.194V644.455H955.289ZM973.863 668.575C971.493 668.575 969.363 668.05 967.473 667C965.583 665.95 964.098 664.51 963.018 662.68C961.968 660.82 961.443 658.72 961.443 656.38C961.443 654.04 961.968 651.955 963.018 650.125C964.098 648.265 965.583 646.825 967.473 645.805C969.363 644.755 971.493 644.23 973.863 644.23C976.233 644.23 978.348 644.755 980.208 645.805C982.098 646.825 983.568 648.265 984.618 650.125C985.698 651.955 986.238 654.04 986.238 656.38C986.238 658.72 985.698 660.82 984.618 662.68C983.568 664.51 982.098 665.95 980.208 667C978.348 668.05 976.233 668.575 973.863 668.575ZM973.863 664.795C975.393 664.795 976.758 664.45 977.958 663.76C979.188 663.04 980.148 662.05 980.838 660.79C981.528 659.5 981.873 658.03 981.873 656.38C981.873 654.73 981.528 653.275 980.838 652.015C980.148 650.725 979.188 649.735 977.958 649.045C976.758 648.355 975.393 648.01 973.863 648.01C972.333 648.01 970.953 648.355 969.723 649.045C968.523 649.735 967.563 650.725 966.843 652.015C966.153 653.275 965.808 654.73 965.808 656.38C965.808 658.03 966.153 659.5 966.843 660.79C967.563 662.05 968.523 663.04 969.723 663.76C970.953 664.45 972.333 664.795 973.863 664.795ZM1015.16 644.455V665.065C1015.16 669.235 1014.12 672.31 1012.05 674.29C1009.98 676.3 1006.89 677.305 1002.78 677.305C1000.53 677.305 998.386 676.99 996.346 676.36C994.306 675.76 992.656 674.89 991.396 673.75L993.466 670.42C994.576 671.38 995.941 672.13 997.561 672.67C999.211 673.24 1000.91 673.525 1002.65 673.525C1005.44 673.525 1007.49 672.865 1008.81 671.545C1010.16 670.225 1010.84 668.215 1010.84 665.515V663.625C1009.82 664.855 1008.56 665.785 1007.06 666.415C1005.59 667.015 1003.98 667.315 1002.24 667.315C999.961 667.315 997.891 666.835 996.031 665.875C994.201 664.885 992.761 663.52 991.711 661.78C990.661 660.01 990.136 658 990.136 655.75C990.136 653.5 990.661 651.505 991.711 649.765C992.761 647.995 994.201 646.63 996.031 645.67C997.891 644.71 999.961 644.23 1002.24 644.23C1004.04 644.23 1005.71 644.56 1007.24 645.22C1008.8 645.88 1010.07 646.855 1011.06 648.145V644.455H1015.16ZM1002.74 663.535C1004.3 663.535 1005.69 663.205 1006.92 662.545C1008.18 661.885 1009.16 660.97 1009.85 659.8C1010.57 658.6 1010.93 657.25 1010.93 655.75C1010.93 653.44 1010.16 651.58 1008.63 650.17C1007.1 648.73 1005.14 648.01 1002.74 648.01C1000.31 648.01 998.326 648.73 996.796 650.17C995.266 651.58 994.501 653.44 994.501 655.75C994.501 657.25 994.846 658.6 995.536 659.8C996.256 660.97 997.231 661.885 998.461 662.545C999.721 663.205 1001.15 663.535 1002.74 663.535ZM1033.8 668.575C1031.43 668.575 1029.3 668.05 1027.41 667C1025.52 665.95 1024.04 664.51 1022.96 662.68C1021.91 660.82 1021.38 658.72 1021.38 656.38C1021.38 654.04 1021.91 651.955 1022.96 650.125C1024.04 648.265 1025.52 646.825 1027.41 645.805C1029.3 644.755 1031.43 644.23 1033.8 644.23C1036.17 644.23 1038.29 644.755 1040.15 645.805C1042.04 646.825 1043.51 648.265 1044.56 650.125C1045.64 651.955 1046.18 654.04 1046.18 656.38C1046.18 658.72 1045.64 660.82 1044.56 662.68C1043.51 664.51 1042.04 665.95 1040.15 667C1038.29 668.05 1036.17 668.575 1033.8 668.575ZM1033.8 664.795C1035.33 664.795 1036.7 664.45 1037.9 663.76C1039.13 663.04 1040.09 662.05 1040.78 660.79C1041.47 659.5 1041.81 658.03 1041.81 656.38C1041.81 654.73 1041.47 653.275 1040.78 652.015C1040.09 650.725 1039.13 649.735 1037.9 649.045C1036.7 648.355 1035.33 648.01 1033.8 648.01C1032.27 648.01 1030.89 648.355 1029.66 649.045C1028.46 649.735 1027.5 650.725 1026.78 652.015C1026.09 653.275 1025.75 654.73 1025.75 656.38C1025.75 658.03 1026.09 659.5 1026.78 660.79C1027.5 662.05 1028.46 663.04 1029.66 663.76C1030.89 664.45 1032.27 664.795 1033.8 664.795ZM1063.76 644.23C1066.16 644.23 1068.27 644.74 1070.1 645.76C1071.96 646.78 1073.39 648.22 1074.38 650.08C1075.4 651.91 1075.91 654.025 1075.91 656.425C1075.91 658.795 1075.41 660.91 1074.42 662.77C1073.43 664.6 1072.05 666.025 1070.28 667.045C1068.51 668.065 1066.49 668.575 1064.21 668.575C1062.41 668.575 1060.79 668.26 1059.35 667.63C1057.91 666.97 1056.71 666.025 1055.75 664.795V677.035H1051.38V656.47C1051.38 654.07 1051.89 651.94 1052.91 650.08C1053.96 648.22 1055.42 646.78 1057.28 645.76C1059.17 644.74 1061.33 644.23 1063.76 644.23ZM1063.62 664.795C1065.15 664.795 1066.53 664.45 1067.76 663.76C1068.99 663.04 1069.94 662.05 1070.6 660.79C1071.29 659.5 1071.63 658.045 1071.63 656.425C1071.63 654.805 1071.29 653.365 1070.6 652.105C1069.94 650.815 1068.99 649.81 1067.76 649.09C1066.56 648.37 1065.18 648.01 1063.62 648.01C1061.25 648.01 1059.33 648.79 1057.86 650.35C1056.39 651.88 1055.66 653.89 1055.66 656.38C1055.66 658.03 1055.99 659.5 1056.65 660.79C1057.34 662.05 1058.28 663.04 1059.48 663.76C1060.68 664.45 1062.06 664.795 1063.62 664.795ZM1092.43 668.575C1090.06 668.575 1087.93 668.05 1086.04 667C1084.15 665.95 1082.66 664.51 1081.58 662.68C1080.53 660.82 1080.01 658.72 1080.01 656.38C1080.01 654.04 1080.53 651.955 1081.58 650.125C1082.66 648.265 1084.15 646.825 1086.04 645.805C1087.93 644.755 1090.06 644.23 1092.43 644.23C1094.8 644.23 1096.91 644.755 1098.77 645.805C1100.66 646.825 1102.13 648.265 1103.18 650.125C1104.26 651.955 1104.8 654.04 1104.8 656.38C1104.8 658.72 1104.26 660.82 1103.18 662.68C1102.13 664.51 1100.66 665.95 1098.77 667C1096.91 668.05 1094.8 668.575 1092.43 668.575ZM1092.43 664.795C1093.96 664.795 1095.32 664.45 1096.52 663.76C1097.75 663.04 1098.71 662.05 1099.4 660.79C1100.09 659.5 1100.44 658.03 1100.44 656.38C1100.44 654.73 1100.09 653.275 1099.4 652.015C1098.71 650.725 1097.75 649.735 1096.52 649.045C1095.32 648.355 1093.96 648.01 1092.43 648.01C1090.9 648.01 1089.52 648.355 1088.29 649.045C1087.09 649.735 1086.13 650.725 1085.41 652.015C1084.72 653.275 1084.37 654.73 1084.37 656.38C1084.37 658.03 1084.72 659.5 1085.41 660.79C1086.13 662.05 1087.09 663.04 1088.29 663.76C1089.52 664.45 1090.9 664.795 1092.43 664.795ZM1131.94 658.225H1127.3V668.305H1122.98V658.225H1118.35L1111.78 668.305H1106.65L1114.84 655.975L1107.28 644.455H1111.87L1118.3 654.535H1122.98V644.455H1127.3V654.535H1131.98L1138.42 644.455H1143.05L1135.49 656.02L1143.68 668.305H1138.55L1131.94 658.225ZM1180.86 651.97C1182.99 652.48 1184.6 653.395 1185.68 654.715C1186.79 656.005 1187.34 657.67 1187.34 659.71C1187.34 662.44 1186.34 664.555 1184.33 666.055C1182.35 667.555 1179.45 668.305 1175.64 668.305H1161.24V636.805H1174.79C1178.24 636.805 1180.92 637.51 1182.84 638.92C1184.79 640.3 1185.77 642.295 1185.77 644.905C1185.77 646.615 1185.33 648.07 1184.46 649.27C1183.62 650.47 1182.42 651.37 1180.86 651.97ZM1165.7 650.665H1174.47C1176.66 650.665 1178.33 650.23 1179.47 649.36C1180.64 648.49 1181.22 647.215 1181.22 645.535C1181.22 643.855 1180.64 642.58 1179.47 641.71C1178.3 640.81 1176.63 640.36 1174.47 640.36H1165.7V650.665ZM1175.55 664.75C1180.38 664.75 1182.8 662.95 1182.8 659.35C1182.8 657.55 1182.18 656.23 1180.95 655.39C1179.75 654.52 1177.95 654.085 1175.55 654.085H1165.7V664.75H1175.55ZM1215.88 644.455V668.305H1211.74V664.795C1210.87 665.995 1209.73 666.925 1208.32 667.585C1206.91 668.245 1205.36 668.575 1203.68 668.575C1200.5 668.575 1198 667.705 1196.17 665.965C1194.34 664.195 1193.42 661.6 1193.42 658.18V644.455H1197.74V657.685C1197.74 659.995 1198.3 661.75 1199.41 662.95C1200.52 664.12 1202.11 664.705 1204.18 664.705C1206.46 664.705 1208.26 664.015 1209.58 662.635C1210.9 661.255 1211.56 659.305 1211.56 656.785V644.455H1215.88ZM1241.84 648.235H1228.61V668.305H1224.29V644.455H1241.84V648.235ZM1255.42 668.575C1253.05 668.575 1250.92 668.05 1249.03 667C1247.14 665.95 1245.66 664.51 1244.58 662.68C1243.53 660.82 1243 658.72 1243 656.38C1243 654.04 1243.53 651.955 1244.58 650.125C1245.66 648.265 1247.14 646.825 1249.03 645.805C1250.92 644.755 1253.05 644.23 1255.42 644.23C1257.79 644.23 1259.91 644.755 1261.77 645.805C1263.66 646.825 1265.13 648.265 1266.18 650.125C1267.26 651.955 1267.8 654.04 1267.8 656.38C1267.8 658.72 1267.26 660.82 1266.18 662.68C1265.13 664.51 1263.66 665.95 1261.77 667C1259.91 668.05 1257.79 668.575 1255.42 668.575ZM1255.42 664.795C1256.95 664.795 1258.32 664.45 1259.52 663.76C1260.75 663.04 1261.71 662.05 1262.4 660.79C1263.09 659.5 1263.43 658.03 1263.43 656.38C1263.43 654.73 1263.09 653.275 1262.4 652.015C1261.71 650.725 1260.75 649.735 1259.52 649.045C1258.32 648.355 1256.95 648.01 1255.42 648.01C1253.89 648.01 1252.51 648.355 1251.28 649.045C1250.08 649.735 1249.12 650.725 1248.4 652.015C1247.71 653.275 1247.37 654.73 1247.37 656.38C1247.37 658.03 1247.71 659.5 1248.4 660.79C1249.12 662.05 1250.08 663.04 1251.28 663.76C1252.51 664.45 1253.89 664.795 1255.42 664.795ZM1296.71 644.455V665.065C1296.71 669.235 1295.68 672.31 1293.61 674.29C1291.54 676.3 1288.45 677.305 1284.34 677.305C1282.09 677.305 1279.94 676.99 1277.9 676.36C1275.86 675.76 1274.21 674.89 1272.95 673.75L1275.02 670.42C1276.13 671.38 1277.5 672.13 1279.12 672.67C1280.77 673.24 1282.46 673.525 1284.2 673.525C1286.99 673.525 1289.05 672.865 1290.37 671.545C1291.72 670.225 1292.39 668.215 1292.39 665.515V663.625C1291.37 664.855 1290.11 665.785 1288.61 666.415C1287.14 667.015 1285.54 667.315 1283.8 667.315C1281.52 667.315 1279.45 666.835 1277.59 665.875C1275.76 664.885 1274.32 663.52 1273.27 661.78C1272.22 660.01 1271.69 658 1271.69 655.75C1271.69 653.5 1272.22 651.505 1273.27 649.765C1274.32 647.995 1275.76 646.63 1277.59 645.67C1279.45 644.71 1281.52 644.23 1283.8 644.23C1285.6 644.23 1287.26 644.56 1288.79 645.22C1290.35 645.88 1291.63 646.855 1292.62 648.145V644.455H1296.71ZM1284.29 663.535C1285.85 663.535 1287.25 663.205 1288.48 662.545C1289.74 661.885 1290.71 660.97 1291.4 659.8C1292.12 658.6 1292.48 657.25 1292.48 655.75C1292.48 653.44 1291.72 651.58 1290.19 650.17C1288.66 648.73 1286.69 648.01 1284.29 648.01C1281.86 648.01 1279.88 648.73 1278.35 650.17C1276.82 651.58 1276.06 653.44 1276.06 655.75C1276.06 657.25 1276.4 658.6 1277.09 659.8C1277.81 660.97 1278.79 661.885 1280.02 662.545C1281.28 663.205 1282.7 663.535 1284.29 663.535ZM1315.54 668.575C1313.11 668.575 1310.94 668.05 1309.02 667C1307.13 665.95 1305.64 664.51 1304.56 662.68C1303.48 660.82 1302.94 658.72 1302.94 656.38C1302.94 654.04 1303.48 651.955 1304.56 650.125C1305.64 648.265 1307.13 646.825 1309.02 645.805C1310.94 644.755 1313.11 644.23 1315.54 644.23C1317.7 644.23 1319.62 644.665 1321.3 645.535C1323.01 646.405 1324.33 647.665 1325.26 649.315L1321.98 651.43C1321.23 650.29 1320.3 649.435 1319.19 648.865C1318.08 648.295 1316.85 648.01 1315.5 648.01C1313.94 648.01 1312.53 648.355 1311.27 649.045C1310.04 649.735 1309.06 650.725 1308.34 652.015C1307.65 653.275 1307.31 654.73 1307.31 656.38C1307.31 658.06 1307.65 659.545 1308.34 660.835C1309.06 662.095 1310.04 663.07 1311.27 663.76C1312.53 664.45 1313.94 664.795 1315.5 664.795C1316.85 664.795 1318.08 664.51 1319.19 663.94C1320.3 663.37 1321.23 662.515 1321.98 661.375L1325.26 663.445C1324.33 665.095 1323.01 666.37 1321.3 667.27C1319.62 668.14 1317.7 668.575 1315.54 668.575ZM1340.8 668.845C1337.41 668.845 1334.8 668.02 1332.97 666.37C1331.17 664.72 1330.27 662.38 1330.27 659.35V644.455H1334.59V653.68C1335.37 652.9 1336.42 652.3 1337.74 651.88C1339.09 651.43 1340.54 651.205 1342.1 651.205C1345.07 651.205 1347.38 651.955 1349.03 653.455C1350.68 654.955 1351.51 657.025 1351.51 659.665C1351.51 662.515 1350.56 664.765 1348.67 666.415C1346.78 668.035 1344.16 668.845 1340.8 668.845ZM1340.84 665.56C1342.79 665.56 1344.32 665.035 1345.43 663.985C1346.54 662.935 1347.1 661.525 1347.1 659.755C1347.1 658.075 1346.56 656.755 1345.48 655.795C1344.4 654.835 1342.88 654.355 1340.93 654.355C1339.49 654.355 1338.22 654.64 1337.11 655.21C1336 655.78 1335.16 656.575 1334.59 657.595V659.71C1334.59 661.54 1335.14 662.98 1336.25 664.03C1337.36 665.05 1338.89 665.56 1340.84 665.56ZM1366.45 658.225H1361.5V668.305H1357.18V644.455H1361.5V654.535H1366.54L1374.28 644.455H1378.91L1369.87 655.93L1379.54 668.305H1374.46L1366.45 658.225ZM1393.5 668.575C1391.13 668.575 1389 668.05 1387.11 667C1385.22 665.95 1383.73 664.51 1382.65 662.68C1381.6 660.82 1381.08 658.72 1381.08 656.38C1381.08 654.04 1381.6 651.955 1382.65 650.125C1383.73 648.265 1385.22 646.825 1387.11 645.805C1389 644.755 1391.13 644.23 1393.5 644.23C1395.87 644.23 1397.98 644.755 1399.84 645.805C1401.73 646.825 1403.2 648.265 1404.25 650.125C1405.33 651.955 1405.87 654.04 1405.87 656.38C1405.87 658.72 1405.33 660.82 1404.25 662.68C1403.2 664.51 1401.73 665.95 1399.84 667C1397.98 668.05 1395.87 668.575 1393.5 668.575ZM1393.5 664.795C1395.03 664.795 1396.39 664.45 1397.59 663.76C1398.82 663.04 1399.78 662.05 1400.47 660.79C1401.16 659.5 1401.51 658.03 1401.51 656.38C1401.51 654.73 1401.16 653.275 1400.47 652.015C1399.78 650.725 1398.82 649.735 1397.59 649.045C1396.39 648.355 1395.03 648.01 1393.5 648.01C1391.97 648.01 1390.59 648.355 1389.36 649.045C1388.16 649.735 1387.2 650.725 1386.48 652.015C1385.79 653.275 1385.44 654.73 1385.44 656.38C1385.44 658.03 1385.79 659.5 1386.48 660.79C1387.2 662.05 1388.16 663.04 1389.36 663.76C1390.59 664.45 1391.97 664.795 1393.5 664.795ZM1433.21 644.23C1435.52 644.23 1437.59 644.755 1439.42 645.805C1441.25 646.825 1442.69 648.265 1443.74 650.125C1444.79 651.955 1445.32 654.04 1445.32 656.38C1445.32 658.72 1444.79 660.82 1443.74 662.68C1442.69 664.51 1441.25 665.95 1439.42 667C1437.59 668.05 1435.52 668.575 1433.21 668.575C1431.11 668.575 1429.21 668.14 1427.5 667.27C1425.79 666.4 1424.38 665.185 1423.27 663.625C1422.19 662.035 1421.51 660.235 1421.24 658.225H1416.43V668.305H1412.11V644.455H1416.43V654.22H1421.29C1421.59 652.24 1422.28 650.5 1423.36 649C1424.47 647.47 1425.86 646.3 1427.54 645.49C1429.25 644.65 1431.14 644.23 1433.21 644.23ZM1433.21 664.795C1434.68 664.795 1436 664.45 1437.17 663.76C1438.37 663.07 1439.32 662.095 1440.01 660.835C1440.7 659.545 1441.04 658.06 1441.04 656.38C1441.04 654.73 1440.7 653.275 1440.01 652.015C1439.32 650.725 1438.37 649.735 1437.17 649.045C1436 648.355 1434.68 648.01 1433.21 648.01C1431.74 648.01 1430.41 648.355 1429.21 649.045C1428.01 649.735 1427.06 650.725 1426.37 652.015C1425.71 653.275 1425.38 654.73 1425.38 656.38C1425.38 658.06 1425.71 659.545 1426.37 660.835C1427.06 662.095 1428.01 663.07 1429.21 663.76C1430.41 664.45 1431.74 664.795 1433.21 664.795ZM1479.86 655.93C1482.95 656.71 1484.49 658.645 1484.49 661.735C1484.49 663.835 1483.7 665.455 1482.11 666.595C1480.55 667.735 1478.21 668.305 1475.09 668.305H1463.61V644.455H1474.68C1477.5 644.455 1479.71 644.995 1481.3 646.075C1482.89 647.125 1483.68 648.625 1483.68 650.575C1483.68 651.835 1483.34 652.93 1482.65 653.86C1481.99 654.76 1481.06 655.45 1479.86 655.93ZM1467.84 654.715H1474.32C1475.97 654.715 1477.22 654.415 1478.06 653.815C1478.93 653.215 1479.36 652.345 1479.36 651.205C1479.36 648.925 1477.68 647.785 1474.32 647.785H1467.84V654.715ZM1474.77 664.975C1476.57 664.975 1477.92 664.69 1478.82 664.12C1479.72 663.55 1480.17 662.665 1480.17 661.465C1480.17 660.235 1479.75 659.32 1478.91 658.72C1478.1 658.12 1476.81 657.82 1475.04 657.82H1467.84V664.975H1474.77ZM1513.4 644.455V665.065C1513.4 669.235 1512.42 672.31 1510.47 674.29C1508.52 676.3 1505.6 677.305 1501.7 677.305C1499.57 677.305 1497.53 676.99 1495.58 676.36C1493.66 675.76 1492.08 674.89 1490.85 673.75L1492.97 670.42C1494.02 671.38 1495.28 672.13 1496.75 672.67C1498.25 673.21 1499.82 673.48 1501.47 673.48C1504.08 673.48 1506 672.82 1507.23 671.5C1508.46 670.21 1509.08 668.215 1509.08 665.515V663.76C1508.21 664.9 1507.08 665.785 1505.7 666.415C1504.32 667.015 1502.82 667.315 1501.2 667.315C1498.02 667.315 1495.52 666.445 1493.69 664.705C1491.86 662.965 1490.94 660.385 1490.94 656.965V644.455H1495.26V656.47C1495.26 658.75 1495.82 660.49 1496.93 661.69C1498.04 662.86 1499.63 663.445 1501.7 663.445C1503.98 663.445 1505.78 662.755 1507.1 661.375C1508.42 659.995 1509.08 658.045 1509.08 655.525V644.455H1513.4ZM1534.23 655.885C1535.82 656.305 1537.05 656.98 1537.92 657.91C1538.79 658.84 1539.22 659.995 1539.22 661.375C1539.22 662.785 1538.74 664.045 1537.78 665.155C1536.82 666.235 1535.49 667.09 1533.78 667.72C1532.1 668.32 1530.21 668.62 1528.11 668.62C1526.34 668.62 1524.6 668.395 1522.89 667.945C1521.21 667.465 1519.71 666.79 1518.39 665.92L1519.69 662.635C1520.83 663.355 1522.14 663.925 1523.61 664.345C1525.08 664.735 1526.56 664.93 1528.06 664.93C1530.1 664.93 1531.72 664.585 1532.92 663.895C1534.15 663.175 1534.77 662.215 1534.77 661.015C1534.77 659.905 1534.27 659.05 1533.28 658.45C1532.32 657.85 1530.96 657.55 1529.19 657.55H1524.82V654.445H1528.87C1530.49 654.445 1531.77 654.16 1532.7 653.59C1533.63 653.02 1534.09 652.24 1534.09 651.25C1534.09 650.17 1533.54 649.33 1532.43 648.73C1531.35 648.13 1529.88 647.83 1528.02 647.83C1525.65 647.83 1523.14 648.445 1520.5 649.675L1519.33 646.345C1522.24 644.875 1525.29 644.14 1528.47 644.14C1530.39 644.14 1532.11 644.41 1533.64 644.95C1535.17 645.49 1536.37 646.255 1537.24 647.245C1538.11 648.235 1538.55 649.36 1538.55 650.62C1538.55 651.79 1538.16 652.84 1537.38 653.77C1536.6 654.7 1535.55 655.405 1534.23 655.885ZM1555.74 668.845C1552.35 668.845 1549.74 668.02 1547.91 666.37C1546.11 664.72 1545.21 662.38 1545.21 659.35V644.455H1549.53V653.68C1550.31 652.9 1551.36 652.3 1552.68 651.88C1554.03 651.43 1555.48 651.205 1557.04 651.205C1560.01 651.205 1562.32 651.955 1563.97 653.455C1565.62 654.955 1566.45 657.025 1566.45 659.665C1566.45 662.515 1565.5 664.765 1563.61 666.415C1561.72 668.035 1559.1 668.845 1555.74 668.845ZM1555.78 665.56C1557.73 665.56 1559.26 665.035 1560.37 663.985C1561.48 662.935 1562.04 661.525 1562.04 659.755C1562.04 658.075 1561.5 656.755 1560.42 655.795C1559.34 654.835 1557.82 654.355 1555.87 654.355C1554.43 654.355 1553.16 654.64 1552.05 655.21C1550.94 655.78 1550.1 656.575 1549.53 657.595V659.71C1549.53 661.54 1550.08 662.98 1551.19 664.03C1552.3 665.05 1553.83 665.56 1555.78 665.56ZM1581.38 658.225H1576.43V668.305H1572.11V644.455H1576.43V654.535H1581.47L1589.21 644.455H1593.85L1584.8 655.93L1594.48 668.305H1589.39L1581.38 658.225ZM1608.43 668.575C1606.06 668.575 1603.93 668.05 1602.04 667C1600.15 665.95 1598.67 664.51 1597.59 662.68C1596.54 660.82 1596.01 658.72 1596.01 656.38C1596.01 654.04 1596.54 651.955 1597.59 650.125C1598.67 648.265 1600.15 646.825 1602.04 645.805C1603.93 644.755 1606.06 644.23 1608.43 644.23C1610.8 644.23 1612.92 644.755 1614.78 645.805C1616.67 646.825 1618.14 648.265 1619.19 650.125C1620.27 651.955 1620.81 654.04 1620.81 656.38C1620.81 658.72 1620.27 660.82 1619.19 662.68C1618.14 664.51 1616.67 665.95 1614.78 667C1612.92 668.05 1610.8 668.575 1608.43 668.575ZM1608.43 664.795C1609.96 664.795 1611.33 664.45 1612.53 663.76C1613.76 663.04 1614.72 662.05 1615.41 660.79C1616.1 659.5 1616.44 658.03 1616.44 656.38C1616.44 654.73 1616.1 653.275 1615.41 652.015C1614.72 650.725 1613.76 649.735 1612.53 649.045C1611.33 648.355 1609.96 648.01 1608.43 648.01C1606.9 648.01 1605.52 648.355 1604.29 649.045C1603.09 649.735 1602.13 650.725 1601.41 652.015C1600.72 653.275 1600.38 654.73 1600.38 656.38C1600.38 658.03 1600.72 659.5 1601.41 660.79C1602.13 662.05 1603.09 663.04 1604.29 663.76C1605.52 664.45 1606.9 664.795 1608.43 664.795ZM1636.32 658.225H1631.37V668.305H1627.05V644.455H1631.37V654.535H1636.41L1644.15 644.455H1648.78L1639.74 655.93L1649.41 668.305H1644.33L1636.32 658.225ZM1663.36 668.575C1660.99 668.575 1658.86 668.05 1656.97 667C1655.08 665.95 1653.6 664.51 1652.52 662.68C1651.47 660.82 1650.94 658.72 1650.94 656.38C1650.94 654.04 1651.47 651.955 1652.52 650.125C1653.6 648.265 1655.08 646.825 1656.97 645.805C1658.86 644.755 1660.99 644.23 1663.36 644.23C1665.73 644.23 1667.85 644.755 1669.71 645.805C1671.6 646.825 1673.07 648.265 1674.12 650.125C1675.2 651.955 1675.74 654.04 1675.74 656.38C1675.74 658.72 1675.2 660.82 1674.12 662.68C1673.07 664.51 1671.6 665.95 1669.71 667C1667.85 668.05 1665.73 668.575 1663.36 668.575ZM1663.36 664.795C1664.89 664.795 1666.26 664.45 1667.46 663.76C1668.69 663.04 1669.65 662.05 1670.34 660.79C1671.03 659.5 1671.37 658.03 1671.37 656.38C1671.37 654.73 1671.03 653.275 1670.34 652.015C1669.65 650.725 1668.69 649.735 1667.46 649.045C1666.26 648.355 1664.89 648.01 1663.36 648.01C1661.83 648.01 1660.45 648.355 1659.22 649.045C1658.02 649.735 1657.06 650.725 1656.34 652.015C1655.65 653.275 1655.31 654.73 1655.31 656.38C1655.31 658.03 1655.65 659.5 1656.34 660.79C1657.06 662.05 1658.02 663.04 1659.22 663.76C1660.45 664.45 1661.83 664.795 1663.36 664.795ZM1702.28 644.455V668.305H1697.96V648.235H1687.7L1687.43 653.545C1687.28 656.755 1686.99 659.44 1686.57 661.6C1686.15 663.73 1685.46 665.44 1684.5 666.73C1683.54 668.02 1682.21 668.665 1680.5 668.665C1679.72 668.665 1678.83 668.53 1677.84 668.26L1678.11 664.615C1678.5 664.705 1678.86 664.75 1679.19 664.75C1680.39 664.75 1681.29 664.225 1681.89 663.175C1682.49 662.125 1682.88 660.88 1683.06 659.44C1683.24 658 1683.41 655.945 1683.56 653.275L1683.96 644.455H1702.28ZM1710.63 644.455H1714.95V668.305H1710.63V644.455ZM1712.79 639.865C1711.95 639.865 1711.25 639.595 1710.68 639.055C1710.14 638.515 1709.87 637.855 1709.87 637.075C1709.87 636.295 1710.14 635.635 1710.68 635.095C1711.25 634.525 1711.95 634.24 1712.79 634.24C1713.63 634.24 1714.32 634.51 1714.86 635.05C1715.43 635.56 1715.72 636.205 1715.72 636.985C1715.72 637.795 1715.43 638.485 1714.86 639.055C1714.32 639.595 1713.63 639.865 1712.79 639.865ZM1745.11 644.455V668.305H1740.97V664.795C1740.1 665.995 1738.96 666.925 1737.55 667.585C1736.14 668.245 1734.59 668.575 1732.91 668.575C1729.73 668.575 1727.23 667.705 1725.4 665.965C1723.57 664.195 1722.65 661.6 1722.65 658.18V644.455H1726.97V657.685C1726.97 659.995 1727.53 661.75 1728.64 662.95C1729.75 664.12 1731.34 664.705 1733.41 664.705C1735.69 664.705 1737.49 664.015 1738.81 662.635C1740.13 661.255 1740.79 659.305 1740.79 656.785V644.455H1745.11ZM1733.86 641.35C1731.64 641.35 1729.91 640.825 1728.68 639.775C1727.45 638.695 1726.82 637.15 1726.79 635.14H1729.72C1729.75 636.25 1730.12 637.15 1730.84 637.84C1731.59 638.5 1732.58 638.83 1733.81 638.83C1735.04 638.83 1736.03 638.5 1736.78 637.84C1737.53 637.15 1737.92 636.25 1737.95 635.14H1740.97C1740.94 637.15 1740.29 638.695 1739.03 639.775C1737.77 640.825 1736.05 641.35 1733.86 641.35ZM1762.79 658.225H1757.84V668.305H1753.52V644.455H1757.84V654.535H1762.88L1770.62 644.455H1775.26L1766.21 655.93L1775.89 668.305H1770.8L1762.79 658.225ZM1789.84 668.575C1787.47 668.575 1785.34 668.05 1783.45 667C1781.56 665.95 1780.07 664.51 1778.99 662.68C1777.94 660.82 1777.42 658.72 1777.42 656.38C1777.42 654.04 1777.94 651.955 1778.99 650.125C1780.07 648.265 1781.56 646.825 1783.45 645.805C1785.34 644.755 1787.47 644.23 1789.84 644.23C1792.21 644.23 1794.32 644.755 1796.18 645.805C1798.07 646.825 1799.54 648.265 1800.59 650.125C1801.67 651.955 1802.21 654.04 1802.21 656.38C1802.21 658.72 1801.67 660.82 1800.59 662.68C1799.54 664.51 1798.07 665.95 1796.18 667C1794.32 668.05 1792.21 668.575 1789.84 668.575ZM1789.84 664.795C1791.37 664.795 1792.73 664.45 1793.93 663.76C1795.16 663.04 1796.12 662.05 1796.81 660.79C1797.5 659.5 1797.85 658.03 1797.85 656.38C1797.85 654.73 1797.5 653.275 1796.81 652.015C1796.12 650.725 1795.16 649.735 1793.93 649.045C1792.73 648.355 1791.37 648.01 1789.84 648.01C1788.31 648.01 1786.93 648.355 1785.7 649.045C1784.5 649.735 1783.54 650.725 1782.82 652.015C1782.13 653.275 1781.78 654.73 1781.78 656.38C1781.78 658.03 1782.13 659.5 1782.82 660.79C1783.54 662.05 1784.5 663.04 1785.7 663.76C1786.93 664.45 1788.31 664.795 1789.84 664.795ZM1829.56 644.23C1831.87 644.23 1833.94 644.755 1835.77 645.805C1837.6 646.825 1839.04 648.265 1840.09 650.125C1841.14 651.955 1841.66 654.04 1841.66 656.38C1841.66 658.72 1841.14 660.82 1840.09 662.68C1839.04 664.51 1837.6 665.95 1835.77 667C1833.94 668.05 1831.87 668.575 1829.56 668.575C1827.46 668.575 1825.55 668.14 1823.84 667.27C1822.13 666.4 1820.72 665.185 1819.61 663.625C1818.53 662.035 1817.86 660.235 1817.59 658.225H1812.77V668.305H1808.45V644.455H1812.77V654.22H1817.63C1817.93 652.24 1818.62 650.5 1819.7 649C1820.81 647.47 1822.21 646.3 1823.89 645.49C1825.6 644.65 1827.49 644.23 1829.56 644.23ZM1829.56 664.795C1831.03 664.795 1832.35 664.45 1833.52 663.76C1834.72 663.07 1835.66 662.095 1836.35 660.835C1837.04 659.545 1837.39 658.06 1837.39 656.38C1837.39 654.73 1837.04 653.275 1836.35 652.015C1835.66 650.725 1834.72 649.735 1833.52 649.045C1832.35 648.355 1831.03 648.01 1829.56 648.01C1828.09 648.01 1826.75 648.355 1825.55 649.045C1824.35 649.735 1823.41 650.725 1822.72 652.015C1822.06 653.275 1821.73 654.73 1821.73 656.38C1821.73 658.06 1822.06 659.545 1822.72 660.835C1823.41 662.095 1824.35 663.07 1825.55 663.76C1826.75 664.45 1828.09 664.795 1829.56 664.795Z" fill="#B0ADAC"/>
</g>
<line x1="641.5" y1="797" x2="641.5" y2="901" stroke="black"/>
<line x1="860.5" y1="796" x2="860.5" y2="900" stroke="black"/>
<line x1="860.5" y1="932" x2="860.5" y2="1036" stroke="black"/>
<line x1="1144.5" y1="795" x2="1144.5" y2="901" stroke="black"/>
<line x1="1145.5" y1="931" x2="1145.5" y2="1037" stroke="black"/>
<line x1="1362.5" y1="795" x2="1362.5" y2="901" stroke="black"/>
<line x1="1362.5" y1="932" x2="1362.5" y2="1037" stroke="black"/>
<line x1="1635.5" y1="795" x2="1635.5" y2="900" stroke="black"/>
<line x1="1635.5" y1="932" x2="1635.5" y2="1036" stroke="black"/>
<line x1="1852.5" y1="932" x2="1852.5" y2="1036" stroke="black"/>
<line x1="1852.5" y1="796" x2="1852.5" y2="901" stroke="black"/>
<line x1="641.5" y1="933" x2="641.5" y2="1038" stroke="black"/>
</g>
<line x1="-83" y1="1465.48" x2="3334.65" y2="1465.48" stroke="#262626" stroke-width="6"/>
<rect x="657.212" y="1466.38" width="27.4424" height="19.24" stroke="#262626" stroke-width="4"/>
<rect x="1395.42" y="1466.38" width="27.4424" height="19.24" stroke="#262626" stroke-width="4"/>
<rect x="2133.64" y="1466.38" width="27.4424" height="19.24" stroke="#262626" stroke-width="4"/>
<rect x="288.105" y="1466.38" width="27.4424" height="19.24" stroke="#262626" stroke-width="4"/>
<rect x="1026.32" y="1466.38" width="27.4424" height="19.24" stroke="#262626" stroke-width="4"/>
<rect x="1764.53" y="1466.38" width="27.4424" height="19.24" stroke="#262626" stroke-width="4"/>
<rect x="42.0352" y="1466.38" width="27.4424" height="19.24" stroke="#262626" stroke-width="4"/>
<rect x="780.248" y="1466.38" width="27.4424" height="19.24" stroke="#262626" stroke-width="4"/>
<rect x="1518.46" y="1466.38" width="27.4424" height="19.24" stroke="#262626" stroke-width="4"/>
<rect x="2256.67" y="1466.38" width="27.4424" height="19.24" stroke="#262626" stroke-width="4"/>
<rect x="411.142" y="1466.38" width="27.4424" height="19.24" stroke="#262626" stroke-width="4"/>
<rect x="1149.35" y="1466.38" width="27.4424" height="19.24" stroke="#262626" stroke-width="4"/>
<rect x="1887.57" y="1466.38" width="27.4424" height="19.24" stroke="#262626" stroke-width="4"/>
<rect x="165.07" y="1466.38" width="27.4424" height="19.24" stroke="#262626" stroke-width="4"/>
<rect x="903.282" y="1466.38" width="27.4424" height="19.24" stroke="#262626" stroke-width="4"/>
<rect x="1641.5" y="1466.38" width="27.4424" height="19.24" stroke="#262626" stroke-width="4"/>
<rect x="2379.71" y="1466.38" width="27.4424" height="19.24" stroke="#262626" stroke-width="4"/>
<rect x="534.177" y="1466.38" width="27.4424" height="19.24" stroke="#262626" stroke-width="4"/>
<rect x="1272.39" y="1466.38" width="27.4424" height="19.24" stroke="#262626" stroke-width="4"/>
<rect x="2010.6" y="1466.38" width="27.4424" height="19.24" stroke="#262626" stroke-width="4"/>
<rect x="698.224" y="1466.38" width="27.4424" height="19.24" stroke="#262626" stroke-width="4"/>
<rect x="1436.44" y="1466.38" width="27.4424" height="19.24" stroke="#262626" stroke-width="4"/>
<rect x="2174.65" y="1466.38" width="27.4424" height="19.24" stroke="#262626" stroke-width="4"/>
<rect x="329.118" y="1466.38" width="27.4424" height="19.24" stroke="#262626" stroke-width="4"/>
<rect x="1067.33" y="1466.38" width="27.4424" height="19.24" stroke="#262626" stroke-width="4"/>
<rect x="1805.54" y="1466.38" width="27.4424" height="19.24" stroke="#262626" stroke-width="4"/>
<rect x="83.0469" y="1466.38" width="27.4424" height="19.24" stroke="#262626" stroke-width="4"/>
<rect x="821.26" y="1466.38" width="27.4424" height="19.24" stroke="#262626" stroke-width="4"/>
<rect x="1559.47" y="1466.38" width="27.4424" height="19.24" stroke="#262626" stroke-width="4"/>
<rect x="2297.68" y="1466.38" width="27.4424" height="19.24" stroke="#262626" stroke-width="4"/>
<rect x="452.153" y="1466.38" width="27.4424" height="19.24" stroke="#262626" stroke-width="4"/>
<rect x="1190.37" y="1466.38" width="27.4424" height="19.24" stroke="#262626" stroke-width="4"/>
<rect x="1928.58" y="1466.38" width="27.4424" height="19.24" stroke="#262626" stroke-width="4"/>
<rect x="206.083" y="1466.38" width="27.4424" height="19.24" stroke="#262626" stroke-width="4"/>
<rect x="944.295" y="1466.38" width="27.4424" height="19.24" stroke="#262626" stroke-width="4"/>
<rect x="1682.51" y="1466.38" width="27.4424" height="19.24" stroke="#262626" stroke-width="4"/>
<rect x="2420.72" y="1466.38" width="27.4424" height="19.24" stroke="#262626" stroke-width="4"/>
<rect x="575.188" y="1466.38" width="27.4424" height="19.24" stroke="#262626" stroke-width="4"/>
<rect x="1313.4" y="1466.38" width="27.4424" height="19.24" stroke="#262626" stroke-width="4"/>
<rect x="2051.61" y="1466.38" width="27.4424" height="19.24" stroke="#262626" stroke-width="4"/>
<rect x="1.02344" y="1466.38" width="27.4424" height="19.24" stroke="#262626" stroke-width="4"/>
<rect x="739.235" y="1466.38" width="27.4424" height="19.24" stroke="#262626" stroke-width="4"/>
<rect x="1477.45" y="1466.38" width="27.4424" height="19.24" stroke="#262626" stroke-width="4"/>
<rect x="2215.66" y="1466.38" width="27.4424" height="19.24" stroke="#262626" stroke-width="4"/>
<rect x="370.13" y="1466.38" width="27.4424" height="19.24" stroke="#262626" stroke-width="4"/>
<rect x="1108.34" y="1466.38" width="27.4424" height="19.24" stroke="#262626" stroke-width="4"/>
<rect x="1846.55" y="1466.38" width="27.4424" height="19.24" stroke="#262626" stroke-width="4"/>
<rect x="124.059" y="1466.38" width="27.4424" height="19.24" stroke="#262626" stroke-width="4"/>
<rect x="862.271" y="1466.38" width="27.4424" height="19.24" stroke="#262626" stroke-width="4"/>
<rect x="1600.48" y="1466.38" width="27.4424" height="19.24" stroke="#262626" stroke-width="4"/>
<rect x="2338.7" y="1466.38" width="27.4424" height="19.24" stroke="#262626" stroke-width="4"/>
<rect x="493.165" y="1466.38" width="27.4424" height="19.24" stroke="#262626" stroke-width="4"/>
<rect x="1231.38" y="1466.38" width="27.4424" height="19.24" stroke="#262626" stroke-width="4"/>
<rect x="1969.59" y="1466.38" width="27.4424" height="19.24" stroke="#262626" stroke-width="4"/>
<rect x="247.095" y="1466.38" width="27.4424" height="19.24" stroke="#262626" stroke-width="4"/>
<rect x="985.307" y="1466.38" width="27.4424" height="19.24" stroke="#262626" stroke-width="4"/>
<rect x="1723.52" y="1466.38" width="27.4424" height="19.24" stroke="#262626" stroke-width="4"/>
<rect x="2461.73" y="1466.38" width="27.4424" height="19.24" stroke="#262626" stroke-width="4"/>
<rect x="616.2" y="1466.38" width="27.4424" height="19.24" stroke="#262626" stroke-width="4"/>
<rect x="1354.41" y="1466.38" width="27.4424" height="19.24" stroke="#262626" stroke-width="4"/>
<rect x="2092.62" y="1466.38" width="27.4424" height="19.24" stroke="#262626" stroke-width="4"/>
<g filter="url(#filter5_d_30_6697)">
<path d="M618.57 199.859C618.241 199.859 617.907 199.861 617.578 199.861C617.599 199.33 617.608 198.797 617.608 198.257C617.608 164.983 579.98 138 533.56 138C499.216 138 469.683 152.766 456.644 173.927C451.23 172.745 445.49 172.105 439.541 172.105C407.218 172.105 381.018 190.888 381.018 214.057C381.018 214.43 381.021 214.809 381.036 215.179C355.217 219.542 336 236.164 336 256.009C336 279.183 362.2 297.964 394.523 297.964C402.753 297.964 410.584 296.748 417.687 294.547C428.176 302.237 442.739 307 458.832 307C475.696 307 490.875 301.77 501.451 293.426C511.382 301.773 525.636 307 541.467 307C558.658 307 573.977 300.836 583.938 291.221C594.099 295.502 605.933 297.965 618.573 297.965C656.368 297.965 687 276 687 248.915C687 221.823 656.362 199.859 618.57 199.859Z" fill="white"/>
</g>
<g filter="url(#filter6_d_30_6697)">
<path d="M2062.93 257.44C2062.64 257.44 2062.36 257.442 2062.07 257.442C2062.09 256.983 2062.1 256.523 2062.1 256.056C2062.1 227.311 2029.61 204 1989.54 204C1959.9 204 1934.4 216.756 1923.15 235.038C1918.47 234.016 1913.52 233.463 1908.38 233.463C1880.48 233.463 1857.86 249.691 1857.86 269.706C1857.86 270.028 1857.86 270.355 1857.88 270.675C1835.59 274.444 1819 288.804 1819 305.949C1819 325.969 1841.62 342.194 1869.52 342.194C1876.62 342.194 1883.38 341.144 1889.52 339.242C1898.57 345.885 1911.14 350 1925.03 350C1939.59 350 1952.7 345.481 1961.83 338.273C1970.4 345.484 1982.7 350 1996.37 350C2011.21 350 2024.43 344.675 2033.03 336.369C2041.8 340.067 2052.02 342.194 2062.93 342.194C2095.56 342.194 2122 323.219 2122 299.82C2122 276.415 2095.55 257.44 2062.93 257.44Z" fill="white"/>
</g>
<g filter="url(#filter7_d_30_6697)">
<path d="M1358.37 131.722C1357.93 131.722 1357.48 131.725 1357.04 131.725C1357.07 131.015 1357.08 130.302 1357.08 129.58C1357.08 85.0836 1306.7 49 1244.54 49C1198.55 49 1159.01 68.7462 1141.55 97.0446C1134.3 95.4632 1126.61 94.6076 1118.65 94.6076C1075.36 94.6076 1040.28 119.727 1040.28 150.709C1040.28 151.208 1040.28 151.715 1040.31 152.21C1005.73 158.044 980 180.272 980 206.811C980 237.801 1015.08 262.917 1058.36 262.917C1069.38 262.917 1079.87 261.291 1089.38 258.347C1103.43 268.63 1122.93 275 1144.48 275C1167.06 275 1187.38 268.006 1201.54 256.847C1214.84 268.01 1233.93 275 1255.13 275C1278.15 275 1298.66 266.757 1312 253.899C1325.6 259.624 1341.45 262.917 1358.37 262.917C1408.98 262.917 1450 233.544 1450 197.324C1450 161.095 1408.98 131.722 1358.37 131.722Z" fill="white"/>
</g>
<g filter="url(#filter8_d_30_6697)">
<path d="M1481.32 203.029C1481 203.029 1480.68 203.031 1480.36 203.031C1480.38 202.516 1480.39 201.998 1480.39 201.474C1480.39 169.185 1443.72 143 1398.49 143C1365.03 143 1336.26 157.329 1323.55 177.864C1318.28 176.717 1312.68 176.096 1306.89 176.096C1275.39 176.096 1249.86 194.324 1249.86 216.807C1249.86 217.169 1249.87 217.536 1249.88 217.895C1224.72 222.129 1206 238.259 1206 257.518C1206 280.006 1231.53 298.232 1263.02 298.232C1271.04 298.232 1278.67 297.052 1285.59 294.916C1295.81 302.378 1310 307 1325.68 307C1342.11 307 1356.9 301.924 1367.21 293.827C1376.89 301.928 1390.77 307 1406.2 307C1422.95 307 1437.88 301.018 1447.58 291.688C1457.48 295.843 1469.01 298.232 1481.33 298.232C1518.15 298.232 1548 276.917 1548 250.633C1548 224.343 1518.15 203.029 1481.32 203.029Z" fill="white"/>
</g>
</g>
<defs>
<filter id="filter0_d_30_6697" x="-597" y="314" width="3593" height="610" filterUnits="userSpaceOnUse" color-interpolation-filters="sRGB">
<feFlood flood-opacity="0" result="BackgroundImageFix"/>
<feColorMatrix in="SourceAlpha" type="matrix" values="0 0 0 0 0 0 0 0 0 0 0 0 0 0 0 0 0 0 127 0" result="hardAlpha"/>
<feOffset dx="4" dy="4"/>
<feGaussianBlur stdDeviation="20"/>
<feComposite in2="hardAlpha" operator="out"/>
<feColorMatrix type="matrix" values="0 0 0 0 0 0 0 0 0 0 0 0 0 0 0 0 0 0 0.25 0"/>
<feBlend mode="normal" in2="BackgroundImageFix" result="effect1_dropShadow_30_6697"/>
<feBlend mode="normal" in="SourceGraphic" in2="effect1_dropShadow_30_6697" result="shape"/>
</filter>
<filter id="filter1_d_30_6697" x="-1826.5" y="644.5" width="5009.96" height="672" filterUnits="userSpaceOnUse" color-interpolation-filters="sRGB">
<feFlood flood-opacity="0" result="BackgroundImageFix"/>
<feColorMatrix in="SourceAlpha" type="matrix" values="0 0 0 0 0 0 0 0 0 0 0 0 0 0 0 0 0 0 127 0" result="hardAlpha"/>
<feOffset dx="4" dy="4"/>
<feGaussianBlur stdDeviation="20"/>
<feComposite in2="hardAlpha" operator="out"/>
<feColorMatrix type="matrix" values="0 0 0 0 0 0 0 0 0 0 0 0 0 0 0 0 0 0 0.25 0"/>
<feBlend mode="normal" in2="BackgroundImageFix" result="effect1_dropShadow_30_6697"/>
<feBlend mode="normal" in="SourceGraphic" in2="effect1_dropShadow_30_6697" result="shape"/>
</filter>
<filter id="filter2_d_30_6697" x="-895.5" y="848.5" width="5009.97" height="825" filterUnits="userSpaceOnUse" color-interpolation-filters="sRGB">
<feFlood flood-opacity="0" result="BackgroundImageFix"/>
<feColorMatrix in="SourceAlpha" type="matrix" values="0 0 0 0 0 0 0 0 0 0 0 0 0 0 0 0 0 0 127 0" result="hardAlpha"/>
<feOffset dx="4" dy="5"/>
<feGaussianBlur stdDeviation="20"/>
<feComposite in2="hardAlpha" operator="out"/>
<feColorMatrix type="matrix" values="0 0 0 0 0 0 0 0 0 0 0 0 0 0 0 0 0 0 0.25 0"/>
<feBlend mode="normal" in2="BackgroundImageFix" result="effect1_dropShadow_30_6697"/>
<feBlend mode="normal" in="SourceGraphic" in2="effect1_dropShadow_30_6697" result="shape"/>
</filter>
<filter id="filter3_d_30_6697" x="401" y="366" width="1707.09" height="854.238" filterUnits="userSpaceOnUse" color-interpolation-filters="sRGB">
<feFlood flood-opacity="0" result="BackgroundImageFix"/>
<feColorMatrix in="SourceAlpha" type="matrix" values="0 0 0 0 0 0 0 0 0 0 0 0 0 0 0 0 0 0 127 0" result="hardAlpha"/>
<feOffset dx="5" dy="5"/>
<feGaussianBlur stdDeviation="20"/>
<feComposite in2="hardAlpha" operator="out"/>
<feColorMatrix type="matrix" values="0 0 0 0 0 0 0 0 0 0 0 0 0 0 0 0 0 0 0.25 0"/>
<feBlend mode="normal" in2="BackgroundImageFix" result="effect1_dropShadow_30_6697"/>
<feBlend mode="normal" in="SourceGraphic" in2="effect1_dropShadow_30_6697" result="shape"/>
</filter>
<filter id="filter4_d_30_6697" x="631.059" y="608.24" width="1244.6" height="103.065" filterUnits="userSpaceOnUse" color-interpolation-filters="sRGB">
<feFlood flood-opacity="0" result="BackgroundImageFix"/>
<feColorMatrix in="SourceAlpha" type="matrix" values="0 0 0 0 0 0 0 0 0 0 0 0 0 0 0 0 0 0 127 0" result="hardAlpha"/>
<feOffset dx="4" dy="4"/>
<feGaussianBlur stdDeviation="15"/>
<feComposite in2="hardAlpha" operator="out"/>
<feColorMatrix type="matrix" values="0 0 0 0 0 0 0 0 0 0 0 0 0 0 0 0 0 0 0.15 0"/>
<feBlend mode="normal" in2="BackgroundImageFix" result="effect1_dropShadow_30_6697"/>
<feBlend mode="normal" in="SourceGraphic" in2="effect1_dropShadow_30_6697" result="shape"/>
</filter>
<filter id="filter5_d_30_6697" x="321" y="122" width="391" height="209" filterUnits="userSpaceOnUse" color-interpolation-filters="sRGB">
<feFlood flood-opacity="0" result="BackgroundImageFix"/>
<feColorMatrix in="SourceAlpha" type="matrix" values="0 0 0 0 0 0 0 0 0 0 0 0 0 0 0 0 0 0 127 0" result="hardAlpha"/>
<feOffset dx="5" dy="4"/>
<feGaussianBlur stdDeviation="10"/>
<feComposite in2="hardAlpha" operator="out"/>
<feColorMatrix type="matrix" values="0 0 0 0 0 0 0 0 0 0 0 0 0 0 0 0 0 0 0.25 0"/>
<feBlend mode="normal" in2="BackgroundImageFix" result="effect1_dropShadow_30_6697"/>
<feBlend mode="normal" in="SourceGraphic" in2="effect1_dropShadow_30_6697" result="shape"/>
</filter>
<filter id="filter6_d_30_6697" x="1804" y="188" width="343" height="186" filterUnits="userSpaceOnUse" color-interpolation-filters="sRGB">
<feFlood flood-opacity="0" result="BackgroundImageFix"/>
<feColorMatrix in="SourceAlpha" type="matrix" values="0 0 0 0 0 0 0 0 0 0 0 0 0 0 0 0 0 0 127 0" result="hardAlpha"/>
<feOffset dx="5" dy="4"/>
<feGaussianBlur stdDeviation="10"/>
<feComposite in2="hardAlpha" operator="out"/>
<feColorMatrix type="matrix" values="0 0 0 0 0 0 0 0 0 0 0 0 0 0 0 0 0 0 0.25 0"/>
<feBlend mode="normal" in2="BackgroundImageFix" result="effect1_dropShadow_30_6697"/>
<feBlend mode="normal" in="SourceGraphic" in2="effect1_dropShadow_30_6697" result="shape"/>
</filter>
<filter id="filter7_d_30_6697" x="965" y="33" width="510" height="266" filterUnits="userSpaceOnUse" color-interpolation-filters="sRGB">
<feFlood flood-opacity="0" result="BackgroundImageFix"/>
<feColorMatrix in="SourceAlpha" type="matrix" values="0 0 0 0 0 0 0 0 0 0 0 0 0 0 0 0 0 0 127 0" result="hardAlpha"/>
<feOffset dx="5" dy="4"/>
<feGaussianBlur stdDeviation="10"/>
<feComposite in2="hardAlpha" operator="out"/>
<feColorMatrix type="matrix" values="0 0 0 0 0 0 0 0 0 0 0 0 0 0 0 0 0 0 0.25 0"/>
<feBlend mode="normal" in2="BackgroundImageFix" result="effect1_dropShadow_30_6697"/>
<feBlend mode="normal" in="SourceGraphic" in2="effect1_dropShadow_30_6697" result="shape"/>
</filter>
<filter id="filter8_d_30_6697" x="1181" y="118" width="382" height="204" filterUnits="userSpaceOnUse" color-interpolation-filters="sRGB">
<feFlood flood-opacity="0" result="BackgroundImageFix"/>
<feColorMatrix in="SourceAlpha" type="matrix" values="0 0 0 0 0 0 0 0 0 0 0 0 0 0 0 0 0 0 127 0" result="hardAlpha"/>
<feOffset dx="-5" dy="-5"/>
<feGaussianBlur stdDeviation="10"/>
<feComposite in2="hardAlpha" operator="out"/>
<feColorMatrix type="matrix" values="0 0 0 0 0 0 0 0 0 0 0 0 0 0 0 0 0 0 0.25 0"/>
<feBlend mode="normal" in2="BackgroundImageFix" result="effect1_dropShadow_30_6697"/>
<feBlend mode="normal" in="SourceGraphic" in2="effect1_dropShadow_30_6697" result="shape"/>
</filter>
<clipPath id="clip0_30_6697">
<rect width="2500" height="1616" fill="white"/>
</clipPath>
</defs>
</svg>