<svg width="113" height="121" viewBox="0 0 113 121" fill="none" xmlns="http://www.w3.org/2000/svg">
<g filter="url(#filter0_d_30_6390)">
<path fill-rule="evenodd" clip-rule="evenodd" d="M24.4982 27.4731C22.9241 27.5646 21.4457 28.3825 20.6232 29.8168C19.2992 32.1114 20.1546 35.13 22.5295 36.5043L43.6545 48.7856L53.2482 54.3481C54.5209 55.0829 53.4694 56.7719 52.2482 56.0669L42.6232 50.5043C42.4747 50.4178 42.3385 50.3241 42.1857 50.2543C39.8935 49.2081 37.1695 50.0403 35.9357 52.1918C34.6192 54.4878 35.4679 57.5056 37.8419 58.8794L39.2795 59.7231L47.4357 64.4419C48.7395 65.1945 47.4737 66.7598 46.4357 66.1606L38.2795 61.4419C35.9032 60.0584 32.8766 60.8344 31.5607 63.1294C30.2439 65.4258 31.0896 68.4318 33.4669 69.8168L36.2169 71.4106L41.6232 74.5356C43.005 75.3333 41.7956 76.9624 40.6232 76.2856L35.2169 73.1293C32.8412 71.7553 29.8441 72.5324 28.5295 74.8168C27.2055 77.1114 28.0296 80.13 30.4045 81.5043L55.2795 95.9418C55.3115 95.9608 55.3435 95.9818 55.3735 96.0038C55.4405 96.0378 55.5035 96.0798 55.561 96.1288C59.8659 98.6215 64.0259 100.991 67.936 101.004C71.9057 101.017 75.9438 98.7878 80.3422 91.1288L87.9048 77.9726C87.9148 77.9406 87.9238 77.9096 87.9358 77.8786L88.0608 77.6598C88.0798 77.6278 88.1008 77.5958 88.1228 77.5658C94.2119 66.7966 92.4314 59.1072 88.0288 53.1596C83.5905 47.1636 76.2954 43.0791 71.5288 40.3159L65.4662 36.7846C63.0902 35.4104 60.0945 36.2087 58.7788 38.5034C57.4642 40.7876 58.2795 43.7858 60.6538 45.1596C60.7208 45.194 60.7837 45.2361 60.8412 45.2846L70.0288 50.5971C70.5403 50.8246 70.7684 51.53 70.4868 52.0139C70.2053 52.4977 69.4794 52.6481 69.0288 52.3159L59.9038 47.0034C59.8718 46.9944 59.8408 46.9841 59.8098 46.9722L59.7478 46.941C59.7158 46.932 59.6848 46.9216 59.6538 46.9097C59.5568 46.8536 59.4657 46.7822 59.3725 46.7222L27.31 28.1296C26.4189 27.6108 25.4426 27.4182 24.4982 27.4731Z" fill="#262626"/>
<path d="M53.527 16.5128L53.5053 16.5088L53.4833 16.5067C53.3969 16.4985 53.3101 16.4978 53.2236 16.5047C53.0289 16.5087 52.8368 16.5507 52.6581 16.6284C52.4749 16.708 52.3096 16.8235 52.1718 16.9679L45.4887 23.6509L45.4887 23.6509L45.4851 23.6546C45.2096 23.9358 45.0557 24.314 45.0557 24.7076C45.0557 25.1011 45.2096 25.4794 45.4851 25.7606L45.4851 25.7606L45.4879 25.7634L52.1755 32.4822L52.1755 32.4822L52.1786 32.4852C52.4627 32.7658 52.8466 32.9219 53.246 32.9184C53.6454 32.9149 54.0266 32.7522 54.3058 32.4667C54.585 32.1814 54.7394 31.7967 54.736 31.3976C54.7326 30.9991 54.5719 30.6177 54.2886 30.3374C54.2882 30.337 54.2878 30.3366 54.2874 30.3361L50.1744 26.2232H89.9017C90.0991 26.2255 90.2951 26.1887 90.4784 26.1151C90.6628 26.041 90.8307 25.9309 90.9722 25.7914C91.1138 25.6518 91.2262 25.4855 91.3029 25.3021C91.3796 25.1188 91.4191 24.922 91.4191 24.7232C91.4191 24.5244 91.3796 24.3276 91.3029 24.1442C91.2262 23.9608 91.1138 23.7945 90.9722 23.655C90.8307 23.5154 90.6628 23.4054 90.4784 23.3313C90.2951 23.2576 90.0991 23.2209 89.9017 23.2232H50.1691L54.2851 19.0813C54.4841 18.8923 54.6275 18.6523 54.6999 18.3873C54.7731 18.1193 54.7708 17.8362 54.6932 17.5694C54.6156 17.3026 54.4656 17.0625 54.2598 16.8758C54.054 16.6892 53.8004 16.5634 53.527 16.5128Z" fill="#262626" stroke="#262626"/>
</g>
<defs>
<filter id="filter0_d_30_6390" x="0" y="0" width="112.041" height="125.004" filterUnits="userSpaceOnUse" color-interpolation-filters="sRGB">
<feFlood flood-opacity="0" result="BackgroundImageFix"/>
<feColorMatrix in="SourceAlpha" type="matrix" values="0 0 0 0 0 0 0 0 0 0 0 0 0 0 0 0 0 0 127 0" result="hardAlpha"/>
<feOffset dy="4"/>
<feGaussianBlur stdDeviation="10"/>
<feComposite in2="hardAlpha" operator="out"/>
<feColorMatrix type="matrix" values="0 0 0 0 0 0 0 0 0 0 0 0 0 0 0 0 0 0 0.25 0"/>
<feBlend mode="normal" in2="BackgroundImageFix" result="effect1_dropShadow_30_6390"/>
<feBlend mode="normal" in="SourceGraphic" in2="effect1_dropShadow_30_6390" result="shape"/>
</filter>
</defs>
</svg>
