<svg width="6011" height="1616" viewBox="0 0 6011 1616" fill="none" xmlns="http://www.w3.org/2000/svg">
<g clipPath="url(#clip0_242_542)">
<rect width="6011" height="1616" fill="#B0CCF7"/>
<g filter="url(#filter0_d_242_542)">
<path d="M1029.37 253.722C1028.93 253.722 1028.48 253.725 1028.04 253.725C1028.07 253.015 1028.08 252.302 1028.08 251.58C1028.08 207.084 977.696 171 915.54 171C869.551 171 830.006 190.746 812.547 219.045C805.297 217.463 797.61 216.608 789.645 216.608C746.363 216.608 711.281 241.727 711.281 272.709C711.281 273.208 711.285 273.715 711.305 274.21C676.732 280.044 651 302.272 651 328.811C651 359.801 686.082 384.917 729.365 384.917C740.385 384.917 750.87 383.291 760.381 380.347C774.426 390.63 793.926 397 815.476 397C838.058 397 858.382 390.006 872.545 378.847C885.842 390.01 904.929 397 926.126 397C949.145 397 969.659 388.757 982.997 375.899C996.602 381.624 1012.45 384.917 1029.37 384.917C1079.98 384.917 1121 355.544 1121 319.324C1121 283.095 1079.98 253.722 1029.37 253.722Z" fill="white"/>
</g>
<g filter="url(#filter1_d_242_542)">
<path fillRule="evenodd" clipRule="evenodd" d="M1531 868C1560.95 857.748 1620.86 837.245 1659.37 830.41C1667.93 826.993 1680.76 823.576 1689.32 820.159C1697.88 813.324 1706.44 809.907 1719.27 806.49C1732.11 799.655 1749.23 796.238 1762.06 792.821C1779.18 785.986 1787.74 779.152 1792.01 775.735C1843.36 741.562 1898.99 738.145 1971.73 700.556C1997.4 690.304 2044.47 635.628 2104.38 611.708C2138.61 598.039 2181.4 591.204 2185.68 587.787C2211.35 584.37 2215.63 598.039 2228.47 604.873C2232.74 608.29 2241.3 611.708 2245.58 615.125C2262.7 591.204 2279.81 557.032 2292.65 546.78C2309.76 536.529 2326.88 533.111 2335.44 526.277C2378.23 498.939 2399.62 492.105 2421.02 495.522C2438.13 495.522 2472.36 495.522 2498.04 509.191C2502.32 509.191 2510.87 512.608 2515.15 516.025C2519.43 512.608 2523.71 509.191 2527.99 505.774C2540.83 498.939 2622.13 481.853 2682.03 471.601C2686.31 464.767 2690.59 454.515 2699.15 447.681C2711.98 437.429 2733.38 440.846 2741.94 434.012C2771.89 406.674 2827.52 386.17 2844.63 379.336C2848.91 379.336 2861.75 386.17 2887.42 399.839C2913.09 393.005 2938.77 386.17 2960.16 375.919C3020.07 358.833 3054.3 334.912 3058.58 338.329C3079.97 341.746 3131.32 362.25 3161.27 389.588C3174.11 399.839 3195.5 393.005 3204.06 403.257C3225.46 420.343 3225.46 440.846 3242.57 454.515C3246.85 457.932 3255.41 457.932 3259.69 464.767C3285.36 481.853 3311.03 505.774 3323.87 502.356C3370.94 495.522 3383.78 475.018 3405.17 464.767C3435.12 451.098 3465.08 454.515 3486.47 451.098C3503.59 447.681 3529.26 457.932 3567.77 481.853C3580.61 492.105 3593.44 492.105 3610.56 502.356C3623.4 512.608 3640.51 543.363 3657.63 563.866C3679.02 550.198 3691.86 546.78 3704.7 546.78C3717.53 550.198 3738.93 546.78 3760.32 557.032C3773.16 563.866 3781.72 580.953 3811.67 587.787C3824.51 587.787 3841.62 570.701 3858.74 557.032C3863.02 553.615 3867.29 553.615 3871.57 550.198C3884.41 539.946 3884.41 522.86 3897.25 512.608C3905.81 502.356 3918.64 505.774 3927.2 498.939C3948.59 478.436 3982.83 464.767 3995.66 461.35C3999.94 457.932 4021.34 475.018 4064.13 492.105C4111.19 505.774 4179.66 522.86 4213.89 550.198C4226.72 560.449 4346.53 577.535 4359.37 591.204C4423.56 639.046 4496.3 676.635 4500.58 676.635C4543.37 748.397 4504.86 700.556 4564.76 662.966C4573.32 659.549 4577.6 649.297 4594.71 652.714C4598.99 656.132 4624.67 659.549 4650.34 669.801C4688.85 690.304 4723.08 731.311 4740.2 741.562C4791.54 765.483 4830.05 772.318 4864.29 796.238C4872.84 803.073 4928.47 833.828 4954.14 837.245C4979.82 844.079 5022.61 861.166 5044 868H4440.67H3050.02H1531Z" fill="#415D44"/>
</g>
<g filter="url(#filter2_d_242_542)">
<path fillRule="evenodd" clipRule="evenodd" d="M-10 868C7.78563 857.748 43.3569 837.245 66.2241 830.41C71.3057 826.993 78.9281 823.576 84.0097 820.159C89.0914 813.324 94.173 809.907 101.795 806.49C109.418 799.655 119.581 796.238 127.203 792.821C137.367 785.986 142.448 779.152 144.989 775.735C175.479 741.562 208.509 738.145 251.703 700.556C266.948 690.304 294.896 635.628 330.468 611.708C350.794 598.039 376.202 591.204 378.743 587.787C393.988 584.37 396.529 598.039 404.151 604.873C406.692 608.29 411.773 611.708 414.314 615.125C424.477 591.204 434.641 557.032 442.263 546.78C452.426 536.529 462.59 533.111 467.671 526.277C493.079 498.939 505.783 492.105 518.487 495.522C528.65 495.522 548.977 495.522 564.222 509.191C566.763 509.191 571.844 512.608 574.385 516.025C576.926 512.608 579.466 509.191 582.007 505.774C589.63 498.939 637.905 481.853 673.476 471.601C676.017 464.767 678.558 454.515 683.639 447.681C691.262 437.429 703.966 440.846 709.047 434.012C726.833 406.674 759.864 386.17 770.027 379.336C772.568 379.336 780.19 386.17 795.435 399.839C810.68 393.005 825.924 386.17 838.628 375.919C874.2 358.833 894.526 334.912 897.067 338.329C909.771 341.746 940.261 362.25 958.046 389.588C965.669 399.839 978.373 393.005 983.454 403.257C996.158 420.343 996.158 440.846 1006.32 454.515C1008.86 457.932 1013.94 457.932 1016.48 464.767C1031.73 481.853 1046.97 505.774 1054.6 502.356C1082.55 495.522 1090.17 475.018 1102.87 464.767C1120.66 451.098 1138.44 454.515 1151.15 451.098C1161.31 447.681 1176.56 457.932 1199.42 481.853C1207.05 492.105 1214.67 492.105 1224.83 502.356C1232.45 512.608 1242.62 543.363 1252.78 563.866C1265.48 550.198 1273.11 546.78 1280.73 546.78C1288.35 550.198 1301.05 546.78 1313.76 557.032C1321.38 563.866 1326.46 580.953 1344.25 587.787C1351.87 587.787 1362.03 570.701 1372.2 557.032C1374.74 553.615 1377.28 553.615 1379.82 550.198C1387.44 539.946 1387.44 522.86 1395.06 512.608C1400.15 502.356 1407.77 505.774 1412.85 498.939C1425.55 478.436 1445.88 464.767 1453.5 461.35C1456.04 457.932 1468.75 475.018 1494.16 492.105C1522.1 505.774 1562.76 522.86 1583.08 550.198C1590.71 560.449 1661.85 577.535 1669.47 591.204C1707.58 639.046 1750.78 676.635 1753.32 676.635C1778.73 748.397 1755.86 700.556 1791.43 662.966C1796.51 659.549 1799.05 649.297 1809.22 652.714C1811.76 656.132 1827 659.549 1842.25 669.801C1865.11 690.304 1885.44 731.311 1895.6 741.562C1926.09 765.483 1948.96 772.318 1969.29 796.238C1974.37 803.073 2007.4 833.828 2022.64 837.245C2037.89 844.079 2063.3 861.166 2076 868H1717.75H891.985H-10Z" fill="#415D44"/>
</g>
<g filter="url(#filter3_d_242_542)">
<path d="M2756.33 810.152C1249.21 577.179 1040.27 716.515 1 849L1 1260H5999.5L6011 804.5C5970.29 783.227 5662 1029 4931.94 810.152C4361.64 511.386 3825.18 774.156 2756.33 810.152Z" fill="#31893A"/>
<path d="M4931.94 810.152C4361.64 511.386 3825.18 774.156 2756.33 810.152C1249.21 577.179 1040.27 716.515 1 849L1 1260H5999.5L6011 804.5M4931.94 810.152C5662 1029 5970.29 783.227 6011 804.5M4931.94 810.152C5297.5 1104.5 6011 1104.35 6011 804.5" stroke="#25802E"/>
</g>
<g filter="url(#filter4_d_242_542)">
<path d="M3681.83 1098.69C2174.71 805.408 1029.27 995.717 -10 1162.5V1637L6007.19 1665V1197.34C5966.48 1170.56 5916.96 1137.94 5857.44 1098.69C5287.14 722.583 4750.68 1053.38 3681.83 1098.69Z" fill="#519959"/>
<path d="M3681.83 1098.69C2174.71 805.408 1029.27 995.717 -10 1162.5V1637L6007.19 1665V1197.34C5966.48 1170.56 5916.96 1137.94 5857.44 1098.69C5287.14 722.583 4750.68 1053.38 3681.83 1098.69Z" stroke="#25802E"/>
</g>
<g filter="url(#filter5_d_242_542)">
<path d="M2720.57 183.859C2720.24 183.859 2719.91 183.861 2719.58 183.861C2719.6 183.33 2719.61 182.797 2719.61 182.257C2719.61 148.983 2681.98 122 2635.56 122C2601.22 122 2571.68 136.766 2558.64 157.927C2553.23 156.745 2547.49 156.105 2541.54 156.105C2509.22 156.105 2483.02 174.888 2483.02 198.057C2483.02 198.43 2483.02 198.809 2483.04 199.179C2457.22 203.542 2438 220.164 2438 240.009C2438 263.183 2464.2 281.964 2496.52 281.964C2504.75 281.964 2512.58 280.748 2519.69 278.547C2530.18 286.237 2544.74 291 2560.83 291C2577.7 291 2592.87 285.77 2603.45 277.426C2613.38 285.773 2627.64 291 2643.47 291C2660.66 291 2675.98 284.836 2685.94 275.221C2696.1 279.502 2707.93 281.965 2720.57 281.965C2758.37 281.965 2789 260 2789 232.915C2789 205.823 2758.36 183.859 2720.57 183.859Z" fill="white"/>
</g>
<g filter="url(#filter6_d_242_542)">
<path d="M4164.93 241.44C4164.64 241.44 4164.36 241.442 4164.07 241.442C4164.09 240.983 4164.1 240.523 4164.1 240.056C4164.1 211.311 4131.61 188 4091.54 188C4061.9 188 4036.4 200.756 4025.15 219.038C4020.47 218.016 4015.52 217.463 4010.38 217.463C3982.48 217.463 3959.86 233.691 3959.86 253.706C3959.86 254.028 3959.86 254.355 3959.88 254.675C3937.59 258.444 3921 272.804 3921 289.949C3921 309.969 3943.62 326.194 3971.52 326.194C3978.62 326.194 3985.38 325.144 3991.52 323.242C4000.57 329.885 4013.14 334 4027.03 334C4041.59 334 4054.7 329.481 4063.83 322.273C4072.4 329.484 4084.7 334 4098.37 334C4113.21 334 4126.43 328.675 4135.03 320.369C4143.8 324.067 4154.02 326.194 4164.93 326.194C4197.56 326.194 4224 307.219 4224 283.82C4224 260.415 4197.55 241.44 4164.93 241.44Z" fill="white"/>
</g>
<g filter="url(#filter7_d_242_542)">
<path d="M3460.37 115.722C3459.93 115.722 3459.48 115.725 3459.04 115.725C3459.07 115.015 3459.08 114.302 3459.08 113.58C3459.08 69.0836 3408.7 33 3346.54 33C3300.55 33 3261.01 52.7462 3243.55 81.0446C3236.3 79.4632 3228.61 78.6076 3220.65 78.6076C3177.36 78.6076 3142.28 103.727 3142.28 134.709C3142.28 135.208 3142.28 135.715 3142.31 136.21C3107.73 142.044 3082 164.272 3082 190.811C3082 221.801 3117.08 246.917 3160.36 246.917C3171.38 246.917 3181.87 245.291 3191.38 242.347C3205.43 252.63 3224.93 259 3246.48 259C3269.06 259 3289.38 252.006 3303.54 240.847C3316.84 252.01 3335.93 259 3357.13 259C3380.15 259 3400.66 250.757 3414 237.899C3427.6 243.624 3443.45 246.917 3460.37 246.917C3510.98 246.917 3552 217.544 3552 181.324C3552 145.095 3510.98 115.722 3460.37 115.722Z" fill="white"/>
</g>
<g filter="url(#filter8_d_242_542)">
<path d="M3583.32 187.029C3583 187.029 3582.68 187.031 3582.36 187.031C3582.38 186.516 3582.39 185.998 3582.39 185.474C3582.39 153.185 3545.72 127 3500.49 127C3467.03 127 3438.26 141.329 3425.55 161.864C3420.28 160.717 3414.68 160.096 3408.89 160.096C3377.39 160.096 3351.86 178.324 3351.86 200.807C3351.86 201.169 3351.87 201.536 3351.88 201.895C3326.72 206.129 3308 222.259 3308 241.518C3308 264.006 3333.53 282.232 3365.02 282.232C3373.04 282.232 3380.67 281.052 3387.59 278.916C3397.81 286.378 3412 291 3427.68 291C3444.11 291 3458.9 285.924 3469.21 277.827C3478.89 285.928 3492.77 291 3508.2 291C3524.95 291 3539.88 285.018 3549.58 275.688C3559.48 279.843 3571.01 282.232 3583.33 282.232C3620.15 282.232 3650 260.917 3650 234.633C3650 208.343 3620.15 187.029 3583.32 187.029Z" fill="white"/>
</g>
<g filter="url(#filter9_d_242_542)">
<path d="M4912.57 409.859C4912.24 409.859 4911.91 409.861 4911.58 409.861C4911.6 409.33 4911.61 408.797 4911.61 408.257C4911.61 374.983 4873.98 348 4827.56 348C4793.22 348 4763.68 362.766 4750.64 383.927C4745.23 382.745 4739.49 382.105 4733.54 382.105C4701.22 382.105 4675.02 400.888 4675.02 424.057C4675.02 424.43 4675.02 424.809 4675.04 425.179C4649.22 429.542 4630 446.164 4630 466.009C4630 489.183 4656.2 507.964 4688.52 507.964C4696.75 507.964 4704.58 506.748 4711.69 504.547C4722.18 512.237 4736.74 517 4752.83 517C4769.7 517 4784.87 511.77 4795.45 503.426C4805.38 511.773 4819.64 517 4835.47 517C4852.66 517 4867.98 510.836 4877.94 501.221C4888.1 505.502 4899.93 507.965 4912.57 507.965C4950.37 507.965 4981 486 4981 458.915C4981 431.823 4950.36 409.859 4912.57 409.859Z" fill="white"/>
</g>
<g filter="url(#filter10_d_242_542)">
<path d="M5652.37 341.722C5651.93 341.722 5651.48 341.725 5651.04 341.725C5651.07 341.015 5651.08 340.302 5651.08 339.58C5651.08 295.084 5600.7 259 5538.54 259C5492.55 259 5453.01 278.746 5435.55 307.045C5428.3 305.463 5420.61 304.608 5412.65 304.608C5369.36 304.608 5334.28 329.727 5334.28 360.709C5334.28 361.208 5334.28 361.715 5334.31 362.21C5299.73 368.044 5274 390.272 5274 416.811C5274 447.801 5309.08 472.917 5352.36 472.917C5363.38 472.917 5373.87 471.291 5383.38 468.347C5397.43 478.63 5416.93 485 5438.48 485C5461.06 485 5481.38 478.006 5495.54 466.847C5508.84 478.01 5527.93 485 5549.13 485C5572.15 485 5592.66 476.757 5606 463.899C5619.6 469.624 5635.45 472.917 5652.37 472.917C5702.98 472.917 5744 443.544 5744 407.324C5744 371.095 5702.98 341.722 5652.37 341.722Z" fill="white"/>
</g>
<g filter="url(#filter11_d_242_542)">
<path d="M5775.32 413.029C5775 413.029 5774.68 413.031 5774.36 413.031C5774.38 412.516 5774.39 411.998 5774.39 411.474C5774.39 379.185 5737.72 353 5692.49 353C5659.03 353 5630.26 367.329 5617.55 387.864C5612.28 386.717 5606.68 386.096 5600.89 386.096C5569.39 386.096 5543.86 404.324 5543.86 426.807C5543.86 427.169 5543.87 427.536 5543.88 427.895C5518.72 432.129 5500 448.259 5500 467.518C5500 490.006 5525.53 508.232 5557.02 508.232C5565.04 508.232 5572.67 507.052 5579.59 504.916C5589.81 512.378 5604 517 5619.68 517C5636.11 517 5650.9 511.924 5661.21 503.827C5670.89 511.928 5684.77 517 5700.2 517C5716.95 517 5731.88 511.018 5741.58 501.688C5751.48 505.843 5763.01 508.232 5775.33 508.232C5812.15 508.232 5842 486.917 5842 460.633C5842 434.343 5812.15 413.029 5775.32 413.029Z" fill="white"/>
</g>
<g filter="url(#filter12_d_242_542)">
<path d="M283.57 206.859C283.241 206.859 282.907 206.861 282.578 206.861C282.599 206.33 282.608 205.797 282.608 205.257C282.608 171.983 244.98 145 198.56 145C164.216 145 134.683 159.766 121.644 180.927C116.23 179.745 110.49 179.105 104.541 179.105C72.2179 179.105 46.0183 197.888 46.0183 221.057C46.0183 221.43 46.0213 221.809 46.0364 222.179C20.2172 226.542 1 243.164 1 263.009C1 286.183 27.1996 304.964 59.5234 304.964C67.7533 304.964 75.5841 303.748 82.6865 301.547C93.1756 309.237 107.739 314 123.832 314C140.696 314 155.875 308.77 166.451 300.426C176.382 308.773 190.636 314 206.467 314C223.658 314 238.977 307.836 248.938 298.221C259.099 302.502 270.933 304.965 283.573 304.965C321.368 304.965 352 283 352 255.915C352 228.823 321.362 206.859 283.57 206.859Z" fill="white"/>
</g>
<g filter="url(#filter13_d_242_542)">
<path d="M2147.93 294.44C2147.64 294.44 2147.36 294.442 2147.07 294.442C2147.09 293.983 2147.1 293.523 2147.1 293.056C2147.1 264.311 2114.61 241 2074.54 241C2044.9 241 2019.4 253.756 2008.15 272.038C2003.47 271.016 1998.52 270.463 1993.38 270.463C1965.48 270.463 1942.86 286.691 1942.86 306.706C1942.86 307.028 1942.86 307.355 1942.88 307.675C1920.59 311.444 1904 325.804 1904 342.949C1904 362.969 1926.62 379.194 1954.52 379.194C1961.62 379.194 1968.38 378.144 1974.52 376.242C1983.57 382.885 1996.14 387 2010.03 387C2024.59 387 2037.7 382.481 2046.83 375.273C2055.4 382.484 2067.7 387 2081.37 387C2096.21 387 2109.43 381.675 2118.03 373.369C2126.8 377.067 2137.02 379.194 2147.93 379.194C2180.56 379.194 2207 360.219 2207 336.82C2207 313.415 2180.55 294.44 2147.93 294.44Z" fill="white"/>
</g>
<g filter="url(#filter14_d_242_542)">
<rect x="2307.01" y="780.699" width="1399.42" height="312.109" fill="#B0CCF7"/>
<path d="M2212.28 714.522C2604.26 714.522 3453.52 714.522 3802.06 714.522C3811.44 714.522 3819.09 706.286 3819.09 696.187V633.128C3819.09 623.029 3811.44 614.793 3802.06 614.793H2212.28C2202.9 614.793 2195.25 623.029 2195.25 633.128V696.187C2195.25 706.286 2202.9 714.522 2212.28 714.522Z" fill="#262626"/>
<path d="M3762.25 1137.87V714.91C3464.18 714.91 2562.71 714.91 2244.67 714.91V1137.87H3762.25ZM3558.4 806.045H3660.12V911.258H3558.4V806.045ZM3558.4 941.607H3660.12V1046.82H3558.4V941.607ZM3340.03 806.045H3441.73V911.258H3340.03V806.045ZM3340.03 941.607H3441.73V1046.82H3340.03V941.607ZM3068.18 806.045H3169.91V911.258H3068.18V806.045ZM3068.18 941.607H3169.91V1046.82H3068.18V941.607ZM2849.82 806.045H2951.52V911.258H2849.82V806.045ZM2849.82 941.607H2951.52V1046.82H2849.82V941.607ZM2565.26 806.045H2666.99V911.258H2565.26V806.045ZM2565.26 941.607H2666.99V1046.82H2565.26V941.607ZM2346.9 806.045H2448.59V911.258H2346.9V806.045ZM2346.9 941.607H2448.59V1046.82H2346.9V941.607Z" fill="#B0ADAC"/>
<path d="M2192 1137.42V1185.24H3814.96V1137.42C3621.93 1137.43 2479.62 1137.52 2192 1137.42Z" fill="#262626"/>
<ellipse cx="3008.5" cy="501.736" rx="66.4931" ry="61.3078" fill="#B0CCF7"/>
<path d="M2757.91 614.542C3088.74 614.542 2670.91 614.542 3256.43 614.542C3261.24 614.542 3265.17 610.929 3265.17 606.499V588.324C3265.17 583.894 3261.24 580.281 3256.43 580.281C3121.12 577.125 3102.19 587.17 3102.19 572.239V498.393C3102.19 450.623 3061.29 412.263 3009.06 411.053C2958.6 409.284 2912.15 451.837 2912.15 502.587V572.239C2912.15 576.684 2908.24 580.281 2903.42 580.281H2757.91C2753.02 580.281 2749.18 583.816 2749.18 588.324V606.499C2749.18 611.007 2753.02 614.542 2757.91 614.542ZM3007.1 441.933C3041.91 441.933 3070.24 468.027 3070.24 500.107C3070.24 532.187 3041.91 558.282 3007.1 558.282C2972.3 558.282 2943.96 532.187 2943.96 500.107C2943.96 468.027 2972.3 441.933 3007.1 441.933Z" fill="#262626"/>
<path d="M3007.7 510.319H3021.27C3025.97 510.319 3029.78 506.741 3029.78 502.32C3029.78 497.899 3025.97 494.321 3021.27 494.321H3016.21V472.95C3016.21 468.528 3012.41 464.951 3007.7 464.951C3003 464.951 2999.19 468.528 2999.19 472.95V502.32C2999.19 506.741 3003 510.319 3007.7 510.319Z" fill="#262626"/>
<rect x="2346.67" y="806.856" width="100.865" height="104.449" stroke="#262626"/>
<rect x="2565.5" y="805.5" width="101" height="105" stroke="#262626"/>
<rect x="2849.5" y="805.5" width="101" height="105" stroke="#262626"/>
<rect x="3067.5" y="805.5" width="102" height="105" stroke="#262626"/>
<rect x="3340.5" y="805.5" width="101" height="105" stroke="#262626"/>
<rect x="3558.5" y="805.5" width="101" height="106" stroke="#262626"/>
<rect x="2346.5" y="942.5" width="101" height="105" stroke="#262626"/>
<rect x="2565.55" y="941.733" width="100.865" height="104.449" stroke="#262626"/>
<rect x="2849.5" y="941.5" width="102" height="105" stroke="#262626"/>
<rect x="3067.5" y="941.5" width="102" height="105" stroke="#262626"/>
<rect x="3340.55" y="941.733" width="100.865" height="104.449" stroke="#262626"/>
<rect x="3558.5" y="941.5" width="101" height="105" stroke="#262626"/>
<g filter="url(#filter15_d_242_542)">
</g>
<line x1="2397.5" y1="807" x2="2397.5" y2="911" stroke="black"/>
<line x1="2616.5" y1="806" x2="2616.5" y2="910" stroke="black"/>
<line x1="2616.5" y1="942" x2="2616.5" y2="1046" stroke="black"/>
<line x1="2900.5" y1="805" x2="2900.5" y2="911" stroke="black"/>
<line x1="2901.5" y1="941" x2="2901.5" y2="1047" stroke="black"/>
<line x1="3118.5" y1="805" x2="3118.5" y2="911" stroke="black"/>
<line x1="3118.5" y1="942" x2="3118.5" y2="1047" stroke="black"/>
<line x1="3391.5" y1="805" x2="3391.5" y2="910" stroke="black"/>
<line x1="3391.5" y1="942" x2="3391.5" y2="1046" stroke="black"/>
<line x1="3608.5" y1="942" x2="3608.5" y2="1046" stroke="black"/>
<line x1="3608.5" y1="806" x2="3608.5" y2="911" stroke="black"/>
<line x1="2397.5" y1="943" x2="2397.5" y2="1048" stroke="black"/>
</g>
<line x1="2589" y1="1465.1" x2="6006.65" y2="1465.1" stroke="#262626" strokeWidth="6"/>
<rect x="2591" y="1466" width="27.4424" height="19.24" stroke="#262626" strokeWidth="4"/>
<rect x="3329.21" y="1466" width="27.4424" height="19.24" stroke="#262626" strokeWidth="4"/>
<rect x="4067.42" y="1466" width="27.4424" height="19.24" stroke="#262626" strokeWidth="4"/>
<rect x="4805.64" y="1466" width="27.4424" height="19.24" stroke="#262626" strokeWidth="4"/>
<rect x="5543.85" y="1466" width="27.4424" height="19.24" stroke="#262626" strokeWidth="4"/>
<rect x="2960.11" y="1466" width="27.4424" height="19.24" stroke="#262626" strokeWidth="4"/>
<rect x="3698.32" y="1466" width="27.4424" height="19.24" stroke="#262626" strokeWidth="4"/>
<rect x="4436.53" y="1466" width="27.4424" height="19.24" stroke="#262626" strokeWidth="4"/>
<rect x="5174.74" y="1466" width="27.4424" height="19.24" stroke="#262626" strokeWidth="4"/>
<rect x="2714.04" y="1466" width="27.4424" height="19.24" stroke="#262626" strokeWidth="4"/>
<rect x="3452.25" y="1466" width="27.4424" height="19.24" stroke="#262626" strokeWidth="4"/>
<rect x="4190.46" y="1466" width="27.4424" height="19.24" stroke="#262626" strokeWidth="4"/>
<rect x="4928.67" y="1466" width="27.4424" height="19.24" stroke="#262626" strokeWidth="4"/>
<rect x="5666.88" y="1466" width="27.4424" height="19.24" stroke="#262626" strokeWidth="4"/>
<rect x="3083.14" y="1466" width="27.4424" height="19.24" stroke="#262626" strokeWidth="4"/>
<rect x="3821.35" y="1466" width="27.4424" height="19.24" stroke="#262626" strokeWidth="4"/>
<rect x="4559.57" y="1466" width="27.4424" height="19.24" stroke="#262626" strokeWidth="4"/>
<rect x="5297.78" y="1466" width="27.4424" height="19.24" stroke="#262626" strokeWidth="4"/>
<rect x="2837.07" y="1466" width="27.4424" height="19.24" stroke="#262626" strokeWidth="4"/>
<rect x="3575.28" y="1466" width="27.4424" height="19.24" stroke="#262626" strokeWidth="4"/>
<rect x="4313.5" y="1466" width="27.4424" height="19.24" stroke="#262626" strokeWidth="4"/>
<rect x="5051.71" y="1466" width="27.4424" height="19.24" stroke="#262626" strokeWidth="4"/>
<rect x="5789.92" y="1466" width="27.4424" height="19.24" stroke="#262626" strokeWidth="4"/>
<rect x="5871.94" y="1466" width="27.4424" height="19.24" stroke="#262626" strokeWidth="4"/>
<rect x="3206.18" y="1466" width="27.4424" height="19.24" stroke="#262626" strokeWidth="4"/>
<rect x="3944.39" y="1466" width="27.4424" height="19.24" stroke="#262626" strokeWidth="4"/>
<rect x="4682.6" y="1466" width="27.4424" height="19.24" stroke="#262626" strokeWidth="4"/>
<rect x="5420.81" y="1466" width="27.4424" height="19.24" stroke="#262626" strokeWidth="4"/>
<rect x="2632.01" y="1466" width="27.4424" height="19.24" stroke="#262626" strokeWidth="4"/>
<rect x="3370.22" y="1466" width="27.4424" height="19.24" stroke="#262626" strokeWidth="4"/>
<rect x="4108.44" y="1466" width="27.4424" height="19.24" stroke="#262626" strokeWidth="4"/>
<rect x="4846.65" y="1466" width="27.4424" height="19.24" stroke="#262626" strokeWidth="4"/>
<rect x="5584.86" y="1466" width="27.4424" height="19.24" stroke="#262626" strokeWidth="4"/>
<rect x="3001.12" y="1466" width="27.4424" height="19.24" stroke="#262626" strokeWidth="4"/>
<rect x="3739.33" y="1466" width="27.4424" height="19.24" stroke="#262626" strokeWidth="4"/>
<rect x="4477.54" y="1466" width="27.4424" height="19.24" stroke="#262626" strokeWidth="4"/>
<rect x="5215.75" y="1466" width="27.4424" height="19.24" stroke="#262626" strokeWidth="4"/>
<rect x="2755.05" y="1466" width="27.4424" height="19.24" stroke="#262626" strokeWidth="4"/>
<rect x="3493.26" y="1466" width="27.4424" height="19.24" stroke="#262626" strokeWidth="4"/>
<rect x="4231.47" y="1466" width="27.4424" height="19.24" stroke="#262626" strokeWidth="4"/>
<rect x="4969.68" y="1466" width="27.4424" height="19.24" stroke="#262626" strokeWidth="4"/>
<rect x="5707.89" y="1466" width="27.4424" height="19.24" stroke="#262626" strokeWidth="4"/>
<rect x="3124.15" y="1466" width="27.4424" height="19.24" stroke="#262626" strokeWidth="4"/>
<rect x="3862.37" y="1466" width="27.4424" height="19.24" stroke="#262626" strokeWidth="4"/>
<rect x="4600.58" y="1466" width="27.4424" height="19.24" stroke="#262626" strokeWidth="4"/>
<rect x="5338.79" y="1466" width="27.4424" height="19.24" stroke="#262626" strokeWidth="4"/>
<rect x="2878.08" y="1466" width="27.4424" height="19.24" stroke="#262626" strokeWidth="4"/>
<rect x="3616.29" y="1466" width="27.4424" height="19.24" stroke="#262626" strokeWidth="4"/>
<rect x="4354.51" y="1466" width="27.4424" height="19.24" stroke="#262626" strokeWidth="4"/>
<rect x="5092.72" y="1466" width="27.4424" height="19.24" stroke="#262626" strokeWidth="4"/>
<rect x="5830.93" y="1466" width="27.4424" height="19.24" stroke="#262626" strokeWidth="4"/>
<rect x="5912.95" y="1466" width="27.4424" height="19.24" stroke="#262626" strokeWidth="4"/>
<rect x="5953.97" y="1466" width="27.4424" height="19.24" stroke="#262626" strokeWidth="4"/>
<rect x="3247.19" y="1466" width="27.4424" height="19.24" stroke="#262626" strokeWidth="4"/>
<rect x="3985.4" y="1466" width="27.4424" height="19.24" stroke="#262626" strokeWidth="4"/>
<rect x="4723.61" y="1466" width="27.4424" height="19.24" stroke="#262626" strokeWidth="4"/>
<rect x="5461.82" y="1466" width="27.4424" height="19.24" stroke="#262626" strokeWidth="4"/>
<rect x="2673.02" y="1466" width="27.4424" height="19.24" stroke="#262626" strokeWidth="4"/>
<rect x="3411.24" y="1466" width="27.4424" height="19.24" stroke="#262626" strokeWidth="4"/>
<rect x="4149.45" y="1466" width="27.4424" height="19.24" stroke="#262626" strokeWidth="4"/>
<rect x="4887.66" y="1466" width="27.4424" height="19.24" stroke="#262626" strokeWidth="4"/>
<rect x="5625.87" y="1466" width="27.4424" height="19.24" stroke="#262626" strokeWidth="4"/>
<rect x="3042.13" y="1466" width="27.4424" height="19.24" stroke="#262626" strokeWidth="4"/>
<rect x="3780.34" y="1466" width="27.4424" height="19.24" stroke="#262626" strokeWidth="4"/>
<rect x="4518.55" y="1466" width="27.4424" height="19.24" stroke="#262626" strokeWidth="4"/>
<rect x="5256.77" y="1466" width="27.4424" height="19.24" stroke="#262626" strokeWidth="4"/>
<rect x="2796.06" y="1466" width="27.4424" height="19.24" stroke="#262626" strokeWidth="4"/>
<rect x="3534.27" y="1466" width="27.4424" height="19.24" stroke="#262626" strokeWidth="4"/>
<rect x="4272.48" y="1466" width="27.4424" height="19.24" stroke="#262626" strokeWidth="4"/>
<rect x="5010.7" y="1466" width="27.4424" height="19.24" stroke="#262626" strokeWidth="4"/>
<rect x="5748.91" y="1466" width="27.4424" height="19.24" stroke="#262626" strokeWidth="4"/>
<rect x="3165.17" y="1466" width="27.4424" height="19.24" stroke="#262626" strokeWidth="4"/>
<rect x="3903.38" y="1466" width="27.4424" height="19.24" stroke="#262626" strokeWidth="4"/>
<rect x="4641.59" y="1466" width="27.4424" height="19.24" stroke="#262626" strokeWidth="4"/>
<rect x="5379.8" y="1466" width="27.4424" height="19.24" stroke="#262626" strokeWidth="4"/>
<rect x="2919.09" y="1466" width="27.4424" height="19.24" stroke="#262626" strokeWidth="4"/>
<rect x="3657.31" y="1466" width="27.4424" height="19.24" stroke="#262626" strokeWidth="4"/>
<rect x="4395.52" y="1466" width="27.4424" height="19.24" stroke="#262626" strokeWidth="4"/>
<rect x="5133.73" y="1466" width="27.4424" height="19.24" stroke="#262626" strokeWidth="4"/>
<rect x="3288.2" y="1466" width="27.4424" height="19.24" stroke="#262626" strokeWidth="4"/>
<rect x="4026.41" y="1466" width="27.4424" height="19.24" stroke="#262626" strokeWidth="4"/>
<rect x="4764.62" y="1466" width="27.4424" height="19.24" stroke="#262626" strokeWidth="4"/>
<rect x="5502.84" y="1466" width="27.4424" height="19.24" stroke="#262626" strokeWidth="4"/>
<line x1="-815" y1="1465.1" x2="2602.65" y2="1465.1" stroke="#262626" strokeWidth="6"/>
<rect x="663.424" y="1466" width="27.4424" height="19.24" stroke="#262626" strokeWidth="4"/>
<rect x="1401.64" y="1466" width="27.4424" height="19.24" stroke="#262626" strokeWidth="4"/>
<rect x="2139.85" y="1466" width="27.4424" height="19.24" stroke="#262626" strokeWidth="4"/>
<rect x="294.317" y="1466" width="27.4424" height="19.24" stroke="#262626" strokeWidth="4"/>
<rect x="1032.53" y="1466" width="27.4424" height="19.24" stroke="#262626" strokeWidth="4"/>
<rect x="1770.74" y="1466" width="27.4424" height="19.24" stroke="#262626" strokeWidth="4"/>
<rect x="48.2476" y="1466" width="27.4424" height="19.24" stroke="#262626" strokeWidth="4"/>
<rect x="786.459" y="1466" width="27.4424" height="19.24" stroke="#262626" strokeWidth="4"/>
<rect x="1524.67" y="1466" width="27.4424" height="19.24" stroke="#262626" strokeWidth="4"/>
<rect x="2262.88" y="1466" width="27.4424" height="19.24" stroke="#262626" strokeWidth="4"/>
<rect x="417.353" y="1466" width="27.4424" height="19.24" stroke="#262626" strokeWidth="4"/>
<rect x="1155.57" y="1466" width="27.4424" height="19.24" stroke="#262626" strokeWidth="4"/>
<rect x="1893.78" y="1466" width="27.4424" height="19.24" stroke="#262626" strokeWidth="4"/>
<rect x="171.282" y="1466" width="27.4424" height="19.24" stroke="#262626" strokeWidth="4"/>
<rect x="909.495" y="1466" width="27.4424" height="19.24" stroke="#262626" strokeWidth="4"/>
<rect x="1647.71" y="1466" width="27.4424" height="19.24" stroke="#262626" strokeWidth="4"/>
<rect x="2385.92" y="1466" width="27.4424" height="19.24" stroke="#262626" strokeWidth="4"/>
<rect x="2467.94" y="1466" width="27.4424" height="19.24" stroke="#262626" strokeWidth="4"/>
<rect x="540.388" y="1466" width="27.4424" height="19.24" stroke="#262626" strokeWidth="4"/>
<rect x="1278.6" y="1466" width="27.4424" height="19.24" stroke="#262626" strokeWidth="4"/>
<rect x="2016.81" y="1466" width="27.4424" height="19.24" stroke="#262626" strokeWidth="4"/>
<rect x="704.436" y="1466" width="27.4424" height="19.24" stroke="#262626" strokeWidth="4"/>
<rect x="1442.65" y="1466" width="27.4424" height="19.24" stroke="#262626" strokeWidth="4"/>
<rect x="2180.86" y="1466" width="27.4424" height="19.24" stroke="#262626" strokeWidth="4"/>
<rect x="335.33" y="1466" width="27.4424" height="19.24" stroke="#262626" strokeWidth="4"/>
<rect x="1073.54" y="1466" width="27.4424" height="19.24" stroke="#262626" strokeWidth="4"/>
<rect x="1811.75" y="1466" width="27.4424" height="19.24" stroke="#262626" strokeWidth="4"/>
<rect x="89.2598" y="1466" width="27.4424" height="19.24" stroke="#262626" strokeWidth="4"/>
<rect x="827.472" y="1466" width="27.4424" height="19.24" stroke="#262626" strokeWidth="4"/>
<rect x="1565.68" y="1466" width="27.4424" height="19.24" stroke="#262626" strokeWidth="4"/>
<rect x="2303.89" y="1466" width="27.4424" height="19.24" stroke="#262626" strokeWidth="4"/>
<rect x="458.365" y="1466" width="27.4424" height="19.24" stroke="#262626" strokeWidth="4"/>
<rect x="1196.58" y="1466" width="27.4424" height="19.24" stroke="#262626" strokeWidth="4"/>
<rect x="1934.79" y="1466" width="27.4424" height="19.24" stroke="#262626" strokeWidth="4"/>
<rect x="212.295" y="1466" width="27.4424" height="19.24" stroke="#262626" strokeWidth="4"/>
<rect x="950.507" y="1466" width="27.4424" height="19.24" stroke="#262626" strokeWidth="4"/>
<rect x="1688.72" y="1466" width="27.4424" height="19.24" stroke="#262626" strokeWidth="4"/>
<rect x="2426.93" y="1466" width="27.4424" height="19.24" stroke="#262626" strokeWidth="4"/>
<rect x="2508.95" y="1466" width="27.4424" height="19.24" stroke="#262626" strokeWidth="4"/>
<rect x="2549.97" y="1466" width="27.4424" height="19.24" stroke="#262626" strokeWidth="4"/>
<rect x="581.401" y="1466" width="27.4424" height="19.24" stroke="#262626" strokeWidth="4"/>
<rect x="1319.61" y="1466" width="27.4424" height="19.24" stroke="#262626" strokeWidth="4"/>
<rect x="2057.82" y="1466" width="27.4424" height="19.24" stroke="#262626" strokeWidth="4"/>
<rect x="7.23584" y="1466" width="27.4424" height="19.24" stroke="#262626" strokeWidth="4"/>
<rect x="745.447" y="1466" width="27.4424" height="19.24" stroke="#262626" strokeWidth="4"/>
<rect x="1483.66" y="1466" width="27.4424" height="19.24" stroke="#262626" strokeWidth="4"/>
<rect x="2221.87" y="1466" width="27.4424" height="19.24" stroke="#262626" strokeWidth="4"/>
<rect x="376.342" y="1466" width="27.4424" height="19.24" stroke="#262626" strokeWidth="4"/>
<rect x="1114.55" y="1466" width="27.4424" height="19.24" stroke="#262626" strokeWidth="4"/>
<rect x="1852.77" y="1466" width="27.4424" height="19.24" stroke="#262626" strokeWidth="4"/>
<rect x="130.271" y="1466" width="27.4424" height="19.24" stroke="#262626" strokeWidth="4"/>
<rect x="868.483" y="1466" width="27.4424" height="19.24" stroke="#262626" strokeWidth="4"/>
<rect x="1606.7" y="1466" width="27.4424" height="19.24" stroke="#262626" strokeWidth="4"/>
<rect x="2344.91" y="1466" width="27.4424" height="19.24" stroke="#262626" strokeWidth="4"/>
<rect x="499.377" y="1466" width="27.4424" height="19.24" stroke="#262626" strokeWidth="4"/>
<rect x="1237.59" y="1466" width="27.4424" height="19.24" stroke="#262626" strokeWidth="4"/>
<rect x="1975.8" y="1466" width="27.4424" height="19.24" stroke="#262626" strokeWidth="4"/>
<rect x="253.306" y="1466" width="27.4424" height="19.24" stroke="#262626" strokeWidth="4"/>
<rect x="991.518" y="1466" width="27.4424" height="19.24" stroke="#262626" strokeWidth="4"/>
<rect x="1729.73" y="1466" width="27.4424" height="19.24" stroke="#262626" strokeWidth="4"/>
<rect x="622.412" y="1466" width="27.4424" height="19.24" stroke="#262626" strokeWidth="4"/>
<rect x="1360.62" y="1466" width="27.4424" height="19.24" stroke="#262626" strokeWidth="4"/>
<rect x="2098.84" y="1466" width="27.4424" height="19.24" stroke="#262626" strokeWidth="4"/>
</g>
<defs>
<filter id="filter0_d_242_542" x="636" y="155" width="510" height="266" filterUnits="userSpaceOnUse" colorInterpolationFilters="sRGB">
<feFlood flood-opacity="0" result="BackgroundImageFix"/>
<feColorMatrix in="SourceAlpha" type="matrix" values="0 0 0 0 0 0 0 0 0 0 0 0 0 0 0 0 0 0 127 0" result="hardAlpha"/>
<feOffset dx="5" dy="4"/>
<feGaussianBlur stdDeviation="10"/>
<feComposite in2="hardAlpha" operator="out"/>
<feColorMatrix type="matrix" values="0 0 0 0 0 0 0 0 0 0 0 0 0 0 0 0 0 0 0.25 0"/>
<feBlend mode="normal" in2="BackgroundImageFix" result="effect1_dropShadow_242_542"/>
<feBlend mode="normal" in="SourceGraphic" in2="effect1_dropShadow_242_542" result="shape"/>
</filter>
<filter id="filter1_d_242_542" x="1495" y="302" width="3593" height="610" filterUnits="userSpaceOnUse" colorInterpolationFilters="sRGB">
<feFlood flood-opacity="0" result="BackgroundImageFix"/>
<feColorMatrix in="SourceAlpha" type="matrix" values="0 0 0 0 0 0 0 0 0 0 0 0 0 0 0 0 0 0 127 0" result="hardAlpha"/>
<feOffset dx="4" dy="4"/>
<feGaussianBlur stdDeviation="20"/>
<feComposite in2="hardAlpha" operator="out"/>
<feColorMatrix type="matrix" values="0 0 0 0 0 0 0 0 0 0 0 0 0 0 0 0 0 0 0.25 0"/>
<feBlend mode="normal" in2="BackgroundImageFix" result="effect1_dropShadow_242_542"/>
<feBlend mode="normal" in="SourceGraphic" in2="effect1_dropShadow_242_542" result="shape"/>
</filter>
<filter id="filter2_d_242_542" x="-46" y="302" width="2166" height="610" filterUnits="userSpaceOnUse" colorInterpolationFilters="sRGB">
<feFlood flood-opacity="0" result="BackgroundImageFix"/>
<feColorMatrix in="SourceAlpha" type="matrix" values="0 0 0 0 0 0 0 0 0 0 0 0 0 0 0 0 0 0 127 0" result="hardAlpha"/>
<feOffset dx="4" dy="4"/>
<feGaussianBlur stdDeviation="20"/>
<feComposite in2="hardAlpha" operator="out"/>
<feColorMatrix type="matrix" values="0 0 0 0 0 0 0 0 0 0 0 0 0 0 0 0 0 0 0.25 0"/>
<feBlend mode="normal" in2="BackgroundImageFix" result="effect1_dropShadow_242_542"/>
<feBlend mode="normal" in="SourceGraphic" in2="effect1_dropShadow_242_542" result="shape"/>
</filter>
<filter id="filter3_d_242_542" x="-35.5" y="632.5" width="6091" height="672" filterUnits="userSpaceOnUse" colorInterpolationFilters="sRGB">
<feFlood flood-opacity="0" result="BackgroundImageFix"/>
<feColorMatrix in="SourceAlpha" type="matrix" values="0 0 0 0 0 0 0 0 0 0 0 0 0 0 0 0 0 0 127 0" result="hardAlpha"/>
<feOffset dx="4" dy="4"/>
<feGaussianBlur stdDeviation="20"/>
<feComposite in2="hardAlpha" operator="out"/>
<feColorMatrix type="matrix" values="0 0 0 0 0 0 0 0 0 0 0 0 0 0 0 0 0 0 0.25 0"/>
<feBlend mode="normal" in2="BackgroundImageFix" result="effect1_dropShadow_242_542"/>
<feBlend mode="normal" in="SourceGraphic" in2="effect1_dropShadow_242_542" result="shape"/>
</filter>
<filter id="filter4_d_242_542" x="-46.5" y="885.5" width="6098.19" height="825.002" filterUnits="userSpaceOnUse" colorInterpolationFilters="sRGB">
<feFlood flood-opacity="0" result="BackgroundImageFix"/>
<feColorMatrix in="SourceAlpha" type="matrix" values="0 0 0 0 0 0 0 0 0 0 0 0 0 0 0 0 0 0 127 0" result="hardAlpha"/>
<feOffset dx="4" dy="5"/>
<feGaussianBlur stdDeviation="20"/>
<feComposite in2="hardAlpha" operator="out"/>
<feColorMatrix type="matrix" values="0 0 0 0 0 0 0 0 0 0 0 0 0 0 0 0 0 0 0.25 0"/>
<feBlend mode="normal" in2="BackgroundImageFix" result="effect1_dropShadow_242_542"/>
<feBlend mode="normal" in="SourceGraphic" in2="effect1_dropShadow_242_542" result="shape"/>
</filter>
<filter id="filter5_d_242_542" x="2423" y="106" width="391" height="209" filterUnits="userSpaceOnUse" colorInterpolationFilters="sRGB">
<feFlood flood-opacity="0" result="BackgroundImageFix"/>
<feColorMatrix in="SourceAlpha" type="matrix" values="0 0 0 0 0 0 0 0 0 0 0 0 0 0 0 0 0 0 127 0" result="hardAlpha"/>
<feOffset dx="5" dy="4"/>
<feGaussianBlur stdDeviation="10"/>
<feComposite in2="hardAlpha" operator="out"/>
<feColorMatrix type="matrix" values="0 0 0 0 0 0 0 0 0 0 0 0 0 0 0 0 0 0 0.25 0"/>
<feBlend mode="normal" in2="BackgroundImageFix" result="effect1_dropShadow_242_542"/>
<feBlend mode="normal" in="SourceGraphic" in2="effect1_dropShadow_242_542" result="shape"/>
</filter>
<filter id="filter6_d_242_542" x="3906" y="172" width="343" height="186" filterUnits="userSpaceOnUse" colorInterpolationFilters="sRGB">
<feFlood flood-opacity="0" result="BackgroundImageFix"/>
<feColorMatrix in="SourceAlpha" type="matrix" values="0 0 0 0 0 0 0 0 0 0 0 0 0 0 0 0 0 0 127 0" result="hardAlpha"/>
<feOffset dx="5" dy="4"/>
<feGaussianBlur stdDeviation="10"/>
<feComposite in2="hardAlpha" operator="out"/>
<feColorMatrix type="matrix" values="0 0 0 0 0 0 0 0 0 0 0 0 0 0 0 0 0 0 0.25 0"/>
<feBlend mode="normal" in2="BackgroundImageFix" result="effect1_dropShadow_242_542"/>
<feBlend mode="normal" in="SourceGraphic" in2="effect1_dropShadow_242_542" result="shape"/>
</filter>
<filter id="filter7_d_242_542" x="3067" y="17" width="510" height="266" filterUnits="userSpaceOnUse" colorInterpolationFilters="sRGB">
<feFlood flood-opacity="0" result="BackgroundImageFix"/>
<feColorMatrix in="SourceAlpha" type="matrix" values="0 0 0 0 0 0 0 0 0 0 0 0 0 0 0 0 0 0 127 0" result="hardAlpha"/>
<feOffset dx="5" dy="4"/>
<feGaussianBlur stdDeviation="10"/>
<feComposite in2="hardAlpha" operator="out"/>
<feColorMatrix type="matrix" values="0 0 0 0 0 0 0 0 0 0 0 0 0 0 0 0 0 0 0.25 0"/>
<feBlend mode="normal" in2="BackgroundImageFix" result="effect1_dropShadow_242_542"/>
<feBlend mode="normal" in="SourceGraphic" in2="effect1_dropShadow_242_542" result="shape"/>
</filter>
<filter id="filter8_d_242_542" x="3283" y="102" width="382" height="204" filterUnits="userSpaceOnUse" colorInterpolationFilters="sRGB">
<feFlood flood-opacity="0" result="BackgroundImageFix"/>
<feColorMatrix in="SourceAlpha" type="matrix" values="0 0 0 0 0 0 0 0 0 0 0 0 0 0 0 0 0 0 127 0" result="hardAlpha"/>
<feOffset dx="-5" dy="-5"/>
<feGaussianBlur stdDeviation="10"/>
<feComposite in2="hardAlpha" operator="out"/>
<feColorMatrix type="matrix" values="0 0 0 0 0 0 0 0 0 0 0 0 0 0 0 0 0 0 0.25 0"/>
<feBlend mode="normal" in2="BackgroundImageFix" result="effect1_dropShadow_242_542"/>
<feBlend mode="normal" in="SourceGraphic" in2="effect1_dropShadow_242_542" result="shape"/>
</filter>
<filter id="filter9_d_242_542" x="4615" y="332" width="391" height="209" filterUnits="userSpaceOnUse" colorInterpolationFilters="sRGB">
<feFlood flood-opacity="0" result="BackgroundImageFix"/>
<feColorMatrix in="SourceAlpha" type="matrix" values="0 0 0 0 0 0 0 0 0 0 0 0 0 0 0 0 0 0 127 0" result="hardAlpha"/>
<feOffset dx="5" dy="4"/>
<feGaussianBlur stdDeviation="10"/>
<feComposite in2="hardAlpha" operator="out"/>
<feColorMatrix type="matrix" values="0 0 0 0 0 0 0 0 0 0 0 0 0 0 0 0 0 0 0.25 0"/>
<feBlend mode="normal" in2="BackgroundImageFix" result="effect1_dropShadow_242_542"/>
<feBlend mode="normal" in="SourceGraphic" in2="effect1_dropShadow_242_542" result="shape"/>
</filter>
<filter id="filter10_d_242_542" x="5259" y="243" width="510" height="266" filterUnits="userSpaceOnUse" colorInterpolationFilters="sRGB">
<feFlood flood-opacity="0" result="BackgroundImageFix"/>
<feColorMatrix in="SourceAlpha" type="matrix" values="0 0 0 0 0 0 0 0 0 0 0 0 0 0 0 0 0 0 127 0" result="hardAlpha"/>
<feOffset dx="5" dy="4"/>
<feGaussianBlur stdDeviation="10"/>
<feComposite in2="hardAlpha" operator="out"/>
<feColorMatrix type="matrix" values="0 0 0 0 0 0 0 0 0 0 0 0 0 0 0 0 0 0 0.25 0"/>
<feBlend mode="normal" in2="BackgroundImageFix" result="effect1_dropShadow_242_542"/>
<feBlend mode="normal" in="SourceGraphic" in2="effect1_dropShadow_242_542" result="shape"/>
</filter>
<filter id="filter11_d_242_542" x="5475" y="328" width="382" height="204" filterUnits="userSpaceOnUse" colorInterpolationFilters="sRGB">
<feFlood flood-opacity="0" result="BackgroundImageFix"/>
<feColorMatrix in="SourceAlpha" type="matrix" values="0 0 0 0 0 0 0 0 0 0 0 0 0 0 0 0 0 0 127 0" result="hardAlpha"/>
<feOffset dx="-5" dy="-5"/>
<feGaussianBlur stdDeviation="10"/>
<feComposite in2="hardAlpha" operator="out"/>
<feColorMatrix type="matrix" values="0 0 0 0 0 0 0 0 0 0 0 0 0 0 0 0 0 0 0.25 0"/>
<feBlend mode="normal" in2="BackgroundImageFix" result="effect1_dropShadow_242_542"/>
<feBlend mode="normal" in="SourceGraphic" in2="effect1_dropShadow_242_542" result="shape"/>
</filter>
<filter id="filter12_d_242_542" x="-14" y="129" width="391" height="209" filterUnits="userSpaceOnUse" colorInterpolationFilters="sRGB">
<feFlood flood-opacity="0" result="BackgroundImageFix"/>
<feColorMatrix in="SourceAlpha" type="matrix" values="0 0 0 0 0 0 0 0 0 0 0 0 0 0 0 0 0 0 127 0" result="hardAlpha"/>
<feOffset dx="5" dy="4"/>
<feGaussianBlur stdDeviation="10"/>
<feComposite in2="hardAlpha" operator="out"/>
<feColorMatrix type="matrix" values="0 0 0 0 0 0 0 0 0 0 0 0 0 0 0 0 0 0 0.25 0"/>
<feBlend mode="normal" in2="BackgroundImageFix" result="effect1_dropShadow_242_542"/>
<feBlend mode="normal" in="SourceGraphic" in2="effect1_dropShadow_242_542" result="shape"/>
</filter>
<filter id="filter13_d_242_542" x="1889" y="225" width="343" height="186" filterUnits="userSpaceOnUse" colorInterpolationFilters="sRGB">
<feFlood flood-opacity="0" result="BackgroundImageFix"/>
<feColorMatrix in="SourceAlpha" type="matrix" values="0 0 0 0 0 0 0 0 0 0 0 0 0 0 0 0 0 0 127 0" result="hardAlpha"/>
<feOffset dx="5" dy="4"/>
<feGaussianBlur stdDeviation="10"/>
<feComposite in2="hardAlpha" operator="out"/>
<feColorMatrix type="matrix" values="0 0 0 0 0 0 0 0 0 0 0 0 0 0 0 0 0 0 0.25 0"/>
<feBlend mode="normal" in2="BackgroundImageFix" result="effect1_dropShadow_242_542"/>
<feBlend mode="normal" in="SourceGraphic" in2="effect1_dropShadow_242_542" result="shape"/>
</filter>
<filter id="filter14_d_242_542" x="2157" y="376" width="1707.09" height="854.238" filterUnits="userSpaceOnUse" colorInterpolationFilters="sRGB">
<feFlood flood-opacity="0" result="BackgroundImageFix"/>
<feColorMatrix in="SourceAlpha" type="matrix" values="0 0 0 0 0 0 0 0 0 0 0 0 0 0 0 0 0 0 127 0" result="hardAlpha"/>
<feOffset dx="5" dy="5"/>
<feGaussianBlur stdDeviation="20"/>
<feComposite in2="hardAlpha" operator="out"/>
<feColorMatrix type="matrix" values="0 0 0 0 0 0 0 0 0 0 0 0 0 0 0 0 0 0 0.25 0"/>
<feBlend mode="normal" in2="BackgroundImageFix" result="effect1_dropShadow_242_542"/>
<feBlend mode="normal" in="SourceGraphic" in2="effect1_dropShadow_242_542" result="shape"/>
</filter>
<filter id="filter15_d_242_542" x="2387.06" y="618.24" width="1244.6" height="103.065" filterUnits="userSpaceOnUse" colorInterpolationFilters="sRGB">
<feFlood flood-opacity="0" result="BackgroundImageFix"/>
<feColorMatrix in="SourceAlpha" type="matrix" values="0 0 0 0 0 0 0 0 0 0 0 0 0 0 0 0 0 0 127 0" result="hardAlpha"/>
<feOffset dx="4" dy="4"/>
<feGaussianBlur stdDeviation="15"/>
<feComposite in2="hardAlpha" operator="out"/>
<feColorMatrix type="matrix" values="0 0 0 0 0 0 0 0 0 0 0 0 0 0 0 0 0 0 0.15 0"/>
<feBlend mode="normal" in2="BackgroundImageFix" result="effect1_dropShadow_242_542"/>
<feBlend mode="normal" in="SourceGraphic" in2="effect1_dropShadow_242_542" result="shape"/>
</filter>
<clipPath id="clip0_242_542">
<rect width="6011" height="1616" fill="white"/>
</clipPath>
</defs>
</svg>
