<svg width="6011" height="1616" viewBox="0 0 6011 1616" fill="none" xmlns="http://www.w3.org/2000/svg">
<g clipPath="url(#clip0_242_542)">
<rect width="6011" height="1616" fill="#B0CCF7"/>
<g filter="url(#filter0_d_242_542)">
<path d="M1029.37 253.722C1028.93 253.722 1028.48 253.725 1028.04 253.725C1028.07 253.015 1028.08 252.302 1028.08 251.58C1028.08 207.084 977.696 171 915.54 171C869.551 171 830.006 190.746 812.547 219.045C805.297 217.463 797.61 216.608 789.645 216.608C746.363 216.608 711.281 241.727 711.281 272.709C711.281 273.208 711.285 273.715 711.305 274.21C676.732 280.044 651 302.272 651 328.811C651 359.801 686.082 384.917 729.365 384.917C740.385 384.917 750.87 383.291 760.381 380.347C774.426 390.63 793.926 397 815.476 397C838.058 397 858.382 390.006 872.545 378.847C885.842 390.01 904.929 397 926.126 397C949.145 397 969.659 388.757 982.997 375.899C996.602 381.624 1012.45 384.917 1029.37 384.917C1079.98 384.917 1121 355.544 1121 319.324C1121 283.095 1079.98 253.722 1029.37 253.722Z" fill="white"/>
</g>
<g filter="url(#filter1_d_242_542)">
<path fillRule="evenodd" clipRule="evenodd" d="M1531 868C1560.95 857.748 1620.86 837.245 1659.37 830.41C1667.93 826.993 1680.76 823.576 1689.32 820.159C1697.88 813.324 1706.44 809.907 1719.27 806.49C1732.11 799.655 1749.23 796.238 1762.06 792.821C1779.18 785.986 1787.74 779.152 1792.01 775.735C1843.36 741.562 1898.99 738.145 1971.73 700.556C1997.4 690.304 2044.47 635.628 2104.38 611.708C2138.61 598.039 2181.4 591.204 2185.68 587.787C2211.35 584.37 2215.63 598.039 2228.47 604.873C2232.74 608.29 2241.3 611.708 2245.58 615.125C2262.7 591.204 2279.81 557.032 2292.65 546.78C2309.76 536.529 2326.88 533.111 2335.44 526.277C2378.23 498.939 2399.62 492.105 2421.02 495.522C2438.13 495.522 2472.36 495.522 2498.04 509.191C2502.32 509.191 2510.87 512.608 2515.15 516.025C2519.43 512.608 2523.71 509.191 2527.99 505.774C2540.83 498.939 2622.13 481.853 2682.03 471.601C2686.31 464.767 2690.59 454.515 2699.15 447.681C2711.98 437.429 2733.38 440.846 2741.94 434.012C2771.89 406.674 2827.52 386.17 2844.63 379.336C2848.91 379.336 2861.75 386.17 2887.42 399.839C2913.09 393.005 2938.77 386.17 2960.16 375.919C3020.07 358.833 3054.3 334.912 3058.58 338.329C3079.97 341.746 3131.32 362.25 3161.27 389.588C3174.11 399.839 3195.5 393.005 3204.06 403.257C3225.46 420.343 3225.46 440.846 3242.57 454.515C3246.85 457.932 3255.41 457.932 3259.69 464.767C3285.36 481.853 3311.03 505.774 3323.87 502.356C3370.94 495.522 3383.78 475.018 3405.17 464.767C3435.12 451.098 3465.08 454.515 3486.47 451.098C3503.59 447.681 3529.26 457.932 3567.77 481.853C3580.61 492.105 3593.44 492.105 3610.56 502.356C3623.4 512.608 3640.51 543.363 3657.63 563.866C3679.02 550.198 3691.86 546.78 3704.7 546.78C3717.53 550.198 3738.93 546.78 3760.32 557.032C3773.16 563.866 3781.72 580.953 3811.67 587.787C3824.51 587.787 3841.62 570.701 3858.74 557.032C3863.02 553.615 3867.29 553.615 3871.57 550.198C3884.41 539.946 3884.41 522.86 3897.25 512.608C3905.81 502.356 3918.64 505.774 3927.2 498.939C3948.59 478.436 3982.83 464.767 3995.66 461.35C3999.94 457.932 4021.34 475.018 4064.13 492.105C4111.19 505.774 4179.66 522.86 4213.89 550.198C4226.72 560.449 4346.53 577.535 4359.37 591.204C4423.56 639.046 4496.3 676.635 4500.58 676.635C4543.37 748.397 4504.86 700.556 4564.76 662.966C4573.32 659.549 4577.6 649.297 4594.71 652.714C4598.99 656.132 4624.67 659.549 4650.34 669.801C4688.85 690.304 4723.08 731.311 4740.2 741.562C4791.54 765.483 4830.05 772.318 4864.29 796.238C4872.84 803.073 4928.47 833.828 4954.14 837.245C4979.82 844.079 5022.61 861.166 5044 868H4440.67H3050.02H1531Z" fill="#415D44"/>
</g>
<g filter="url(#filter2_d_242_542)">
<path fillRule="evenodd" clipRule="evenodd" d="M-10 868C7.78563 857.748 43.3569 837.245 66.2241 830.41C71.3057 826.993 78.9281 823.576 84.0097 820.159C89.0914 813.324 94.173 809.907 101.795 806.49C109.418 799.655 119.581 796.238 127.203 792.821C137.367 785.986 142.448 779.152 144.989 775.735C175.479 741.562 208.509 738.145 251.703 700.556C266.948 690.304 294.896 635.628 330.468 611.708C350.794 598.039 376.202 591.204 378.743 587.787C393.988 584.37 396.529 598.039 404.151 604.873C406.692 608.29 411.773 611.708 414.314 615.125C424.477 591.204 434.641 557.032 442.263 546.78C452.426 536.529 462.59 533.111 467.671 526.277C493.079 498.939 505.783 492.105 518.487 495.522C528.65 495.522 548.977 495.522 564.222 509.191C566.763 509.191 571.844 512.608 574.385 516.025C576.926 512.608 579.466 509.191 582.007 505.774C589.63 498.939 637.905 481.853 673.476 471.601C676.017 464.767 678.558 454.515 683.639 447.681C691.262 437.429 703.966 440.846 709.047 434.012C726.833 406.674 759.864 386.17 770.027 379.336C772.568 379.336 780.19 386.17 795.435 399.839C810.68 393.005 825.924 386.17 838.628 375.919C874.2 358.833 894.526 334.912 897.067 338.329C909.771 341.746 940.261 362.25 958.046 389.588C965.669 399.839 978.373 393.005 983.454 403.257C996.158 420.343 996.158 440.846 1006.32 454.515C1008.86 457.932 1013.94 457.932 1016.48 464.767C1031.73 481.853 1046.97 505.774 1054.6 502.356C1082.55 495.522 1090.17 475.018 1102.87 464.767C1120.66 451.098 1138.44 454.515 1151.15 451.098C1161.31 447.681 1176.56 457.932 1199.42 481.853C1207.05 492.105 1214.67 492.105 1224.83 502.356C1232.45 512.608 1242.62 543.363 1252.78 563.866C1265.48 550.198 1273.11 546.78 1280.73 546.78C1288.35 550.198 1301.05 546.78 1313.76 557.032C1321.38 563.866 1326.46 580.953 1344.25 587.787C1351.87 587.787 1362.03 570.701 1372.2 557.032C1374.74 553.615 1377.28 553.615 1379.82 550.198C1387.44 539.946 1387.44 522.86 1395.06 512.608C1400.15 502.356 1407.77 505.774 1412.85 498.939C1425.55 478.436 1445.88 464.767 1453.5 461.35C1456.04 457.932 1468.75 475.018 1494.16 492.105C1522.1 505.774 1562.76 522.86 1583.08 550.198C1590.71 560.449 1661.85 577.535 1669.47 591.204C1707.58 639.046 1750.78 676.635 1753.32 676.635C1778.73 748.397 1755.86 700.556 1791.43 662.966C1796.51 659.549 1799.05 649.297 1809.22 652.714C1811.76 656.132 1827 659.549 1842.25 669.801C1865.11 690.304 1885.44 731.311 1895.6 741.562C1926.09 765.483 1948.96 772.318 1969.29 796.238C1974.37 803.073 2007.4 833.828 2022.64 837.245C2037.89 844.079 2063.3 861.166 2076 868H1717.75H891.985H-10Z" fill="#415D44"/>
</g>
<g filter="url(#filter3_d_242_542)">
<path d="M2756.33 810.152C1249.21 577.179 1040.27 716.515 1 849L1 1260H5999.5L6011 804.5C5970.29 783.227 5662 1029 4931.94 810.152C4361.64 511.386 3825.18 774.156 2756.33 810.152Z" fill="#31893A"/>
<path d="M4931.94 810.152C4361.64 511.386 3825.18 774.156 2756.33 810.152C1249.21 577.179 1040.27 716.515 1 849L1 1260H5999.5L6011 804.5M4931.94 810.152C5662 1029 5970.29 783.227 6011 804.5M4931.94 810.152C5297.5 1104.5 6011 1104.35 6011 804.5" stroke="#25802E"/>
</g>
<g filter="url(#filter4_d_242_542)">
<path d="M3681.83 1098.69C2174.71 805.408 1029.27 995.717 -10 1162.5V1637L6007.19 1665V1197.34C5966.48 1170.56 5916.96 1137.94 5857.44 1098.69C5287.14 722.583 4750.68 1053.38 3681.83 1098.69Z" fill="#519959"/>
<path d="M3681.83 1098.69C2174.71 805.408 1029.27 995.717 -10 1162.5V1637L6007.19 1665V1197.34C5966.48 1170.56 5916.96 1137.94 5857.44 1098.69C5287.14 722.583 4750.68 1053.38 3681.83 1098.69Z" stroke="#25802E"/>
</g>
<g filter="url(#filter5_d_242_542)">
<path d="M2720.57 183.859C2720.24 183.859 2719.91 183.861 2719.58 183.861C2719.6 183.33 2719.61 182.797 2719.61 182.257C2719.61 148.983 2681.98 122 2635.56 122C2601.22 122 2571.68 136.766 2558.64 157.927C2553.23 156.745 2547.49 156.105 2541.54 156.105C2509.22 156.105 2483.02 174.888 2483.02 198.057C2483.02 198.43 2483.02 198.809 2483.04 199.179C2457.22 203.542 2438 220.164 2438 240.009C2438 263.183 2464.2 281.964 2496.52 281.964C2504.75 281.964 2512.58 280.748 2519.69 278.547C2530.18 286.237 2544.74 291 2560.83 291C2577.7 291 2592.87 285.77 2603.45 277.426C2613.38 285.773 2627.64 291 2643.47 291C2660.66 291 2675.98 284.836 2685.94 275.221C2696.1 279.502 2707.93 281.965 2720.57 281.965C2758.37 281.965 2789 260 2789 232.915C2789 205.823 2758.36 183.859 2720.57 183.859Z" fill="white"/>
</g>
<g filter="url(#filter6_d_242_542)">
<path d="M4164.93 241.44C4164.64 241.44 4164.36 241.442 4164.07 241.442C4164.09 240.983 4164.1 240.523 4164.1 240.056C4164.1 211.311 4131.61 188 4091.54 188C4061.9 188 4036.4 200.756 4025.15 219.038C4020.47 218.016 4015.52 217.463 4010.38 217.463C3982.48 217.463 3959.86 233.691 3959.86 253.706C3959.86 254.028 3959.86 254.355 3959.88 254.675C3937.59 258.444 3921 272.804 3921 289.949C3921 309.969 3943.62 326.194 3971.52 326.194C3978.62 326.194 3985.38 325.144 3991.52 323.242C4000.57 329.885 4013.14 334 4027.03 334C4041.59 334 4054.7 329.481 4063.83 322.273C4072.4 329.484 4084.7 334 4098.37 334C4113.21 334 4126.43 328.675 4135.03 320.369C4143.8 324.067 4154.02 326.194 4164.93 326.194C4197.56 326.194 4224 307.219 4224 283.82C4224 260.415 4197.55 241.44 4164.93 241.44Z" fill="white"/>
</g>
<g filter="url(#filter7_d_242_542)">
<path d="M3460.37 115.722C3459.93 115.722 3459.48 115.725 3459.04 115.725C3459.07 115.015 3459.08 114.302 3459.08 113.58C3459.08 69.0836 3408.7 33 3346.54 33C3300.55 33 3261.01 52.7462 3243.55 81.0446C3236.3 79.4632 3228.61 78.6076 3220.65 78.6076C3177.36 78.6076 3142.28 103.727 3142.28 134.709C3142.28 135.208 3142.28 135.715 3142.31 136.21C3107.73 142.044 3082 164.272 3082 190.811C3082 221.801 3117.08 246.917 3160.36 246.917C3171.38 246.917 3181.87 245.291 3191.38 242.347C3205.43 252.63 3224.93 259 3246.48 259C3269.06 259 3289.38 252.006 3303.54 240.847C3316.84 252.01 3335.93 259 3357.13 259C3380.15 259 3400.66 250.757 3414 237.899C3427.6 243.624 3443.45 246.917 3460.37 246.917C3510.98 246.917 3552 217.544 3552 181.324C3552 145.095 3510.98 115.722 3460.37 115.722Z" fill="white"/>
</g>
<g filter="url(#filter8_d_242_542)">
<path d="M3583.32 187.029C3583 187.029 3582.68 187.031 3582.36 187.031C3582.38 186.516 3582.39 185.998 3582.39 185.474C3582.39 153.185 3545.72 127 3500.49 127C3467.03 127 3438.26 141.329 3425.55 161.864C3420.28 160.717 3414.68 160.096 3408.89 160.096C3377.39 160.096 3351.86 178.324 3351.86 200.807C3351.86 201.169 3351.87 201.536 3351.88 201.895C3326.72 206.129 3308 222.259 3308 241.518C3308 264.006 3333.53 282.232 3365.02 282.232C3373.04 282.232 3380.67 281.052 3387.59 278.916C3397.81 286.378 3412 291 3427.68 291C3444.11 291 3458.9 285.924 3469.21 277.827C3478.89 285.928 3492.77 291 3508.2 291C3524.95 291 3539.88 285.018 3549.58 275.688C3559.48 279.843 3571.01 282.232 3583.33 282.232C3620.15 282.232 3650 260.917 3650 234.633C3650 208.343 3620.15 187.029 3583.32 187.029Z" fill="white"/>
</g>
<g filter="url(#filter9_d_242_542)">
<path d="M4912.57 409.859C4912.24 409.859 4911.91 409.861 4911.58 409.861C4911.6 409.33 4911.61 408.797 4911.61 408.257C4911.61 374.983 4873.98 348 4827.56 348C4793.22 348 4763.68 362.766 4750.64 383.927C4745.23 382.745 4739.49 382.105 4733.54 382.105C4701.22 382.105 4675.02 400.888 4675.02 424.057C4675.02 424.43 4675.02 424.809 4675.04 425.179C4649.22 429.542 4630 446.164 4630 466.009C4630 489.183 4656.2 507.964 4688.52 507.964C4696.75 507.964 4704.58 506.748 4711.69 504.547C4722.18 512.237 4736.74 517 4752.83 517C4769.7 517 4784.87 511.77 4795.45 503.426C4805.38 511.773 4819.64 517 4835.47 517C4852.66 517 4867.98 510.836 4877.94 501.221C4888.1 505.502 4899.93 507.965 4912.57 507.965C4950.37 507.965 4981 486 4981 458.915C4981 431.823 4950.36 409.859 4912.57 409.859Z" fill="white"/>
</g>
<g filter="url(#filter10_d_242_542)">
<path d="M5652.37 341.722C5651.93 341.722 5651.48 341.725 5651.04 341.725C5651.07 341.015 5651.08 340.302 5651.08 339.58C5651.08 295.084 5600.7 259 5538.54 259C5492.55 259 5453.01 278.746 5435.55 307.045C5428.3 305.463 5420.61 304.608 5412.65 304.608C5369.36 304.608 5334.28 329.727 5334.28 360.709C5334.28 361.208 5334.28 361.715 5334.31 362.21C5299.73 368.044 5274 390.272 5274 416.811C5274 447.801 5309.08 472.917 5352.36 472.917C5363.38 472.917 5373.87 471.291 5383.38 468.347C5397.43 478.63 5416.93 485 5438.48 485C5461.06 485 5481.38 478.006 5495.54 466.847C5508.84 478.01 5527.93 485 5549.13 485C5572.15 485 5592.66 476.757 5606 463.899C5619.6 469.624 5635.45 472.917 5652.37 472.917C5702.98 472.917 5744 443.544 5744 407.324C5744 371.095 5702.98 341.722 5652.37 341.722Z" fill="white"/>
</g>
<g filter="url(#filter11_d_242_542)">
<path d="M5775.32 413.029C5775 413.029 5774.68 413.031 5774.36 413.031C5774.38 412.516 5774.39 411.998 5774.39 411.474C5774.39 379.185 5737.72 353 5692.49 353C5659.03 353 5630.26 367.329 5617.55 387.864C5612.28 386.717 5606.68 386.096 5600.89 386.096C5569.39 386.096 5543.86 404.324 5543.86 426.807C5543.86 427.169 5543.87 427.536 5543.88 427.895C5518.72 432.129 5500 448.259 5500 467.518C5500 490.006 5525.53 508.232 5557.02 508.232C5565.04 508.232 5572.67 507.052 5579.59 504.916C5589.81 512.378 5604 517 5619.68 517C5636.11 517 5650.9 511.924 5661.21 503.827C5670.89 511.928 5684.77 517 5700.2 517C5716.95 517 5731.88 511.018 5741.58 501.688C5751.48 505.843 5763.01 508.232 5775.33 508.232C5812.15 508.232 5842 486.917 5842 460.633C5842 434.343 5812.15 413.029 5775.32 413.029Z" fill="white"/>
</g>
<g filter="url(#filter12_d_242_542)">
<path d="M283.57 206.859C283.241 206.859 282.907 206.861 282.578 206.861C282.599 206.33 282.608 205.797 282.608 205.257C282.608 171.983 244.98 145 198.56 145C164.216 145 134.683 159.766 121.644 180.927C116.23 179.745 110.49 179.105 104.541 179.105C72.2179 179.105 46.0183 197.888 46.0183 221.057C46.0183 221.43 46.0213 221.809 46.0364 222.179C20.2172 226.542 1 243.164 1 263.009C1 286.183 27.1996 304.964 59.5234 304.964C67.7533 304.964 75.5841 303.748 82.6865 301.547C93.1756 309.237 107.739 314 123.832 314C140.696 314 155.875 308.77 166.451 300.426C176.382 308.773 190.636 314 206.467 314C223.658 314 238.977 307.836 248.938 298.221C259.099 302.502 270.933 304.965 283.573 304.965C321.368 304.965 352 283 352 255.915C352 228.823 321.362 206.859 283.57 206.859Z" fill="white"/>
</g>
<g filter="url(#filter13_d_242_542)">
<path d="M2147.93 294.44C2147.64 294.44 2147.36 294.442 2147.07 294.442C2147.09 293.983 2147.1 293.523 2147.1 293.056C2147.1 264.311 2114.61 241 2074.54 241C2044.9 241 2019.4 253.756 2008.15 272.038C2003.47 271.016 1998.52 270.463 1993.38 270.463C1965.48 270.463 1942.86 286.691 1942.86 306.706C1942.86 307.028 1942.86 307.355 1942.88 307.675C1920.59 311.444 1904 325.804 1904 342.949C1904 362.969 1926.62 379.194 1954.52 379.194C1961.62 379.194 1968.38 378.144 1974.52 376.242C1983.57 382.885 1996.14 387 2010.03 387C2024.59 387 2037.7 382.481 2046.83 375.273C2055.4 382.484 2067.7 387 2081.37 387C2096.21 387 2109.43 381.675 2118.03 373.369C2126.8 377.067 2137.02 379.194 2147.93 379.194C2180.56 379.194 2207 360.219 2207 336.82C2207 313.415 2180.55 294.44 2147.93 294.44Z" fill="white"/>
</g>
<g filter="url(#filter14_d_242_542)">
<rect x="2307.01" y="780.699" width="1399.42" height="312.109" fill="#B0CCF7"/>
<path d="M2212.28 714.522C2604.26 714.522 3453.52 714.522 3802.06 714.522C3811.44 714.522 3819.09 706.286 3819.09 696.187V633.128C3819.09 623.029 3811.44 614.793 3802.06 614.793H2212.28C2202.9 614.793 2195.25 623.029 2195.25 633.128V696.187C2195.25 706.286 2202.9 714.522 2212.28 714.522Z" fill="#262626"/>
<path d="M3762.25 1137.87V714.91C3464.18 714.91 2562.71 714.91 2244.67 714.91V1137.87H3762.25ZM3558.4 806.045H3660.12V911.258H3558.4V806.045ZM3558.4 941.607H3660.12V1046.82H3558.4V941.607ZM3340.03 806.045H3441.73V911.258H3340.03V806.045ZM3340.03 941.607H3441.73V1046.82H3340.03V941.607ZM3068.18 806.045H3169.91V911.258H3068.18V806.045ZM3068.18 941.607H3169.91V1046.82H3068.18V941.607ZM2849.82 806.045H2951.52V911.258H2849.82V806.045ZM2849.82 941.607H2951.52V1046.82H2849.82V941.607ZM2565.26 806.045H2666.99V911.258H2565.26V806.045ZM2565.26 941.607H2666.99V1046.82H2565.26V941.607ZM2346.9 806.045H2448.59V911.258H2346.9V806.045ZM2346.9 941.607H2448.59V1046.82H2346.9V941.607Z" fill="#B0ADAC"/>
<path d="M2192 1137.42V1185.24H3814.96V1137.42C3621.93 1137.43 2479.62 1137.52 2192 1137.42Z" fill="#262626"/>
<ellipse cx="3008.5" cy="501.736" rx="66.4931" ry="61.3078" fill="#B0CCF7"/>
<path d="M2757.91 614.542C3088.74 614.542 2670.91 614.542 3256.43 614.542C3261.24 614.542 3265.17 610.929 3265.17 606.499V588.324C3265.17 583.894 3261.24 580.281 3256.43 580.281C3121.12 577.125 3102.19 587.17 3102.19 572.239V498.393C3102.19 450.623 3061.29 412.263 3009.06 411.053C2958.6 409.284 2912.15 451.837 2912.15 502.587V572.239C2912.15 576.684 2908.24 580.281 2903.42 580.281H2757.91C2753.02 580.281 2749.18 583.816 2749.18 588.324V606.499C2749.18 611.007 2753.02 614.542 2757.91 614.542ZM3007.1 441.933C3041.91 441.933 3070.24 468.027 3070.24 500.107C3070.24 532.187 3041.91 558.282 3007.1 558.282C2972.3 558.282 2943.96 532.187 2943.96 500.107C2943.96 468.027 2972.3 441.933 3007.1 441.933Z" fill="#262626"/>
<path d="M3007.7 510.319H3021.27C3025.97 510.319 3029.78 506.741 3029.78 502.32C3029.78 497.899 3025.97 494.321 3021.27 494.321H3016.21V472.95C3016.21 468.528 3012.41 464.951 3007.7 464.951C3003 464.951 2999.19 468.528 2999.19 472.95V502.32C2999.19 506.741 3003 510.319 3007.7 510.319Z" fill="#262626"/>
<rect x="2346.67" y="806.856" width="100.865" height="104.449" stroke="#262626"/>
<rect x="2565.5" y="805.5" width="101" height="105" stroke="#262626"/>
<rect x="2849.5" y="805.5" width="101" height="105" stroke="#262626"/>
<rect x="3067.5" y="805.5" width="102" height="105" stroke="#262626"/>
<rect x="3340.5" y="805.5" width="101" height="105" stroke="#262626"/>
<rect x="3558.5" y="805.5" width="101" height="106" stroke="#262626"/>
<rect x="2346.5" y="942.5" width="101" height="105" stroke="#262626"/>
<rect x="2565.55" y="941.733" width="100.865" height="104.449" stroke="#262626"/>
<rect x="2849.5" y="941.5" width="102" height="105" stroke="#262626"/>
<rect x="3067.5" y="941.5" width="102" height="105" stroke="#262626"/>
<rect x="3340.55" y="941.733" width="100.865" height="104.449" stroke="#262626"/>
<rect x="3558.5" y="941.5" width="101" height="105" stroke="#262626"/>
<g filter="url(#filter15_d_242_542)">
<path d="M2413.06 646.805H2417.51V678.305H2413.06V646.805ZM2437.02 678.575C2434.59 678.575 2432.41 678.05 2430.49 677C2428.6 675.95 2427.12 674.51 2426.04 672.68C2424.96 670.82 2424.42 668.72 2424.42 666.38C2424.42 664.04 2424.96 661.955 2426.04 660.125C2427.12 658.265 2428.6 656.825 2430.49 655.805C2432.41 654.755 2434.59 654.23 2437.02 654.23C2439.18 654.23 2441.1 654.665 2442.78 655.535C2444.49 656.405 2445.81 657.665 2446.74 659.315L2443.45 661.43C2442.7 660.29 2441.77 659.435 2440.66 658.865C2439.55 658.295 2438.32 658.01 2436.97 658.01C2435.41 658.01 2434 658.355 2432.74 659.045C2431.51 659.735 2430.54 660.725 2429.82 662.015C2429.13 663.275 2428.78 664.73 2428.78 666.38C2428.78 668.06 2429.13 669.545 2429.82 670.835C2430.54 672.095 2431.51 673.07 2432.74 673.76C2434 674.45 2435.41 674.795 2436.97 674.795C2438.32 674.795 2439.55 674.51 2440.66 673.94C2441.77 673.37 2442.7 672.515 2443.45 671.375L2446.74 673.445C2445.81 675.095 2444.49 676.37 2442.78 677.27C2441.1 678.14 2439.18 678.575 2437.02 678.575ZM2482.16 654.23C2485.16 654.23 2487.53 655.1 2489.27 656.84C2491.04 658.58 2491.93 661.16 2491.93 664.58V678.305H2487.61V665.075C2487.61 662.765 2487.07 661.025 2485.99 659.855C2484.94 658.685 2483.42 658.1 2481.44 658.1C2479.25 658.1 2477.51 658.79 2476.22 660.17C2474.93 661.52 2474.29 663.47 2474.29 666.02V678.305H2469.97V665.075C2469.97 662.765 2469.43 661.025 2468.35 659.855C2467.3 658.685 2465.78 658.1 2463.8 658.1C2461.61 658.1 2459.87 658.79 2458.58 660.17C2457.29 661.52 2456.65 663.47 2456.65 666.02V678.305H2452.33V654.455H2456.47V658.01C2457.34 656.78 2458.48 655.85 2459.89 655.22C2461.3 654.56 2462.9 654.23 2464.7 654.23C2466.56 654.23 2468.21 654.605 2469.65 655.355C2471.09 656.105 2472.2 657.2 2472.98 658.64C2473.88 657.26 2475.13 656.18 2476.72 655.4C2478.34 654.62 2480.15 654.23 2482.16 654.23ZM2509.83 678.575C2507.46 678.575 2505.33 678.05 2503.44 677C2501.55 675.95 2500.06 674.51 2498.98 672.68C2497.93 670.82 2497.41 668.72 2497.41 666.38C2497.41 664.04 2497.93 661.955 2498.98 660.125C2500.06 658.265 2501.55 656.825 2503.44 655.805C2505.33 654.755 2507.46 654.23 2509.83 654.23C2512.2 654.23 2514.31 654.755 2516.17 655.805C2518.06 656.825 2519.53 658.265 2520.58 660.125C2521.66 661.955 2522.2 664.04 2522.2 666.38C2522.2 668.72 2521.66 670.82 2520.58 672.68C2519.53 674.51 2518.06 675.95 2516.17 677C2514.31 678.05 2512.2 678.575 2509.83 678.575ZM2509.83 674.795C2511.36 674.795 2512.72 674.45 2513.92 673.76C2515.15 673.04 2516.11 672.05 2516.8 670.79C2517.49 669.5 2517.84 668.03 2517.84 666.38C2517.84 664.73 2517.49 663.275 2516.8 662.015C2516.11 660.725 2515.15 659.735 2513.92 659.045C2512.72 658.355 2511.36 658.01 2509.83 658.01C2508.3 658.01 2506.92 658.355 2505.69 659.045C2504.49 659.735 2503.53 660.725 2502.81 662.015C2502.12 663.275 2501.77 664.73 2501.77 666.38C2501.77 668.03 2502.12 669.5 2502.81 670.79C2503.53 672.05 2504.49 673.04 2505.69 673.76C2506.92 674.45 2508.3 674.795 2509.83 674.795ZM2539.78 654.23C2542.18 654.23 2544.3 654.74 2546.13 655.76C2547.99 656.78 2549.41 658.22 2550.4 660.08C2551.42 661.91 2551.93 664.025 2551.93 666.425C2551.93 668.795 2551.44 670.91 2550.45 672.77C2549.46 674.6 2548.08 676.025 2546.31 677.045C2544.54 678.065 2542.51 678.575 2540.23 678.575C2538.43 678.575 2536.81 678.26 2535.37 677.63C2533.93 676.97 2532.73 676.025 2531.77 674.795V687.035H2527.41V666.47C2527.41 664.07 2527.92 661.94 2528.94 660.08C2529.99 658.22 2531.44 656.78 2533.3 655.76C2535.19 654.74 2537.35 654.23 2539.78 654.23ZM2539.65 674.795C2541.18 674.795 2542.56 674.45 2543.79 673.76C2545.02 673.04 2545.96 672.05 2546.62 670.79C2547.31 669.5 2547.66 668.045 2547.66 666.425C2547.66 664.805 2547.31 663.365 2546.62 662.105C2545.96 660.815 2545.02 659.81 2543.79 659.09C2542.59 658.37 2541.21 658.01 2539.65 658.01C2537.28 658.01 2535.36 658.79 2533.89 660.35C2532.42 661.88 2531.68 663.89 2531.68 666.38C2531.68 668.03 2532.01 669.5 2532.67 670.79C2533.36 672.05 2534.31 673.04 2535.51 673.76C2536.71 674.45 2538.09 674.795 2539.65 674.795ZM2579.97 654.455V678.305H2575.83V674.795C2574.96 675.995 2573.82 676.925 2572.41 677.585C2571 678.245 2569.46 678.575 2567.78 678.575C2564.6 678.575 2562.09 677.705 2560.26 675.965C2558.43 674.195 2557.52 671.6 2557.52 668.18V654.455H2561.84V667.685C2561.84 669.995 2562.39 671.75 2563.5 672.95C2564.61 674.12 2566.2 674.705 2568.27 674.705C2570.55 674.705 2572.35 674.015 2573.67 672.635C2574.99 671.255 2575.65 669.305 2575.65 666.785V654.455H2579.97ZM2607.42 654.455V678.305H2603.1V668.675C2600.52 669.875 2597.95 670.475 2595.4 670.475C2592.43 670.475 2590.14 669.785 2588.52 668.405C2586.9 667.025 2586.09 664.955 2586.09 662.195V654.455H2590.41V661.925C2590.41 663.575 2590.92 664.82 2591.94 665.66C2592.99 666.5 2594.44 666.92 2596.3 666.92C2598.4 666.92 2600.67 666.395 2603.1 665.345V654.455H2607.42ZM2615.81 654.455H2620.13V664.58H2633.72V654.455H2638.04V678.305H2633.72V668.315H2620.13V678.305H2615.81V654.455ZM2668.85 654.455V678.305H2664.71V674.525C2663.75 675.845 2662.53 676.85 2661.06 677.54C2659.59 678.23 2657.97 678.575 2656.2 678.575C2653.89 678.575 2651.82 678.065 2649.99 677.045C2648.16 676.025 2646.72 674.6 2645.67 672.77C2644.65 670.91 2644.14 668.78 2644.14 666.38C2644.14 663.98 2644.65 661.865 2645.67 660.035C2646.72 658.205 2648.16 656.78 2649.99 655.76C2651.82 654.74 2653.89 654.23 2656.2 654.23C2657.91 654.23 2659.49 654.56 2660.93 655.22C2662.37 655.85 2663.57 656.795 2664.53 658.055V654.455H2668.85ZM2656.56 674.795C2658.06 674.795 2659.43 674.45 2660.66 673.76C2661.89 673.04 2662.85 672.05 2663.54 670.79C2664.23 669.5 2664.57 668.03 2664.57 666.38C2664.57 664.73 2664.23 663.275 2663.54 662.015C2662.85 660.725 2661.89 659.735 2660.66 659.045C2659.43 658.355 2658.06 658.01 2656.56 658.01C2655.03 658.01 2653.65 658.355 2652.42 659.045C2651.22 659.735 2650.26 660.725 2649.54 662.015C2648.85 663.275 2648.51 664.73 2648.51 666.38C2648.51 668.03 2648.85 669.5 2649.54 670.79C2650.26 672.05 2651.22 673.04 2652.42 673.76C2653.65 674.45 2655.03 674.795 2656.56 674.795ZM2711.29 654.455V678.305H2706.97V658.235H2693.51V678.305H2689.19V654.455H2711.29ZM2729.86 678.575C2727.49 678.575 2725.36 678.05 2723.47 677C2721.58 675.95 2720.1 674.51 2719.02 672.68C2717.97 670.82 2717.44 668.72 2717.44 666.38C2717.44 664.04 2717.97 661.955 2719.02 660.125C2720.1 658.265 2721.58 656.825 2723.47 655.805C2725.36 654.755 2727.49 654.23 2729.86 654.23C2732.23 654.23 2734.35 654.755 2736.21 655.805C2738.1 656.825 2739.57 658.265 2740.62 660.125C2741.7 661.955 2742.24 664.04 2742.24 666.38C2742.24 668.72 2741.7 670.82 2740.62 672.68C2739.57 674.51 2738.1 675.95 2736.21 677C2734.35 678.05 2732.23 678.575 2729.86 678.575ZM2729.86 674.795C2731.39 674.795 2732.76 674.45 2733.96 673.76C2735.19 673.04 2736.15 672.05 2736.84 670.79C2737.53 669.5 2737.87 668.03 2737.87 666.38C2737.87 664.73 2737.53 663.275 2736.84 662.015C2736.15 660.725 2735.19 659.735 2733.96 659.045C2732.76 658.355 2731.39 658.01 2729.86 658.01C2728.33 658.01 2726.95 658.355 2725.72 659.045C2724.52 659.735 2723.56 660.725 2722.84 662.015C2722.15 663.275 2721.81 664.73 2721.81 666.38C2721.81 668.03 2722.15 669.5 2722.84 670.79C2723.56 672.05 2724.52 673.04 2725.72 673.76C2726.95 674.45 2728.33 674.795 2729.86 674.795ZM2771.16 654.455V675.065C2771.16 679.235 2770.12 682.31 2768.05 684.29C2765.98 686.3 2762.89 687.305 2758.78 687.305C2756.53 687.305 2754.39 686.99 2752.35 686.36C2750.31 685.76 2748.66 684.89 2747.4 683.75L2749.47 680.42C2750.58 681.38 2751.94 682.13 2753.56 682.67C2755.21 683.24 2756.91 683.525 2758.65 683.525C2761.44 683.525 2763.49 682.865 2764.81 681.545C2766.16 680.225 2766.84 678.215 2766.84 675.515V673.625C2765.82 674.855 2764.56 675.785 2763.06 676.415C2761.59 677.015 2759.98 677.315 2758.24 677.315C2755.96 677.315 2753.89 676.835 2752.03 675.875C2750.2 674.885 2748.76 673.52 2747.71 671.78C2746.66 670.01 2746.14 668 2746.14 665.75C2746.14 663.5 2746.66 661.505 2747.71 659.765C2748.76 657.995 2750.2 656.63 2752.03 655.67C2753.89 654.71 2755.96 654.23 2758.24 654.23C2760.04 654.23 2761.71 654.56 2763.24 655.22C2764.8 655.88 2766.07 656.855 2767.06 658.145V654.455H2771.16ZM2758.74 673.535C2760.3 673.535 2761.69 673.205 2762.92 672.545C2764.18 671.885 2765.16 670.97 2765.85 669.8C2766.57 668.6 2766.93 667.25 2766.93 665.75C2766.93 663.44 2766.16 661.58 2764.63 660.17C2763.1 658.73 2761.14 658.01 2758.74 658.01C2756.31 658.01 2754.33 658.73 2752.8 660.17C2751.27 661.58 2750.5 663.44 2750.5 665.75C2750.5 667.25 2750.85 668.6 2751.54 669.8C2752.26 670.97 2753.23 671.885 2754.46 672.545C2755.72 673.205 2757.15 673.535 2758.74 673.535ZM2789.8 678.575C2787.43 678.575 2785.3 678.05 2783.41 677C2781.52 675.95 2780.04 674.51 2778.96 672.68C2777.91 670.82 2777.38 668.72 2777.38 666.38C2777.38 664.04 2777.91 661.955 2778.96 660.125C2780.04 658.265 2781.52 656.825 2783.41 655.805C2785.3 654.755 2787.43 654.23 2789.8 654.23C2792.17 654.23 2794.29 654.755 2796.15 655.805C2798.04 656.825 2799.51 658.265 2800.56 660.125C2801.64 661.955 2802.18 664.04 2802.18 666.38C2802.18 668.72 2801.64 670.82 2800.56 672.68C2799.51 674.51 2798.04 675.95 2796.15 677C2794.29 678.05 2792.17 678.575 2789.8 678.575ZM2789.8 674.795C2791.33 674.795 2792.7 674.45 2793.9 673.76C2795.13 673.04 2796.09 672.05 2796.78 670.79C2797.47 669.5 2797.81 668.03 2797.81 666.38C2797.81 664.73 2797.47 663.275 2796.78 662.015C2796.09 660.725 2795.13 659.735 2793.9 659.045C2792.7 658.355 2791.33 658.01 2789.8 658.01C2788.27 658.01 2786.89 658.355 2785.66 659.045C2784.46 659.735 2783.5 660.725 2782.78 662.015C2782.09 663.275 2781.75 664.73 2781.75 666.38C2781.75 668.03 2782.09 669.5 2782.78 670.79C2783.5 672.05 2784.46 673.04 2785.66 673.76C2786.89 674.45 2788.27 674.795 2789.8 674.795ZM2819.76 654.23C2822.16 654.23 2824.27 654.74 2826.1 655.76C2827.96 656.78 2829.39 658.22 2830.38 660.08C2831.4 661.91 2831.91 664.025 2831.91 666.425C2831.91 668.795 2831.41 670.91 2830.42 672.77C2829.43 674.6 2828.05 676.025 2826.28 677.045C2824.51 678.065 2822.49 678.575 2820.21 678.575C2818.41 678.575 2816.79 678.26 2815.35 677.63C2813.91 676.97 2812.71 676.025 2811.75 674.795V687.035H2807.38V666.47C2807.38 664.07 2807.89 661.94 2808.91 660.08C2809.96 658.22 2811.42 656.78 2813.28 655.76C2815.17 654.74 2817.33 654.23 2819.76 654.23ZM2819.62 674.795C2821.15 674.795 2822.53 674.45 2823.76 673.76C2824.99 673.04 2825.94 672.05 2826.6 670.79C2827.29 669.5 2827.63 668.045 2827.63 666.425C2827.63 664.805 2827.29 663.365 2826.6 662.105C2825.94 660.815 2824.99 659.81 2823.76 659.09C2822.56 658.37 2821.18 658.01 2819.62 658.01C2817.25 658.01 2815.33 658.79 2813.86 660.35C2812.39 661.88 2811.66 663.89 2811.66 666.38C2811.66 668.03 2811.99 669.5 2812.65 670.79C2813.34 672.05 2814.28 673.04 2815.48 673.76C2816.68 674.45 2818.06 674.795 2819.62 674.795ZM2848.43 678.575C2846.06 678.575 2843.93 678.05 2842.04 677C2840.15 675.95 2838.66 674.51 2837.58 672.68C2836.53 670.82 2836.01 668.72 2836.01 666.38C2836.01 664.04 2836.53 661.955 2837.58 660.125C2838.66 658.265 2840.15 656.825 2842.04 655.805C2843.93 654.755 2846.06 654.23 2848.43 654.23C2850.8 654.23 2852.91 654.755 2854.77 655.805C2856.66 656.825 2858.13 658.265 2859.18 660.125C2860.26 661.955 2860.8 664.04 2860.8 666.38C2860.8 668.72 2860.26 670.82 2859.18 672.68C2858.13 674.51 2856.66 675.95 2854.77 677C2852.91 678.05 2850.8 678.575 2848.43 678.575ZM2848.43 674.795C2849.96 674.795 2851.32 674.45 2852.52 673.76C2853.75 673.04 2854.71 672.05 2855.4 670.79C2856.09 669.5 2856.44 668.03 2856.44 666.38C2856.44 664.73 2856.09 663.275 2855.4 662.015C2854.71 660.725 2853.75 659.735 2852.52 659.045C2851.32 658.355 2849.96 658.01 2848.43 658.01C2846.9 658.01 2845.52 658.355 2844.29 659.045C2843.09 659.735 2842.13 660.725 2841.41 662.015C2840.72 663.275 2840.37 664.73 2840.37 666.38C2840.37 668.03 2840.72 669.5 2841.41 670.79C2842.13 672.05 2843.09 673.04 2844.29 673.76C2845.52 674.45 2846.9 674.795 2848.43 674.795ZM2887.94 668.225H2883.3V678.305H2878.98V668.225H2874.35L2867.78 678.305H2862.65L2870.84 665.975L2863.28 654.455H2867.87L2874.3 664.535H2878.98V654.455H2883.3V664.535H2887.98L2894.42 654.455H2899.05L2891.49 666.02L2899.68 678.305H2894.55L2887.94 668.225ZM2936.86 661.97C2938.99 662.48 2940.6 663.395 2941.68 664.715C2942.79 666.005 2943.34 667.67 2943.34 669.71C2943.34 672.44 2942.34 674.555 2940.33 676.055C2938.35 677.555 2935.45 678.305 2931.64 678.305H2917.24V646.805H2930.79C2934.24 646.805 2936.92 647.51 2938.84 648.92C2940.79 650.3 2941.77 652.295 2941.77 654.905C2941.77 656.615 2941.33 658.07 2940.46 659.27C2939.62 660.47 2938.42 661.37 2936.86 661.97ZM2921.7 660.665H2930.47C2932.66 660.665 2934.33 660.23 2935.47 659.36C2936.64 658.49 2937.22 657.215 2937.22 655.535C2937.22 653.855 2936.64 652.58 2935.47 651.71C2934.3 650.81 2932.63 650.36 2930.47 650.36H2921.7V660.665ZM2931.55 674.75C2936.38 674.75 2938.8 672.95 2938.8 669.35C2938.8 667.55 2938.18 666.23 2936.95 665.39C2935.75 664.52 2933.95 664.085 2931.55 664.085H2921.7V674.75H2931.55ZM2971.88 654.455V678.305H2967.74V674.795C2966.87 675.995 2965.73 676.925 2964.32 677.585C2962.91 678.245 2961.36 678.575 2959.68 678.575C2956.5 678.575 2954 677.705 2952.17 675.965C2950.34 674.195 2949.42 671.6 2949.42 668.18V654.455H2953.74V667.685C2953.74 669.995 2954.3 671.75 2955.41 672.95C2956.52 674.12 2958.11 674.705 2960.18 674.705C2962.46 674.705 2964.26 674.015 2965.58 672.635C2966.9 671.255 2967.56 669.305 2967.56 666.785V654.455H2971.88ZM2997.84 658.235H2984.61V678.305H2980.29V654.455H2997.84V658.235ZM3011.42 678.575C3009.05 678.575 3006.92 678.05 3005.03 677C3003.14 675.95 3001.66 674.51 3000.58 672.68C2999.53 670.82 2999 668.72 2999 666.38C2999 664.04 2999.53 661.955 3000.58 660.125C3001.66 658.265 3003.14 656.825 3005.03 655.805C3006.92 654.755 3009.05 654.23 3011.42 654.23C3013.79 654.23 3015.91 654.755 3017.77 655.805C3019.66 656.825 3021.13 658.265 3022.18 660.125C3023.26 661.955 3023.8 664.04 3023.8 666.38C3023.8 668.72 3023.26 670.82 3022.18 672.68C3021.13 674.51 3019.66 675.95 3017.77 677C3015.91 678.05 3013.79 678.575 3011.42 678.575ZM3011.42 674.795C3012.95 674.795 3014.32 674.45 3015.52 673.76C3016.75 673.04 3017.71 672.05 3018.4 670.79C3019.09 669.5 3019.43 668.03 3019.43 666.38C3019.43 664.73 3019.09 663.275 3018.4 662.015C3017.71 660.725 3016.75 659.735 3015.52 659.045C3014.32 658.355 3012.95 658.01 3011.42 658.01C3009.89 658.01 3008.51 658.355 3007.28 659.045C3006.08 659.735 3005.12 660.725 3004.4 662.015C3003.71 663.275 3003.37 664.73 3003.37 666.38C3003.37 668.03 3003.71 669.5 3004.4 670.79C3005.12 672.05 3006.08 673.04 3007.28 673.76C3008.51 674.45 3009.89 674.795 3011.42 674.795ZM3052.71 654.455V675.065C3052.71 679.235 3051.68 682.31 3049.61 684.29C3047.54 686.3 3044.45 687.305 3040.34 687.305C3038.09 687.305 3035.94 686.99 3033.9 686.36C3031.86 685.76 3030.21 684.89 3028.95 683.75L3031.02 680.42C3032.13 681.38 3033.5 682.13 3035.12 682.67C3036.77 683.24 3038.46 683.525 3040.2 683.525C3042.99 683.525 3045.05 682.865 3046.37 681.545C3047.72 680.225 3048.39 678.215 3048.39 675.515V673.625C3047.37 674.855 3046.11 675.785 3044.61 676.415C3043.14 677.015 3041.54 677.315 3039.8 677.315C3037.52 677.315 3035.45 676.835 3033.59 675.875C3031.76 674.885 3030.32 673.52 3029.27 671.78C3028.22 670.01 3027.69 668 3027.69 665.75C3027.69 663.5 3028.22 661.505 3029.27 659.765C3030.32 657.995 3031.76 656.63 3033.59 655.67C3035.45 654.71 3037.52 654.23 3039.8 654.23C3041.6 654.23 3043.26 654.56 3044.79 655.22C3046.35 655.88 3047.63 656.855 3048.62 658.145V654.455H3052.71ZM3040.29 673.535C3041.85 673.535 3043.25 673.205 3044.48 672.545C3045.74 671.885 3046.71 670.97 3047.4 669.8C3048.12 668.6 3048.48 667.25 3048.48 665.75C3048.48 663.44 3047.72 661.58 3046.19 660.17C3044.66 658.73 3042.69 658.01 3040.29 658.01C3037.86 658.01 3035.88 658.73 3034.35 660.17C3032.82 661.58 3032.06 663.44 3032.06 665.75C3032.06 667.25 3032.4 668.6 3033.09 669.8C3033.81 670.97 3034.79 671.885 3036.02 672.545C3037.28 673.205 3038.7 673.535 3040.29 673.535ZM3071.54 678.575C3069.11 678.575 3066.94 678.05 3065.02 677C3063.13 675.95 3061.64 674.51 3060.56 672.68C3059.48 670.82 3058.94 668.72 3058.94 666.38C3058.94 664.04 3059.48 661.955 3060.56 660.125C3061.64 658.265 3063.13 656.825 3065.02 655.805C3066.94 654.755 3069.11 654.23 3071.54 654.23C3073.7 654.23 3075.62 654.665 3077.3 655.535C3079.01 656.405 3080.33 657.665 3081.26 659.315L3077.98 661.43C3077.23 660.29 3076.3 659.435 3075.19 658.865C3074.08 658.295 3072.85 658.01 3071.5 658.01C3069.94 658.01 3068.53 658.355 3067.27 659.045C3066.04 659.735 3065.06 660.725 3064.34 662.015C3063.65 663.275 3063.31 664.73 3063.31 666.38C3063.31 668.06 3063.65 669.545 3064.34 670.835C3065.06 672.095 3066.04 673.07 3067.27 673.76C3068.53 674.45 3069.94 674.795 3071.5 674.795C3072.85 674.795 3074.08 674.51 3075.19 673.94C3076.3 673.37 3077.23 672.515 3077.98 671.375L3081.26 673.445C3080.33 675.095 3079.01 676.37 3077.3 677.27C3075.62 678.14 3073.7 678.575 3071.54 678.575ZM3096.8 678.845C3093.41 678.845 3090.8 678.02 3088.97 676.37C3087.17 674.72 3086.27 672.38 3086.27 669.35V654.455H3090.59V663.68C3091.37 662.9 3092.42 662.3 3093.74 661.88C3095.09 661.43 3096.54 661.205 3098.1 661.205C3101.07 661.205 3103.38 661.955 3105.03 663.455C3106.68 664.955 3107.51 667.025 3107.51 669.665C3107.51 672.515 3106.56 674.765 3104.67 676.415C3102.78 678.035 3100.16 678.845 3096.8 678.845ZM3096.84 675.56C3098.79 675.56 3100.32 675.035 3101.43 673.985C3102.54 672.935 3103.1 671.525 3103.1 669.755C3103.1 668.075 3102.56 666.755 3101.48 665.795C3100.4 664.835 3098.88 664.355 3096.93 664.355C3095.49 664.355 3094.22 664.64 3093.11 665.21C3092 665.78 3091.16 666.575 3090.59 667.595V669.71C3090.59 671.54 3091.14 672.98 3092.25 674.03C3093.36 675.05 3094.89 675.56 3096.84 675.56ZM3122.45 668.225H3117.5V678.305H3113.18V654.455H3117.5V664.535H3122.54L3130.28 654.455H3134.91L3125.87 665.93L3135.54 678.305H3130.46L3122.45 668.225ZM3149.5 678.575C3147.13 678.575 3145 678.05 3143.11 677C3141.22 675.95 3139.73 674.51 3138.65 672.68C3137.6 670.82 3137.08 668.72 3137.08 666.38C3137.08 664.04 3137.6 661.955 3138.65 660.125C3139.73 658.265 3141.22 656.825 3143.11 655.805C3145 654.755 3147.13 654.23 3149.5 654.23C3151.87 654.23 3153.98 654.755 3155.84 655.805C3157.73 656.825 3159.2 658.265 3160.25 660.125C3161.33 661.955 3161.87 664.04 3161.87 666.38C3161.87 668.72 3161.33 670.82 3160.25 672.68C3159.2 674.51 3157.73 675.95 3155.84 677C3153.98 678.05 3151.87 678.575 3149.5 678.575ZM3149.5 674.795C3151.03 674.795 3152.39 674.45 3153.59 673.76C3154.82 673.04 3155.78 672.05 3156.47 670.79C3157.16 669.5 3157.51 668.03 3157.51 666.38C3157.51 664.73 3157.16 663.275 3156.47 662.015C3155.78 660.725 3154.82 659.735 3153.59 659.045C3152.39 658.355 3151.03 658.01 3149.5 658.01C3147.97 658.01 3146.59 658.355 3145.36 659.045C3144.16 659.735 3143.2 660.725 3142.48 662.015C3141.79 663.275 3141.44 664.73 3141.44 666.38C3141.44 668.03 3141.79 669.5 3142.48 670.79C3143.2 672.05 3144.16 673.04 3145.36 673.76C3146.59 674.45 3147.97 674.795 3149.5 674.795ZM3189.21 654.23C3191.52 654.23 3193.59 654.755 3195.42 655.805C3197.25 656.825 3198.69 658.265 3199.74 660.125C3200.79 661.955 3201.32 664.04 3201.32 666.38C3201.32 668.72 3200.79 670.82 3199.74 672.68C3198.69 674.51 3197.25 675.95 3195.42 677C3193.59 678.05 3191.52 678.575 3189.21 678.575C3187.11 678.575 3185.21 678.14 3183.5 677.27C3181.79 676.4 3180.38 675.185 3179.27 673.625C3178.19 672.035 3177.51 670.235 3177.24 668.225H3172.43V678.305H3168.11V654.455H3172.43V664.22H3177.29C3177.59 662.24 3178.28 660.5 3179.36 659C3180.47 657.47 3181.86 656.3 3183.54 655.49C3185.25 654.65 3187.14 654.23 3189.21 654.23ZM3189.21 674.795C3190.68 674.795 3192 674.45 3193.17 673.76C3194.37 673.07 3195.32 672.095 3196.01 670.835C3196.7 669.545 3197.04 668.06 3197.04 666.38C3197.04 664.73 3196.7 663.275 3196.01 662.015C3195.32 660.725 3194.37 659.735 3193.17 659.045C3192 658.355 3190.68 658.01 3189.21 658.01C3187.74 658.01 3186.41 658.355 3185.21 659.045C3184.01 659.735 3183.06 660.725 3182.37 662.015C3181.71 663.275 3181.38 664.73 3181.38 666.38C3181.38 668.06 3181.71 669.545 3182.37 670.835C3183.06 672.095 3184.01 673.07 3185.21 673.76C3186.41 674.45 3187.74 674.795 3189.21 674.795ZM3235.86 665.93C3238.95 666.71 3240.49 668.645 3240.49 671.735C3240.49 673.835 3239.7 675.455 3238.11 676.595C3236.55 677.735 3234.21 678.305 3231.09 678.305H3219.61V654.455H3230.68C3233.5 654.455 3235.71 654.995 3237.3 656.075C3238.89 657.125 3239.68 658.625 3239.68 660.575C3239.68 661.835 3239.34 662.93 3238.65 663.86C3237.99 664.76 3237.06 665.45 3235.86 665.93ZM3223.84 664.715H3230.32C3231.97 664.715 3233.22 664.415 3234.06 663.815C3234.93 663.215 3235.36 662.345 3235.36 661.205C3235.36 658.925 3233.68 657.785 3230.32 657.785H3223.84V664.715ZM3230.77 674.975C3232.57 674.975 3233.92 674.69 3234.82 674.12C3235.72 673.55 3236.17 672.665 3236.17 671.465C3236.17 670.235 3235.75 669.32 3234.91 668.72C3234.1 668.12 3232.81 667.82 3231.04 667.82H3223.84V674.975H3230.77ZM3269.4 654.455V675.065C3269.4 679.235 3268.42 682.31 3266.47 684.29C3264.52 686.3 3261.6 687.305 3257.7 687.305C3255.57 687.305 3253.53 686.99 3251.58 686.36C3249.66 685.76 3248.08 684.89 3246.85 683.75L3248.97 680.42C3250.02 681.38 3251.28 682.13 3252.75 682.67C3254.25 683.21 3255.82 683.48 3257.47 683.48C3260.08 683.48 3262 682.82 3263.23 681.5C3264.46 680.21 3265.08 678.215 3265.08 675.515V673.76C3264.21 674.9 3263.08 675.785 3261.7 676.415C3260.32 677.015 3258.82 677.315 3257.2 677.315C3254.02 677.315 3251.52 676.445 3249.69 674.705C3247.86 672.965 3246.94 670.385 3246.94 666.965V654.455H3251.26V666.47C3251.26 668.75 3251.82 670.49 3252.93 671.69C3254.04 672.86 3255.63 673.445 3257.7 673.445C3259.98 673.445 3261.78 672.755 3263.1 671.375C3264.42 669.995 3265.08 668.045 3265.08 665.525V654.455H3269.4ZM3290.23 665.885C3291.82 666.305 3293.05 666.98 3293.92 667.91C3294.79 668.84 3295.22 669.995 3295.22 671.375C3295.22 672.785 3294.74 674.045 3293.78 675.155C3292.82 676.235 3291.49 677.09 3289.78 677.72C3288.1 678.32 3286.21 678.62 3284.11 678.62C3282.34 678.62 3280.6 678.395 3278.89 677.945C3277.21 677.465 3275.71 676.79 3274.39 675.92L3275.69 672.635C3276.83 673.355 3278.14 673.925 3279.61 674.345C3281.08 674.735 3282.56 674.93 3284.06 674.93C3286.1 674.93 3287.72 674.585 3288.92 673.895C3290.15 673.175 3290.77 672.215 3290.77 671.015C3290.77 669.905 3290.27 669.05 3289.28 668.45C3288.32 667.85 3286.96 667.55 3285.19 667.55H3280.82V664.445H3284.87C3286.49 664.445 3287.77 664.16 3288.7 663.59C3289.63 663.02 3290.09 662.24 3290.09 661.25C3290.09 660.17 3289.54 659.33 3288.43 658.73C3287.35 658.13 3285.88 657.83 3284.02 657.83C3281.65 657.83 3279.14 658.445 3276.5 659.675L3275.33 656.345C3278.24 654.875 3281.29 654.14 3284.47 654.14C3286.39 654.14 3288.11 654.41 3289.64 654.95C3291.17 655.49 3292.37 656.255 3293.24 657.245C3294.11 658.235 3294.55 659.36 3294.55 660.62C3294.55 661.79 3294.16 662.84 3293.38 663.77C3292.6 664.7 3291.55 665.405 3290.23 665.885ZM3311.74 678.845C3308.35 678.845 3305.74 678.02 3303.91 676.37C3302.11 674.72 3301.21 672.38 3301.21 669.35V654.455H3305.53V663.68C3306.31 662.9 3307.36 662.3 3308.68 661.88C3310.03 661.43 3311.48 661.205 3313.04 661.205C3316.01 661.205 3318.32 661.955 3319.97 663.455C3321.62 664.955 3322.45 667.025 3322.45 669.665C3322.45 672.515 3321.5 674.765 3319.61 676.415C3317.72 678.035 3315.1 678.845 3311.74 678.845ZM3311.78 675.56C3313.73 675.56 3315.26 675.035 3316.37 673.985C3317.48 672.935 3318.04 671.525 3318.04 669.755C3318.04 668.075 3317.5 666.755 3316.42 665.795C3315.34 664.835 3313.82 664.355 3311.87 664.355C3310.43 664.355 3309.16 664.64 3308.05 665.21C3306.94 665.78 3306.1 666.575 3305.53 667.595V669.71C3305.53 671.54 3306.08 672.98 3307.19 674.03C3308.3 675.05 3309.83 675.56 3311.78 675.56ZM3337.38 668.225H3332.43V678.305H3328.11V654.455H3332.43V664.535H3337.47L3345.21 654.455H3349.85L3340.8 665.93L3350.48 678.305H3345.39L3337.38 668.225ZM3364.43 678.575C3362.06 678.575 3359.93 678.05 3358.04 677C3356.15 675.95 3354.67 674.51 3353.59 672.68C3352.54 670.82 3352.01 668.72 3352.01 666.38C3352.01 664.04 3352.54 661.955 3353.59 660.125C3354.67 658.265 3356.15 656.825 3358.04 655.805C3359.93 654.755 3362.06 654.23 3364.43 654.23C3366.8 654.23 3368.92 654.755 3370.78 655.805C3372.67 656.825 3374.14 658.265 3375.19 660.125C3376.27 661.955 3376.81 664.04 3376.81 666.38C3376.81 668.72 3376.27 670.82 3375.19 672.68C3374.14 674.51 3372.67 675.95 3370.78 677C3368.92 678.05 3366.8 678.575 3364.43 678.575ZM3364.43 674.795C3365.96 674.795 3367.33 674.45 3368.53 673.76C3369.76 673.04 3370.72 672.05 3371.41 670.79C3372.1 669.5 3372.44 668.03 3372.44 666.38C3372.44 664.73 3372.1 663.275 3371.41 662.015C3370.72 660.725 3369.76 659.735 3368.53 659.045C3367.33 658.355 3365.96 658.01 3364.43 658.01C3362.9 658.01 3361.52 658.355 3360.29 659.045C3359.09 659.735 3358.13 660.725 3357.41 662.015C3356.72 663.275 3356.38 664.73 3356.38 666.38C3356.38 668.03 3356.72 669.5 3357.41 670.79C3358.13 672.05 3359.09 673.04 3360.29 673.76C3361.52 674.45 3362.9 674.795 3364.43 674.795ZM3392.32 668.225H3387.37V678.305H3383.05V654.455H3387.37V664.535H3392.41L3400.15 654.455H3404.78L3395.74 665.93L3405.41 678.305H3400.33L3392.32 668.225ZM3419.36 678.575C3416.99 678.575 3414.86 678.05 3412.97 677C3411.08 675.95 3409.6 674.51 3408.52 672.68C3407.47 670.82 3406.94 668.72 3406.94 666.38C3406.94 664.04 3407.47 661.955 3408.52 660.125C3409.6 658.265 3411.08 656.825 3412.97 655.805C3414.86 654.755 3416.99 654.23 3419.36 654.23C3421.73 654.23 3423.85 654.755 3425.71 655.805C3427.6 656.825 3429.07 658.265 3430.12 660.125C3431.2 661.955 3431.74 664.04 3431.74 666.38C3431.74 668.72 3431.2 670.82 3430.12 672.68C3429.07 674.51 3427.6 675.95 3425.71 677C3423.85 678.05 3421.73 678.575 3419.36 678.575ZM3419.36 674.795C3420.89 674.795 3422.26 674.45 3423.46 673.76C3424.69 673.04 3425.65 672.05 3426.34 670.79C3427.03 669.5 3427.37 668.03 3427.37 666.38C3427.37 664.73 3427.03 663.275 3426.34 662.015C3425.65 660.725 3424.69 659.735 3423.46 659.045C3422.26 658.355 3420.89 658.01 3419.36 658.01C3417.83 658.01 3416.45 658.355 3415.22 659.045C3414.02 659.735 3413.06 660.725 3412.34 662.015C3411.65 663.275 3411.31 664.73 3411.31 666.38C3411.31 668.03 3411.65 669.5 3412.34 670.79C3413.06 672.05 3414.02 673.04 3415.22 673.76C3416.45 674.45 3417.83 674.795 3419.36 674.795ZM3458.28 654.455V678.305H3453.96V658.235H3443.7L3443.43 663.545C3443.28 666.755 3442.99 669.44 3442.57 671.6C3442.15 673.73 3441.46 675.44 3440.5 676.73C3439.54 678.02 3438.21 678.665 3436.5 678.665C3435.72 678.665 3434.83 678.53 3433.84 678.26L3434.11 674.615C3434.5 674.705 3434.86 674.75 3435.19 674.75C3436.39 674.75 3437.29 674.225 3437.89 673.175C3438.49 672.125 3438.88 670.88 3439.06 669.44C3439.24 668 3439.41 665.945 3439.56 663.275L3439.96 654.455H3458.28ZM3466.63 654.455H3470.95V678.305H3466.63V654.455ZM3468.79 649.865C3467.95 649.865 3467.25 649.595 3466.68 649.055C3466.14 648.515 3465.87 647.855 3465.87 647.075C3465.87 646.295 3466.14 645.635 3466.68 645.095C3467.25 644.525 3467.95 644.24 3468.79 644.24C3469.63 644.24 3470.32 644.51 3470.86 645.05C3471.43 645.56 3471.72 646.205 3471.72 646.985C3471.72 647.795 3471.43 648.485 3470.86 649.055C3470.32 649.595 3469.63 649.865 3468.79 649.865ZM3501.11 654.455V678.305H3496.97V674.795C3496.1 675.995 3494.96 676.925 3493.55 677.585C3492.14 678.245 3490.59 678.575 3488.91 678.575C3485.73 678.575 3483.23 677.705 3481.4 675.965C3479.57 674.195 3478.65 671.6 3478.65 668.18V654.455H3482.97V667.685C3482.97 669.995 3483.53 671.75 3484.64 672.95C3485.75 674.12 3487.34 674.705 3489.41 674.705C3491.69 674.705 3493.49 674.015 3494.81 672.635C3496.13 671.255 3496.79 669.305 3496.79 666.785V654.455H3501.11ZM3489.86 651.35C3487.64 651.35 3485.91 650.825 3484.68 649.775C3483.45 648.695 3482.82 647.15 3482.79 645.14H3485.72C3485.75 646.25 3486.12 647.15 3486.84 647.84C3487.59 648.5 3488.58 648.83 3489.81 648.83C3491.04 648.83 3492.03 648.5 3492.78 647.84C3493.53 647.15 3493.92 646.25 3493.95 645.14H3496.97C3496.94 647.15 3496.29 648.695 3495.03 649.775C3493.77 650.825 3492.05 651.35 3489.86 651.35ZM3518.79 668.225H3513.84V678.305H3509.52V654.455H3513.84V664.535H3518.88L3526.62 654.455H3531.26L3522.21 665.93L3531.89 678.305H3526.8L3518.79 668.225ZM3545.84 678.575C3543.47 678.575 3541.34 678.05 3539.45 677C3537.56 675.95 3536.07 674.51 3534.99 672.68C3533.94 670.82 3533.42 668.72 3533.42 666.38C3533.42 664.04 3533.94 661.955 3534.99 660.125C3536.07 658.265 3537.56 656.825 3539.45 655.805C3541.34 654.755 3543.47 654.23 3545.84 654.23C3548.21 654.23 3550.32 654.755 3552.18 655.805C3554.07 656.825 3555.54 658.265 3556.59 660.125C3557.67 661.955 3558.21 664.04 3558.21 666.38C3558.21 668.72 3557.67 670.82 3556.59 672.68C3555.54 674.51 3554.07 675.95 3552.18 677C3550.32 678.05 3548.21 678.575 3545.84 678.575ZM3545.84 674.795C3547.37 674.795 3548.73 674.45 3549.93 673.76C3551.16 673.04 3552.12 672.05 3552.81 670.79C3553.5 669.5 3553.85 668.03 3553.85 666.38C3553.85 664.73 3553.5 663.275 3552.81 662.015C3552.12 660.725 3551.16 659.735 3549.93 659.045C3548.73 658.355 3547.37 658.01 3545.84 658.01C3544.31 658.01 3542.93 658.355 3541.7 659.045C3540.5 659.735 3539.54 660.725 3538.82 662.015C3538.13 663.275 3537.78 664.73 3537.78 666.38C3537.78 668.03 3538.13 669.5 3538.82 670.79C3539.54 672.05 3540.5 673.04 3541.7 673.76C3542.93 674.45 3544.31 674.795 3545.84 674.795ZM3585.56 654.23C3587.87 654.23 3589.94 654.755 3591.77 655.805C3593.6 656.825 3595.04 658.265 3596.09 660.125C3597.14 661.955 3597.66 664.04 3597.66 666.38C3597.66 668.72 3597.14 670.82 3596.09 672.68C3595.04 674.51 3593.6 675.95 3591.77 677C3589.94 678.05 3587.87 678.575 3585.56 678.575C3583.46 678.575 3581.55 678.14 3579.84 677.27C3578.13 676.4 3576.72 675.185 3575.61 673.625C3574.53 672.035 3573.86 670.235 3573.59 668.225H3568.77V678.305H3564.45V654.455H3568.77V664.22H3573.63C3573.93 662.24 3574.62 660.5 3575.7 659C3576.81 657.47 3578.21 656.3 3579.89 655.49C3581.6 654.65 3583.49 654.23 3585.56 654.23ZM3585.56 674.795C3587.03 674.795 3588.35 674.45 3589.52 673.76C3590.72 673.07 3591.66 672.095 3592.35 670.835C3593.04 669.545 3593.39 668.06 3593.39 666.38C3593.39 664.73 3593.04 663.275 3592.35 662.015C3591.66 660.725 3590.72 659.735 3589.52 659.045C3588.35 658.355 3587.03 658.01 3585.56 658.01C3584.09 658.01 3582.75 658.355 3581.55 659.045C3580.35 659.735 3579.41 660.725 3578.72 662.015C3578.06 663.275 3577.73 664.73 3577.73 666.38C3577.73 668.06 3578.06 669.545 3578.72 670.835C3579.41 672.095 3580.35 673.07 3581.55 673.76C3582.75 674.45 3584.09 674.795 3585.56 674.795Z" fill="#B0ADAC"/>
</g>
<line x1="2397.5" y1="807" x2="2397.5" y2="911" stroke="black"/>
<line x1="2616.5" y1="806" x2="2616.5" y2="910" stroke="black"/>
<line x1="2616.5" y1="942" x2="2616.5" y2="1046" stroke="black"/>
<line x1="2900.5" y1="805" x2="2900.5" y2="911" stroke="black"/>
<line x1="2901.5" y1="941" x2="2901.5" y2="1047" stroke="black"/>
<line x1="3118.5" y1="805" x2="3118.5" y2="911" stroke="black"/>
<line x1="3118.5" y1="942" x2="3118.5" y2="1047" stroke="black"/>
<line x1="3391.5" y1="805" x2="3391.5" y2="910" stroke="black"/>
<line x1="3391.5" y1="942" x2="3391.5" y2="1046" stroke="black"/>
<line x1="3608.5" y1="942" x2="3608.5" y2="1046" stroke="black"/>
<line x1="3608.5" y1="806" x2="3608.5" y2="911" stroke="black"/>
<line x1="2397.5" y1="943" x2="2397.5" y2="1048" stroke="black"/>
</g>
<line x1="2589" y1="1465.1" x2="6006.65" y2="1465.1" stroke="#262626" strokeWidth="6"/>
<rect x="2591" y="1466" width="27.4424" height="19.24" stroke="#262626" strokeWidth="4"/>
<rect x="3329.21" y="1466" width="27.4424" height="19.24" stroke="#262626" strokeWidth="4"/>
<rect x="4067.42" y="1466" width="27.4424" height="19.24" stroke="#262626" strokeWidth="4"/>
<rect x="4805.64" y="1466" width="27.4424" height="19.24" stroke="#262626" strokeWidth="4"/>
<rect x="5543.85" y="1466" width="27.4424" height="19.24" stroke="#262626" strokeWidth="4"/>
<rect x="2960.11" y="1466" width="27.4424" height="19.24" stroke="#262626" strokeWidth="4"/>
<rect x="3698.32" y="1466" width="27.4424" height="19.24" stroke="#262626" strokeWidth="4"/>
<rect x="4436.53" y="1466" width="27.4424" height="19.24" stroke="#262626" strokeWidth="4"/>
<rect x="5174.74" y="1466" width="27.4424" height="19.24" stroke="#262626" strokeWidth="4"/>
<rect x="2714.04" y="1466" width="27.4424" height="19.24" stroke="#262626" strokeWidth="4"/>
<rect x="3452.25" y="1466" width="27.4424" height="19.24" stroke="#262626" strokeWidth="4"/>
<rect x="4190.46" y="1466" width="27.4424" height="19.24" stroke="#262626" strokeWidth="4"/>
<rect x="4928.67" y="1466" width="27.4424" height="19.24" stroke="#262626" strokeWidth="4"/>
<rect x="5666.88" y="1466" width="27.4424" height="19.24" stroke="#262626" strokeWidth="4"/>
<rect x="3083.14" y="1466" width="27.4424" height="19.24" stroke="#262626" strokeWidth="4"/>
<rect x="3821.35" y="1466" width="27.4424" height="19.24" stroke="#262626" strokeWidth="4"/>
<rect x="4559.57" y="1466" width="27.4424" height="19.24" stroke="#262626" strokeWidth="4"/>
<rect x="5297.78" y="1466" width="27.4424" height="19.24" stroke="#262626" strokeWidth="4"/>
<rect x="2837.07" y="1466" width="27.4424" height="19.24" stroke="#262626" strokeWidth="4"/>
<rect x="3575.28" y="1466" width="27.4424" height="19.24" stroke="#262626" strokeWidth="4"/>
<rect x="4313.5" y="1466" width="27.4424" height="19.24" stroke="#262626" strokeWidth="4"/>
<rect x="5051.71" y="1466" width="27.4424" height="19.24" stroke="#262626" strokeWidth="4"/>
<rect x="5789.92" y="1466" width="27.4424" height="19.24" stroke="#262626" strokeWidth="4"/>
<rect x="5871.94" y="1466" width="27.4424" height="19.24" stroke="#262626" strokeWidth="4"/>
<rect x="3206.18" y="1466" width="27.4424" height="19.24" stroke="#262626" strokeWidth="4"/>
<rect x="3944.39" y="1466" width="27.4424" height="19.24" stroke="#262626" strokeWidth="4"/>
<rect x="4682.6" y="1466" width="27.4424" height="19.24" stroke="#262626" strokeWidth="4"/>
<rect x="5420.81" y="1466" width="27.4424" height="19.24" stroke="#262626" strokeWidth="4"/>
<rect x="2632.01" y="1466" width="27.4424" height="19.24" stroke="#262626" strokeWidth="4"/>
<rect x="3370.22" y="1466" width="27.4424" height="19.24" stroke="#262626" strokeWidth="4"/>
<rect x="4108.44" y="1466" width="27.4424" height="19.24" stroke="#262626" strokeWidth="4"/>
<rect x="4846.65" y="1466" width="27.4424" height="19.24" stroke="#262626" strokeWidth="4"/>
<rect x="5584.86" y="1466" width="27.4424" height="19.24" stroke="#262626" strokeWidth="4"/>
<rect x="3001.12" y="1466" width="27.4424" height="19.24" stroke="#262626" strokeWidth="4"/>
<rect x="3739.33" y="1466" width="27.4424" height="19.24" stroke="#262626" strokeWidth="4"/>
<rect x="4477.54" y="1466" width="27.4424" height="19.24" stroke="#262626" strokeWidth="4"/>
<rect x="5215.75" y="1466" width="27.4424" height="19.24" stroke="#262626" strokeWidth="4"/>
<rect x="2755.05" y="1466" width="27.4424" height="19.24" stroke="#262626" strokeWidth="4"/>
<rect x="3493.26" y="1466" width="27.4424" height="19.24" stroke="#262626" strokeWidth="4"/>
<rect x="4231.47" y="1466" width="27.4424" height="19.24" stroke="#262626" strokeWidth="4"/>
<rect x="4969.68" y="1466" width="27.4424" height="19.24" stroke="#262626" strokeWidth="4"/>
<rect x="5707.89" y="1466" width="27.4424" height="19.24" stroke="#262626" strokeWidth="4"/>
<rect x="3124.15" y="1466" width="27.4424" height="19.24" stroke="#262626" strokeWidth="4"/>
<rect x="3862.37" y="1466" width="27.4424" height="19.24" stroke="#262626" strokeWidth="4"/>
<rect x="4600.58" y="1466" width="27.4424" height="19.24" stroke="#262626" strokeWidth="4"/>
<rect x="5338.79" y="1466" width="27.4424" height="19.24" stroke="#262626" strokeWidth="4"/>
<rect x="2878.08" y="1466" width="27.4424" height="19.24" stroke="#262626" strokeWidth="4"/>
<rect x="3616.29" y="1466" width="27.4424" height="19.24" stroke="#262626" strokeWidth="4"/>
<rect x="4354.51" y="1466" width="27.4424" height="19.24" stroke="#262626" strokeWidth="4"/>
<rect x="5092.72" y="1466" width="27.4424" height="19.24" stroke="#262626" strokeWidth="4"/>
<rect x="5830.93" y="1466" width="27.4424" height="19.24" stroke="#262626" strokeWidth="4"/>
<rect x="5912.95" y="1466" width="27.4424" height="19.24" stroke="#262626" strokeWidth="4"/>
<rect x="5953.97" y="1466" width="27.4424" height="19.24" stroke="#262626" strokeWidth="4"/>
<rect x="3247.19" y="1466" width="27.4424" height="19.24" stroke="#262626" strokeWidth="4"/>
<rect x="3985.4" y="1466" width="27.4424" height="19.24" stroke="#262626" strokeWidth="4"/>
<rect x="4723.61" y="1466" width="27.4424" height="19.24" stroke="#262626" strokeWidth="4"/>
<rect x="5461.82" y="1466" width="27.4424" height="19.24" stroke="#262626" strokeWidth="4"/>
<rect x="2673.02" y="1466" width="27.4424" height="19.24" stroke="#262626" strokeWidth="4"/>
<rect x="3411.24" y="1466" width="27.4424" height="19.24" stroke="#262626" strokeWidth="4"/>
<rect x="4149.45" y="1466" width="27.4424" height="19.24" stroke="#262626" strokeWidth="4"/>
<rect x="4887.66" y="1466" width="27.4424" height="19.24" stroke="#262626" strokeWidth="4"/>
<rect x="5625.87" y="1466" width="27.4424" height="19.24" stroke="#262626" strokeWidth="4"/>
<rect x="3042.13" y="1466" width="27.4424" height="19.24" stroke="#262626" strokeWidth="4"/>
<rect x="3780.34" y="1466" width="27.4424" height="19.24" stroke="#262626" strokeWidth="4"/>
<rect x="4518.55" y="1466" width="27.4424" height="19.24" stroke="#262626" strokeWidth="4"/>
<rect x="5256.77" y="1466" width="27.4424" height="19.24" stroke="#262626" strokeWidth="4"/>
<rect x="2796.06" y="1466" width="27.4424" height="19.24" stroke="#262626" strokeWidth="4"/>
<rect x="3534.27" y="1466" width="27.4424" height="19.24" stroke="#262626" strokeWidth="4"/>
<rect x="4272.48" y="1466" width="27.4424" height="19.24" stroke="#262626" strokeWidth="4"/>
<rect x="5010.7" y="1466" width="27.4424" height="19.24" stroke="#262626" strokeWidth="4"/>
<rect x="5748.91" y="1466" width="27.4424" height="19.24" stroke="#262626" strokeWidth="4"/>
<rect x="3165.17" y="1466" width="27.4424" height="19.24" stroke="#262626" strokeWidth="4"/>
<rect x="3903.38" y="1466" width="27.4424" height="19.24" stroke="#262626" strokeWidth="4"/>
<rect x="4641.59" y="1466" width="27.4424" height="19.24" stroke="#262626" strokeWidth="4"/>
<rect x="5379.8" y="1466" width="27.4424" height="19.24" stroke="#262626" strokeWidth="4"/>
<rect x="2919.09" y="1466" width="27.4424" height="19.24" stroke="#262626" strokeWidth="4"/>
<rect x="3657.31" y="1466" width="27.4424" height="19.24" stroke="#262626" strokeWidth="4"/>
<rect x="4395.52" y="1466" width="27.4424" height="19.24" stroke="#262626" strokeWidth="4"/>
<rect x="5133.73" y="1466" width="27.4424" height="19.24" stroke="#262626" strokeWidth="4"/>
<rect x="3288.2" y="1466" width="27.4424" height="19.24" stroke="#262626" strokeWidth="4"/>
<rect x="4026.41" y="1466" width="27.4424" height="19.24" stroke="#262626" strokeWidth="4"/>
<rect x="4764.62" y="1466" width="27.4424" height="19.24" stroke="#262626" strokeWidth="4"/>
<rect x="5502.84" y="1466" width="27.4424" height="19.24" stroke="#262626" strokeWidth="4"/>
<line x1="-815" y1="1465.1" x2="2602.65" y2="1465.1" stroke="#262626" strokeWidth="6"/>
<rect x="663.424" y="1466" width="27.4424" height="19.24" stroke="#262626" strokeWidth="4"/>
<rect x="1401.64" y="1466" width="27.4424" height="19.24" stroke="#262626" strokeWidth="4"/>
<rect x="2139.85" y="1466" width="27.4424" height="19.24" stroke="#262626" strokeWidth="4"/>
<rect x="294.317" y="1466" width="27.4424" height="19.24" stroke="#262626" strokeWidth="4"/>
<rect x="1032.53" y="1466" width="27.4424" height="19.24" stroke="#262626" strokeWidth="4"/>
<rect x="1770.74" y="1466" width="27.4424" height="19.24" stroke="#262626" strokeWidth="4"/>
<rect x="48.2476" y="1466" width="27.4424" height="19.24" stroke="#262626" strokeWidth="4"/>
<rect x="786.459" y="1466" width="27.4424" height="19.24" stroke="#262626" strokeWidth="4"/>
<rect x="1524.67" y="1466" width="27.4424" height="19.24" stroke="#262626" strokeWidth="4"/>
<rect x="2262.88" y="1466" width="27.4424" height="19.24" stroke="#262626" strokeWidth="4"/>
<rect x="417.353" y="1466" width="27.4424" height="19.24" stroke="#262626" strokeWidth="4"/>
<rect x="1155.57" y="1466" width="27.4424" height="19.24" stroke="#262626" strokeWidth="4"/>
<rect x="1893.78" y="1466" width="27.4424" height="19.24" stroke="#262626" strokeWidth="4"/>
<rect x="171.282" y="1466" width="27.4424" height="19.24" stroke="#262626" strokeWidth="4"/>
<rect x="909.495" y="1466" width="27.4424" height="19.24" stroke="#262626" strokeWidth="4"/>
<rect x="1647.71" y="1466" width="27.4424" height="19.24" stroke="#262626" strokeWidth="4"/>
<rect x="2385.92" y="1466" width="27.4424" height="19.24" stroke="#262626" strokeWidth="4"/>
<rect x="2467.94" y="1466" width="27.4424" height="19.24" stroke="#262626" strokeWidth="4"/>
<rect x="540.388" y="1466" width="27.4424" height="19.24" stroke="#262626" strokeWidth="4"/>
<rect x="1278.6" y="1466" width="27.4424" height="19.24" stroke="#262626" strokeWidth="4"/>
<rect x="2016.81" y="1466" width="27.4424" height="19.24" stroke="#262626" strokeWidth="4"/>
<rect x="704.436" y="1466" width="27.4424" height="19.24" stroke="#262626" strokeWidth="4"/>
<rect x="1442.65" y="1466" width="27.4424" height="19.24" stroke="#262626" strokeWidth="4"/>
<rect x="2180.86" y="1466" width="27.4424" height="19.24" stroke="#262626" strokeWidth="4"/>
<rect x="335.33" y="1466" width="27.4424" height="19.24" stroke="#262626" strokeWidth="4"/>
<rect x="1073.54" y="1466" width="27.4424" height="19.24" stroke="#262626" strokeWidth="4"/>
<rect x="1811.75" y="1466" width="27.4424" height="19.24" stroke="#262626" strokeWidth="4"/>
<rect x="89.2598" y="1466" width="27.4424" height="19.24" stroke="#262626" strokeWidth="4"/>
<rect x="827.472" y="1466" width="27.4424" height="19.24" stroke="#262626" strokeWidth="4"/>
<rect x="1565.68" y="1466" width="27.4424" height="19.24" stroke="#262626" strokeWidth="4"/>
<rect x="2303.89" y="1466" width="27.4424" height="19.24" stroke="#262626" strokeWidth="4"/>
<rect x="458.365" y="1466" width="27.4424" height="19.24" stroke="#262626" strokeWidth="4"/>
<rect x="1196.58" y="1466" width="27.4424" height="19.24" stroke="#262626" strokeWidth="4"/>
<rect x="1934.79" y="1466" width="27.4424" height="19.24" stroke="#262626" strokeWidth="4"/>
<rect x="212.295" y="1466" width="27.4424" height="19.24" stroke="#262626" strokeWidth="4"/>
<rect x="950.507" y="1466" width="27.4424" height="19.24" stroke="#262626" strokeWidth="4"/>
<rect x="1688.72" y="1466" width="27.4424" height="19.24" stroke="#262626" strokeWidth="4"/>
<rect x="2426.93" y="1466" width="27.4424" height="19.24" stroke="#262626" strokeWidth="4"/>
<rect x="2508.95" y="1466" width="27.4424" height="19.24" stroke="#262626" strokeWidth="4"/>
<rect x="2549.97" y="1466" width="27.4424" height="19.24" stroke="#262626" strokeWidth="4"/>
<rect x="581.401" y="1466" width="27.4424" height="19.24" stroke="#262626" strokeWidth="4"/>
<rect x="1319.61" y="1466" width="27.4424" height="19.24" stroke="#262626" strokeWidth="4"/>
<rect x="2057.82" y="1466" width="27.4424" height="19.24" stroke="#262626" strokeWidth="4"/>
<rect x="7.23584" y="1466" width="27.4424" height="19.24" stroke="#262626" strokeWidth="4"/>
<rect x="745.447" y="1466" width="27.4424" height="19.24" stroke="#262626" strokeWidth="4"/>
<rect x="1483.66" y="1466" width="27.4424" height="19.24" stroke="#262626" strokeWidth="4"/>
<rect x="2221.87" y="1466" width="27.4424" height="19.24" stroke="#262626" strokeWidth="4"/>
<rect x="376.342" y="1466" width="27.4424" height="19.24" stroke="#262626" strokeWidth="4"/>
<rect x="1114.55" y="1466" width="27.4424" height="19.24" stroke="#262626" strokeWidth="4"/>
<rect x="1852.77" y="1466" width="27.4424" height="19.24" stroke="#262626" strokeWidth="4"/>
<rect x="130.271" y="1466" width="27.4424" height="19.24" stroke="#262626" strokeWidth="4"/>
<rect x="868.483" y="1466" width="27.4424" height="19.24" stroke="#262626" strokeWidth="4"/>
<rect x="1606.7" y="1466" width="27.4424" height="19.24" stroke="#262626" strokeWidth="4"/>
<rect x="2344.91" y="1466" width="27.4424" height="19.24" stroke="#262626" strokeWidth="4"/>
<rect x="499.377" y="1466" width="27.4424" height="19.24" stroke="#262626" strokeWidth="4"/>
<rect x="1237.59" y="1466" width="27.4424" height="19.24" stroke="#262626" strokeWidth="4"/>
<rect x="1975.8" y="1466" width="27.4424" height="19.24" stroke="#262626" strokeWidth="4"/>
<rect x="253.306" y="1466" width="27.4424" height="19.24" stroke="#262626" strokeWidth="4"/>
<rect x="991.518" y="1466" width="27.4424" height="19.24" stroke="#262626" strokeWidth="4"/>
<rect x="1729.73" y="1466" width="27.4424" height="19.24" stroke="#262626" strokeWidth="4"/>
<rect x="622.412" y="1466" width="27.4424" height="19.24" stroke="#262626" strokeWidth="4"/>
<rect x="1360.62" y="1466" width="27.4424" height="19.24" stroke="#262626" strokeWidth="4"/>
<rect x="2098.84" y="1466" width="27.4424" height="19.24" stroke="#262626" strokeWidth="4"/>
</g>
<defs>
<filter id="filter0_d_242_542" x="636" y="155" width="510" height="266" filterUnits="userSpaceOnUse" colorInterpolationFilters="sRGB">
<feFlood flood-opacity="0" result="BackgroundImageFix"/>
<feColorMatrix in="SourceAlpha" type="matrix" values="0 0 0 0 0 0 0 0 0 0 0 0 0 0 0 0 0 0 127 0" result="hardAlpha"/>
<feOffset dx="5" dy="4"/>
<feGaussianBlur stdDeviation="10"/>
<feComposite in2="hardAlpha" operator="out"/>
<feColorMatrix type="matrix" values="0 0 0 0 0 0 0 0 0 0 0 0 0 0 0 0 0 0 0.25 0"/>
<feBlend mode="normal" in2="BackgroundImageFix" result="effect1_dropShadow_242_542"/>
<feBlend mode="normal" in="SourceGraphic" in2="effect1_dropShadow_242_542" result="shape"/>
</filter>
<filter id="filter1_d_242_542" x="1495" y="302" width="3593" height="610" filterUnits="userSpaceOnUse" colorInterpolationFilters="sRGB">
<feFlood flood-opacity="0" result="BackgroundImageFix"/>
<feColorMatrix in="SourceAlpha" type="matrix" values="0 0 0 0 0 0 0 0 0 0 0 0 0 0 0 0 0 0 127 0" result="hardAlpha"/>
<feOffset dx="4" dy="4"/>
<feGaussianBlur stdDeviation="20"/>
<feComposite in2="hardAlpha" operator="out"/>
<feColorMatrix type="matrix" values="0 0 0 0 0 0 0 0 0 0 0 0 0 0 0 0 0 0 0.25 0"/>
<feBlend mode="normal" in2="BackgroundImageFix" result="effect1_dropShadow_242_542"/>
<feBlend mode="normal" in="SourceGraphic" in2="effect1_dropShadow_242_542" result="shape"/>
</filter>
<filter id="filter2_d_242_542" x="-46" y="302" width="2166" height="610" filterUnits="userSpaceOnUse" colorInterpolationFilters="sRGB">
<feFlood flood-opacity="0" result="BackgroundImageFix"/>
<feColorMatrix in="SourceAlpha" type="matrix" values="0 0 0 0 0 0 0 0 0 0 0 0 0 0 0 0 0 0 127 0" result="hardAlpha"/>
<feOffset dx="4" dy="4"/>
<feGaussianBlur stdDeviation="20"/>
<feComposite in2="hardAlpha" operator="out"/>
<feColorMatrix type="matrix" values="0 0 0 0 0 0 0 0 0 0 0 0 0 0 0 0 0 0 0.25 0"/>
<feBlend mode="normal" in2="BackgroundImageFix" result="effect1_dropShadow_242_542"/>
<feBlend mode="normal" in="SourceGraphic" in2="effect1_dropShadow_242_542" result="shape"/>
</filter>
<filter id="filter3_d_242_542" x="-35.5" y="632.5" width="6091" height="672" filterUnits="userSpaceOnUse" colorInterpolationFilters="sRGB">
<feFlood flood-opacity="0" result="BackgroundImageFix"/>
<feColorMatrix in="SourceAlpha" type="matrix" values="0 0 0 0 0 0 0 0 0 0 0 0 0 0 0 0 0 0 127 0" result="hardAlpha"/>
<feOffset dx="4" dy="4"/>
<feGaussianBlur stdDeviation="20"/>
<feComposite in2="hardAlpha" operator="out"/>
<feColorMatrix type="matrix" values="0 0 0 0 0 0 0 0 0 0 0 0 0 0 0 0 0 0 0.25 0"/>
<feBlend mode="normal" in2="BackgroundImageFix" result="effect1_dropShadow_242_542"/>
<feBlend mode="normal" in="SourceGraphic" in2="effect1_dropShadow_242_542" result="shape"/>
</filter>
<filter id="filter4_d_242_542" x="-46.5" y="885.5" width="6098.19" height="825.002" filterUnits="userSpaceOnUse" colorInterpolationFilters="sRGB">
<feFlood flood-opacity="0" result="BackgroundImageFix"/>
<feColorMatrix in="SourceAlpha" type="matrix" values="0 0 0 0 0 0 0 0 0 0 0 0 0 0 0 0 0 0 127 0" result="hardAlpha"/>
<feOffset dx="4" dy="5"/>
<feGaussianBlur stdDeviation="20"/>
<feComposite in2="hardAlpha" operator="out"/>
<feColorMatrix type="matrix" values="0 0 0 0 0 0 0 0 0 0 0 0 0 0 0 0 0 0 0.25 0"/>
<feBlend mode="normal" in2="BackgroundImageFix" result="effect1_dropShadow_242_542"/>
<feBlend mode="normal" in="SourceGraphic" in2="effect1_dropShadow_242_542" result="shape"/>
</filter>
<filter id="filter5_d_242_542" x="2423" y="106" width="391" height="209" filterUnits="userSpaceOnUse" colorInterpolationFilters="sRGB">
<feFlood flood-opacity="0" result="BackgroundImageFix"/>
<feColorMatrix in="SourceAlpha" type="matrix" values="0 0 0 0 0 0 0 0 0 0 0 0 0 0 0 0 0 0 127 0" result="hardAlpha"/>
<feOffset dx="5" dy="4"/>
<feGaussianBlur stdDeviation="10"/>
<feComposite in2="hardAlpha" operator="out"/>
<feColorMatrix type="matrix" values="0 0 0 0 0 0 0 0 0 0 0 0 0 0 0 0 0 0 0.25 0"/>
<feBlend mode="normal" in2="BackgroundImageFix" result="effect1_dropShadow_242_542"/>
<feBlend mode="normal" in="SourceGraphic" in2="effect1_dropShadow_242_542" result="shape"/>
</filter>
<filter id="filter6_d_242_542" x="3906" y="172" width="343" height="186" filterUnits="userSpaceOnUse" colorInterpolationFilters="sRGB">
<feFlood flood-opacity="0" result="BackgroundImageFix"/>
<feColorMatrix in="SourceAlpha" type="matrix" values="0 0 0 0 0 0 0 0 0 0 0 0 0 0 0 0 0 0 127 0" result="hardAlpha"/>
<feOffset dx="5" dy="4"/>
<feGaussianBlur stdDeviation="10"/>
<feComposite in2="hardAlpha" operator="out"/>
<feColorMatrix type="matrix" values="0 0 0 0 0 0 0 0 0 0 0 0 0 0 0 0 0 0 0.25 0"/>
<feBlend mode="normal" in2="BackgroundImageFix" result="effect1_dropShadow_242_542"/>
<feBlend mode="normal" in="SourceGraphic" in2="effect1_dropShadow_242_542" result="shape"/>
</filter>
<filter id="filter7_d_242_542" x="3067" y="17" width="510" height="266" filterUnits="userSpaceOnUse" colorInterpolationFilters="sRGB">
<feFlood flood-opacity="0" result="BackgroundImageFix"/>
<feColorMatrix in="SourceAlpha" type="matrix" values="0 0 0 0 0 0 0 0 0 0 0 0 0 0 0 0 0 0 127 0" result="hardAlpha"/>
<feOffset dx="5" dy="4"/>
<feGaussianBlur stdDeviation="10"/>
<feComposite in2="hardAlpha" operator="out"/>
<feColorMatrix type="matrix" values="0 0 0 0 0 0 0 0 0 0 0 0 0 0 0 0 0 0 0.25 0"/>
<feBlend mode="normal" in2="BackgroundImageFix" result="effect1_dropShadow_242_542"/>
<feBlend mode="normal" in="SourceGraphic" in2="effect1_dropShadow_242_542" result="shape"/>
</filter>
<filter id="filter8_d_242_542" x="3283" y="102" width="382" height="204" filterUnits="userSpaceOnUse" colorInterpolationFilters="sRGB">
<feFlood flood-opacity="0" result="BackgroundImageFix"/>
<feColorMatrix in="SourceAlpha" type="matrix" values="0 0 0 0 0 0 0 0 0 0 0 0 0 0 0 0 0 0 127 0" result="hardAlpha"/>
<feOffset dx="-5" dy="-5"/>
<feGaussianBlur stdDeviation="10"/>
<feComposite in2="hardAlpha" operator="out"/>
<feColorMatrix type="matrix" values="0 0 0 0 0 0 0 0 0 0 0 0 0 0 0 0 0 0 0.25 0"/>
<feBlend mode="normal" in2="BackgroundImageFix" result="effect1_dropShadow_242_542"/>
<feBlend mode="normal" in="SourceGraphic" in2="effect1_dropShadow_242_542" result="shape"/>
</filter>
<filter id="filter9_d_242_542" x="4615" y="332" width="391" height="209" filterUnits="userSpaceOnUse" colorInterpolationFilters="sRGB">
<feFlood flood-opacity="0" result="BackgroundImageFix"/>
<feColorMatrix in="SourceAlpha" type="matrix" values="0 0 0 0 0 0 0 0 0 0 0 0 0 0 0 0 0 0 127 0" result="hardAlpha"/>
<feOffset dx="5" dy="4"/>
<feGaussianBlur stdDeviation="10"/>
<feComposite in2="hardAlpha" operator="out"/>
<feColorMatrix type="matrix" values="0 0 0 0 0 0 0 0 0 0 0 0 0 0 0 0 0 0 0.25 0"/>
<feBlend mode="normal" in2="BackgroundImageFix" result="effect1_dropShadow_242_542"/>
<feBlend mode="normal" in="SourceGraphic" in2="effect1_dropShadow_242_542" result="shape"/>
</filter>
<filter id="filter10_d_242_542" x="5259" y="243" width="510" height="266" filterUnits="userSpaceOnUse" colorInterpolationFilters="sRGB">
<feFlood flood-opacity="0" result="BackgroundImageFix"/>
<feColorMatrix in="SourceAlpha" type="matrix" values="0 0 0 0 0 0 0 0 0 0 0 0 0 0 0 0 0 0 127 0" result="hardAlpha"/>
<feOffset dx="5" dy="4"/>
<feGaussianBlur stdDeviation="10"/>
<feComposite in2="hardAlpha" operator="out"/>
<feColorMatrix type="matrix" values="0 0 0 0 0 0 0 0 0 0 0 0 0 0 0 0 0 0 0.25 0"/>
<feBlend mode="normal" in2="BackgroundImageFix" result="effect1_dropShadow_242_542"/>
<feBlend mode="normal" in="SourceGraphic" in2="effect1_dropShadow_242_542" result="shape"/>
</filter>
<filter id="filter11_d_242_542" x="5475" y="328" width="382" height="204" filterUnits="userSpaceOnUse" colorInterpolationFilters="sRGB">
<feFlood flood-opacity="0" result="BackgroundImageFix"/>
<feColorMatrix in="SourceAlpha" type="matrix" values="0 0 0 0 0 0 0 0 0 0 0 0 0 0 0 0 0 0 127 0" result="hardAlpha"/>
<feOffset dx="-5" dy="-5"/>
<feGaussianBlur stdDeviation="10"/>
<feComposite in2="hardAlpha" operator="out"/>
<feColorMatrix type="matrix" values="0 0 0 0 0 0 0 0 0 0 0 0 0 0 0 0 0 0 0.25 0"/>
<feBlend mode="normal" in2="BackgroundImageFix" result="effect1_dropShadow_242_542"/>
<feBlend mode="normal" in="SourceGraphic" in2="effect1_dropShadow_242_542" result="shape"/>
</filter>
<filter id="filter12_d_242_542" x="-14" y="129" width="391" height="209" filterUnits="userSpaceOnUse" colorInterpolationFilters="sRGB">
<feFlood flood-opacity="0" result="BackgroundImageFix"/>
<feColorMatrix in="SourceAlpha" type="matrix" values="0 0 0 0 0 0 0 0 0 0 0 0 0 0 0 0 0 0 127 0" result="hardAlpha"/>
<feOffset dx="5" dy="4"/>
<feGaussianBlur stdDeviation="10"/>
<feComposite in2="hardAlpha" operator="out"/>
<feColorMatrix type="matrix" values="0 0 0 0 0 0 0 0 0 0 0 0 0 0 0 0 0 0 0.25 0"/>
<feBlend mode="normal" in2="BackgroundImageFix" result="effect1_dropShadow_242_542"/>
<feBlend mode="normal" in="SourceGraphic" in2="effect1_dropShadow_242_542" result="shape"/>
</filter>
<filter id="filter13_d_242_542" x="1889" y="225" width="343" height="186" filterUnits="userSpaceOnUse" colorInterpolationFilters="sRGB">
<feFlood flood-opacity="0" result="BackgroundImageFix"/>
<feColorMatrix in="SourceAlpha" type="matrix" values="0 0 0 0 0 0 0 0 0 0 0 0 0 0 0 0 0 0 127 0" result="hardAlpha"/>
<feOffset dx="5" dy="4"/>
<feGaussianBlur stdDeviation="10"/>
<feComposite in2="hardAlpha" operator="out"/>
<feColorMatrix type="matrix" values="0 0 0 0 0 0 0 0 0 0 0 0 0 0 0 0 0 0 0.25 0"/>
<feBlend mode="normal" in2="BackgroundImageFix" result="effect1_dropShadow_242_542"/>
<feBlend mode="normal" in="SourceGraphic" in2="effect1_dropShadow_242_542" result="shape"/>
</filter>
<filter id="filter14_d_242_542" x="2157" y="376" width="1707.09" height="854.238" filterUnits="userSpaceOnUse" colorInterpolationFilters="sRGB">
<feFlood flood-opacity="0" result="BackgroundImageFix"/>
<feColorMatrix in="SourceAlpha" type="matrix" values="0 0 0 0 0 0 0 0 0 0 0 0 0 0 0 0 0 0 127 0" result="hardAlpha"/>
<feOffset dx="5" dy="5"/>
<feGaussianBlur stdDeviation="20"/>
<feComposite in2="hardAlpha" operator="out"/>
<feColorMatrix type="matrix" values="0 0 0 0 0 0 0 0 0 0 0 0 0 0 0 0 0 0 0.25 0"/>
<feBlend mode="normal" in2="BackgroundImageFix" result="effect1_dropShadow_242_542"/>
<feBlend mode="normal" in="SourceGraphic" in2="effect1_dropShadow_242_542" result="shape"/>
</filter>
<filter id="filter15_d_242_542" x="2387.06" y="618.24" width="1244.6" height="103.065" filterUnits="userSpaceOnUse" colorInterpolationFilters="sRGB">
<feFlood flood-opacity="0" result="BackgroundImageFix"/>
<feColorMatrix in="SourceAlpha" type="matrix" values="0 0 0 0 0 0 0 0 0 0 0 0 0 0 0 0 0 0 127 0" result="hardAlpha"/>
<feOffset dx="4" dy="4"/>
<feGaussianBlur stdDeviation="15"/>
<feComposite in2="hardAlpha" operator="out"/>
<feColorMatrix type="matrix" values="0 0 0 0 0 0 0 0 0 0 0 0 0 0 0 0 0 0 0.15 0"/>
<feBlend mode="normal" in2="BackgroundImageFix" result="effect1_dropShadow_242_542"/>
<feBlend mode="normal" in="SourceGraphic" in2="effect1_dropShadow_242_542" result="shape"/>
</filter>
<clipPath id="clip0_242_542">
<rect width="6011" height="1616" fill="white"/>
</clipPath>
</defs>
</svg>
