<svg width="1185" height="732" viewBox="0 0 1185 732" fill="none" xmlns="http://www.w3.org/2000/svg">
<path d="M859.76 590.146C859.647 590.442 859.534 590.697 859.449 590.979L859.76 590.146Z" fill="#262626"/>
<path d="M984.677 540.163C984.281 539.994 983.815 539.81 983.405 539.641L984.677 540.163Z" fill="#262626"/>
<path d="M1034.61 664.774C1034.72 664.477 1034.84 664.181 1034.95 663.898L1034.61 664.774Z" fill="#262626"/>
<path d="M1014.55 560.403C1014.42 560.318 1014.31 560.176 1014.24 560.105L1014.55 560.403Z" fill="#262626"/>
<path d="M880.039 560.19C879.996 560.248 879.953 560.334 879.866 560.391L880.039 560.19Z" fill="#262626"/>
<path d="M1111.51 276.464C1144.36 276.69 1127.35 236.085 1184.07 210.056H819.506C819.506 210.056 801.138 231.015 819.506 251.677C988.463 244.121 1094.4 273.766 1111.51 276.464Z" fill="#262626"/>
<path d="M642.115 546.547C641.819 546.702 641.621 546.858 641.324 547.027L642.115 546.547Z" fill="#262626"/>
<path d="M773.742 574.652C773.459 574.257 773.219 573.861 772.937 573.494L773.742 574.652Z" fill="#262626"/>
<path d="M787.179 608.068C787.151 607.899 787.123 607.786 787.095 607.631L787.179 608.068Z" fill="#262626"/>
<path d="M675.658 532.974C675.573 532.974 675.488 533.002 675.403 533.017L675.658 532.974Z" fill="#262626"/>
<path d="M614.181 677.951C614.35 678.248 614.506 678.446 614.661 678.7L614.181 677.951Z" fill="#262626"/>
<path d="M532.246 538.948C531.836 538.751 531.384 538.567 530.96 538.397L532.246 538.948Z" fill="#262626"/>
<path d="M582.122 663.531C582.277 663.235 582.391 662.952 582.489 662.656L582.122 663.531Z" fill="#262626"/>
<path d="M562.06 559.16C561.961 559.075 561.819 558.933 561.748 558.862L562.06 559.16Z" fill="#262626"/>
<path d="M427.595 558.947C427.538 559.034 427.48 559.063 427.422 559.12L427.595 558.947Z" fill="#262626"/>
<path d="M279.377 642.049C279.306 642.233 279.236 642.388 279.165 642.543L279.377 642.049Z" fill="#262626"/>
<path d="M353.993 612.249C353.739 612.122 353.47 612.009 353.216 611.938L353.993 612.249Z" fill="#262626"/>
<path d="M383.764 686.665C383.848 686.467 383.919 686.312 384.004 686.143L383.764 686.665Z" fill="#262626"/>
<path d="M371.799 624.328C371.727 624.299 371.655 624.213 371.598 624.155L371.799 624.328Z" fill="#262626"/>
<path d="M291.501 624.197C291.472 624.226 291.443 624.269 291.4 624.297L291.501 624.197Z" fill="#262626"/>
<path d="M309.288 716.522C309.444 716.593 309.613 716.65 309.783 716.734L309.288 716.522Z" fill="#262626"/>
<path d="M353.483 716.678C353.624 716.621 353.766 716.565 353.907 716.522L353.483 716.678Z" fill="#262626"/>
<path d="M54.6803 642.049C54.6096 642.233 54.5531 642.388 54.4824 642.543L54.6803 642.049Z" fill="#262626"/>
<path d="M129.282 612.249C129.028 612.122 128.774 612.009 128.52 611.938L129.282 612.249Z" fill="#262626"/>
<path d="M147.103 624.328C147.045 624.299 146.959 624.213 146.901 624.155L147.103 624.328Z" fill="#262626"/>
<path d="M66.7906 624.197C66.762 624.226 66.7334 624.269 66.6904 624.297L66.7906 624.197Z" fill="#262626"/>
<path d="M84.5771 716.522C84.7326 716.593 84.9021 716.65 85.0717 716.734L84.5771 716.522Z" fill="#262626"/>
<path d="M128.789 716.678C128.93 716.621 129.071 716.565 129.198 716.522L128.789 716.678Z" fill="#262626"/>
<path d="M83.2496 508.074V378.887C52.6317 436.892 51.9252 450.069 83.2496 508.074Z" fill="#262626"/>
<path d="M278.204 253.485C278.26 252.638 278.402 251.777 278.402 250.943V221.1C278.402 207.556 268.54 200 250.384 200H187.24C169.098 200 159.236 207.556 159.236 221.1V250.929C159.236 251.762 159.378 252.652 159.434 253.485H278.204Z" fill="#262626"/>
<path d="M849.361 420.919H819.633V493.626H849.361V420.919Z" fill="#262626"/>
<path d="M780.836 420.919H747.745V493.626H780.836V420.919Z" fill="#262626"/>
<path d="M816.892 420.919H783.547V493.626H816.892V420.919Z" fill="#262626"/>
<path d="M528.305 420.919H494.748V493.626H528.305V420.919Z" fill="#262626"/>
<path d="M491.992 420.919H458.647V493.626H491.992V420.919Z" fill="#262626"/>
<path d="M455.905 420.919H422.829V493.626H455.905V420.919Z" fill="#262626"/>
<path d="M420.102 420.919H387.309V493.626H420.102V420.919Z" fill="#262626"/>
<path d="M744.975 420.919H711.446V493.626H744.975V420.919Z" fill="#262626"/>
<path d="M564.079 420.919H531.017V493.626H564.079V420.919Z" fill="#262626"/>
<path d="M672.634 420.919H639.571V493.626H672.634V420.919Z" fill="#262626"/>
<path d="M708.721 420.919H675.391V493.626H708.721V420.919Z" fill="#262626"/>
<path d="M600.152 420.919H566.821V493.626H600.152V420.919Z" fill="#262626"/>
<path d="M636.816 420.919H602.906V493.626H636.816V420.919Z" fill="#262626"/>
<path d="M337.984 547.804H22.1969C9.94694 547.804 0 557.761 0 569.977C0 582.251 9.94694 592.151 22.1969 592.151H337.984V605C358.74 607.02 376.599 612.588 387.168 629.31V592.137V547.747H337.984V547.804Z" fill="#262626"/>
<path d="M378.162 600.057H62.3747C50.1247 600.057 40.1777 610.014 40.1777 622.23C40.1777 634.504 50.1247 644.404 62.3747 644.404H378.162V657.253C398.917 659.272 416.777 664.841 427.345 681.563V644.39V600H378.162V600.057Z" fill="#262626"/>
<path d="M849.348 416.879V403.123H87.8564V508.47H849.348V497.665H374.481V493.626H384.569V420.919H374.481V416.879H849.348Z" fill="#9D072B"/>
<path fill-rule="evenodd" clip-rule="evenodd" d="M720.194 378.464H849.349H849.377V399.889H87.8711V378.464H199.195H238.46H270.137C273.373 361.007 287.064 357.038 294.991 357.25H300.416H312.468H386.647V318.072H383.962C380.585 318.072 377.844 316.448 377.844 314.456C377.844 312.451 380.585 310.841 383.962 310.841H386.788C388.059 302.578 404.69 274.303 422.747 274.303C440.323 274.303 457.01 303.892 458.677 310.841H461.531C464.908 310.841 467.649 312.451 467.649 314.456C467.649 316.448 464.908 318.072 461.531 318.072H458.832V357.25H474.332H486.384H595.207V311.815C595.207 306.971 606.143 290.107 620.908 280.729V267.072H634.458V246.791H634.5C634.5 243.373 637.227 240.619 640.675 240.619C644.108 240.619 646.835 243.387 646.835 246.791H646.878V267.072H659.311L659.241 280.899C674.133 290.715 685.436 308.51 685.436 311.815V357.25H708.156H720.194H848.84V367.348H720.194V378.464ZM280.918 378.464H300.43V367.348H295.005C286.329 367.348 282.543 373.012 280.918 378.464ZM312.468 378.464H386.647V367.348H312.468V378.464ZM458.832 378.464H474.332V367.348H458.832V378.464ZM486.384 378.464H595.207V367.348H486.384V378.464ZM685.436 378.464H708.156V367.348H685.436V378.464Z" fill="#262626"/>
<path d="M238.46 378.464V362.024C238.46 319.738 271.564 286.633 277.428 258.88H160.227C166.09 286.633 199.195 319.738 199.195 362.024V378.464H238.46Z" fill="#9D072B"/>
<path d="M594.678 609.142C674.178 609.142 646.633 609.142 694.178 609.142C744.52 609.142 715.178 609.142 794.371 609.142H848.839V514.359H87.8418V543.072H393.159V609.142C444.178 609.142 445.276 609.142 496.678 609.142C544.194 609.142 532.678 609.142 594.678 609.142Z" fill="#262626"/>
<path d="M906.359 290.913H890.647C888.062 290.913 886.818 292.057 886.818 294.627V351.432C886.818 354.016 888.09 355.033 890.647 355.033H906.204C908.803 355.033 911.064 355.033 911.248 355.033C911.474 355.033 911.601 354.892 911.601 354.694C911.601 354.496 911.601 352.237 911.601 349.666V296.011C911.601 293.441 911.601 291.223 911.601 291.124C911.601 291.011 911.488 290.913 911.318 290.913C911.149 290.913 908.945 290.913 906.359 290.913Z" fill="#C4C4C4"/>
<path d="M946.317 282.495H881.549C880.051 282.495 878.836 283.724 878.836 285.249V360.781C878.836 362.292 880.051 363.535 881.549 363.535H946.317C947.815 363.535 949.044 362.292 949.044 360.781V285.249C949.072 283.724 947.843 282.495 946.317 282.495ZM944.339 291.308V354.821C944.339 356.318 944.339 357.688 944.339 357.815C944.339 357.956 944.24 358.084 944.084 358.084C943.971 358.084 942.615 358.084 941.103 358.084H886.211C884.699 358.084 883.456 356.841 883.456 355.329V290.63C883.456 289.119 884.699 287.876 886.211 287.876H940.877C942.389 287.876 943.774 287.876 944 287.876C944.197 287.876 944.31 288.031 944.31 288.215C944.339 288.384 944.339 289.797 944.339 291.308Z" fill="#C4C4C4"/>
<path d="M845 257.799V351.727H855.532L855.518 582.316C855.518 592.684 855.274 600.21 855.518 605.67C856.053 617.626 858.929 619.673 871.837 619.959C876.023 620.051 881.265 619.959 887.825 619.959C940.515 619.959 995.386 619.959 1050.36 619.959H1083V285.985C1036.12 257.266 878.548 252.724 845 257.799ZM951.171 366.043C951.171 367.586 949.926 368.855 948.442 368.855H878.83C877.332 368.855 876.088 367.586 876.088 366.043V283.303C876.088 281.761 877.332 280.492 878.83 280.492H948.442C949.926 280.492 951.171 281.761 951.171 283.303V366.043ZM1049.38 368.869H974.172C974.172 368.869 974.172 285.74 974.172 281.775C974.002 276.022 1049.38 291.146 1049.38 298.369C1049.38 305.592 1049.38 368.869 1049.38 368.869Z" fill="#262626"/>
<path d="M871.837 619.959C858.929 619.673 856.053 617.626 855.518 605.67V619.959H871.837Z" fill="#262626"/>
<path d="M976.878 283.639C976.878 287.269 976.878 363.521 976.878 363.521H1047.24C1047.24 363.521 1047.24 305.502 1047.24 298.864C1047.24 292.226 976.709 278.371 976.878 283.639ZM1042.49 358.041H981.611C981.611 358.041 981.611 292.113 981.611 288.963C981.456 284.416 1042.49 296.392 1042.49 302.141C1042.49 307.875 1042.49 358.041 1042.49 358.041Z" fill="#C4C4C4"/>
<circle cx="647.178" cy="665" r="65" fill="#C4C4C4"/>
<circle cx="873.178" cy="665" r="65" fill="#C4C4C4"/>
<path d="M820.572 642.362L860.36 658.745C860.911 657.587 861.646 656.542 862.494 655.553L832.059 625.202C827.255 630.103 823.327 635.908 820.572 642.362Z" fill="#262626"/>
<path d="M862.522 673.829C861.66 672.897 860.925 671.781 860.36 670.595L820.558 686.95L820.332 686.427C823.115 693.136 827.156 699.138 832.144 704.279L862.522 673.829Z" fill="#262626"/>
<path d="M866.76 677.063C865.616 676.484 864.556 675.764 863.609 674.959L833.231 705.395C838.148 710.14 843.871 714.01 850.243 716.793L866.76 677.063Z" fill="#262626"/>
<path d="M895.23 612.604L878.728 652.333C879.872 652.856 880.918 653.576 881.864 654.424L912.228 623.973C907.325 619.242 901.603 615.344 895.23 612.604Z" fill="#262626"/>
<path d="M925.198 643.012C922.401 636.261 918.374 630.23 913.344 625.061L882.98 655.511C883.856 656.457 884.577 657.573 885.142 658.731L924.93 642.376L925.198 643.012Z" fill="#262626"/>
<path d="M873.514 650.992C874.828 651.076 876.099 651.317 877.286 651.74L893.789 612.025C887.502 609.497 880.677 608.099 873.514 608V650.992Z" fill="#262626"/>
<path d="M850.852 612.35L867.99 651.825C869.248 651.359 870.576 651.076 871.961 650.992V608C864.289 608.127 856.97 609.709 850.301 612.59L850.852 612.35Z" fill="#262626"/>
<path d="M863.596 654.466C864.486 653.633 865.503 652.997 866.563 652.446L849.438 612.971C843.363 615.725 837.867 619.454 833.147 624.03L863.596 654.466Z" fill="#262626"/>
<path d="M886.442 665.468C886.371 666.767 886.117 667.982 885.707 669.168L925.466 685.566C927.939 679.351 929.352 672.572 929.465 665.496L886.442 665.468Z" fill="#262626"/>
<path d="M925.481 643.859L885.707 660.2C886.117 661.358 886.357 662.615 886.442 663.915L929.465 663.943C929.352 656.853 927.953 650.074 925.481 643.859Z" fill="#262626"/>
<path d="M871.96 678.349C870.645 678.292 869.388 678.052 868.201 677.6L851.698 717.315C857.972 719.829 864.81 721.227 871.96 721.34V678.349Z" fill="#262626"/>
<path d="M877.498 677.586C876.254 678.038 874.912 678.306 873.527 678.391V721.397C881.002 721.284 888.137 719.773 894.636 717.033L877.498 677.586Z" fill="#262626"/>
<path d="M885.128 670.623C884.562 671.781 883.842 672.855 882.994 673.815L913.428 704.195C918.232 699.223 922.16 693.433 924.901 687.007L885.128 670.623Z" fill="#262626"/>
<path d="M881.892 674.903C881.002 675.708 879.999 676.386 878.925 676.936L896.049 716.355C902.125 713.643 907.607 709.872 912.34 705.282L881.892 674.903Z" fill="#262626"/>
<path d="M859.54 661.414C859.639 661.019 859.653 660.553 859.78 660.2L820.02 643.817C817.83 649.311 816.531 655.243 816.191 661.414H859.54Z" fill="#262626"/>
<path d="M816.178 667.785C816.517 674.013 817.803 679.973 820.007 685.495L859.78 669.169C859.639 668.759 859.625 668.293 859.512 667.785H816.178Z" fill="#262626"/>
<path d="M699.07 687.035L659.283 670.652C658.732 671.81 657.997 672.855 657.149 673.844L687.583 704.195C692.387 699.294 696.315 693.489 699.07 687.035Z" fill="#262626"/>
<path d="M657.121 655.568C657.983 656.5 658.717 657.616 659.283 658.802L699.084 642.447L699.311 642.97C696.527 636.261 692.486 630.259 687.499 625.118L657.121 655.568Z" fill="#262626"/>
<path d="M652.883 652.334C654.027 652.913 655.087 653.633 656.033 654.438L686.411 624.002C681.494 619.257 675.772 615.387 669.4 612.604L652.883 652.334Z" fill="#262626"/>
<path d="M624.412 716.793L640.915 677.064C639.771 676.541 638.725 675.821 637.778 674.974L607.415 705.424C612.318 710.155 618.04 714.053 624.412 716.793Z" fill="#262626"/>
<path d="M594.444 686.385C597.242 693.136 601.269 699.167 606.298 704.336L636.662 673.886C635.786 672.94 635.066 671.824 634.5 670.666L594.713 687.021L594.444 686.385Z" fill="#262626"/>
<path d="M646.129 678.405C644.815 678.321 643.543 678.08 642.356 677.657L625.854 717.372C632.141 719.9 638.965 721.298 646.129 721.397L646.129 678.405Z" fill="#262626"/>
<path d="M668.791 717.047L651.652 677.572C650.395 678.038 649.066 678.321 647.682 678.405L647.682 721.397C655.354 721.27 662.673 719.688 669.342 716.807L668.791 717.047Z" fill="#262626"/>
<path d="M656.047 674.931C655.157 675.764 654.139 676.4 653.08 676.951L670.204 716.426C676.28 713.672 681.776 709.943 686.495 705.367L656.047 674.931Z" fill="#262626"/>
<path d="M633.201 663.929C633.272 662.63 633.526 661.415 633.936 660.229L594.176 643.831C591.703 650.046 590.291 656.825 590.178 663.901L633.201 663.929Z" fill="#262626"/>
<path d="M594.162 685.538L633.936 669.197C633.526 668.039 633.286 666.782 633.201 665.482L590.178 665.454C590.291 672.544 591.689 679.323 594.162 685.538Z" fill="#262626"/>
<path d="M647.683 651.048C648.997 651.105 650.255 651.345 651.441 651.797L667.944 612.082C661.671 609.568 654.832 608.17 647.683 608.057L647.683 651.048Z" fill="#262626"/>
<path d="M642.145 651.811C643.388 651.359 644.731 651.091 646.115 651.006L646.115 608C638.641 608.113 631.506 609.624 625.006 612.364L642.145 651.811Z" fill="#262626"/>
<path d="M634.515 658.774C635.08 657.616 635.801 656.542 636.648 655.582L606.214 625.202C601.41 630.174 597.482 635.965 594.741 642.391L634.515 658.774Z" fill="#262626"/>
<path d="M637.751 654.495C638.641 653.69 639.644 653.012 640.718 652.461L623.593 613.042C617.518 615.754 612.036 619.525 607.302 624.115L637.751 654.495Z" fill="#262626"/>
<path d="M660.103 667.982C660.004 668.378 659.99 668.844 659.863 669.197L699.622 685.58C701.812 680.086 703.112 674.154 703.451 667.982L660.103 667.982Z" fill="#262626"/>
<path d="M703.465 661.613C703.126 655.384 701.84 649.424 699.636 643.902L659.862 660.228C660.003 660.638 660.018 661.104 660.131 661.613L703.465 661.613Z" fill="#262626"/>
<path d="M711.814 663H807.739C808.994 642.675 817.178 628 830.678 617.077L690.678 617C706.178 633 710.559 642.642 711.814 663Z" fill="#9D072B"/>
<path d="M711.781 669.59C711.301 680.387 708.306 690.568 703.148 699.449H816.606C811.463 690.582 808.467 680.387 807.987 669.59H711.781Z" fill="#9D072B"/>
<rect x="711.178" y="662" width="98" height="7" fill="#C4C4C4"/>
<circle cx="277.178" cy="667" r="65" fill="#C4C4C4"/>
<circle cx="502.178" cy="667" r="65" fill="#C4C4C4"/>
<path d="M450.404 645.035L490.192 661.418C490.743 660.26 491.478 659.215 492.326 658.227L461.891 627.875C457.087 632.776 453.159 638.581 450.404 645.035Z" fill="#262626"/>
<path d="M492.356 676.502C491.494 675.57 490.759 674.454 490.194 673.268L450.392 689.623L450.166 689.1C452.949 695.809 456.99 701.811 461.978 706.952L492.356 676.502Z" fill="#262626"/>
<path d="M496.593 679.736C495.449 679.157 494.389 678.437 493.442 677.632L463.064 708.068C467.981 712.814 473.704 716.683 480.076 719.466L496.593 679.736Z" fill="#262626"/>
<path d="M525.063 615.277L508.561 655.006C509.705 655.529 510.751 656.249 511.697 657.096L542.061 626.646C537.158 621.915 531.436 618.017 525.063 615.277Z" fill="#262626"/>
<path d="M555.032 645.685C552.235 638.934 548.208 632.903 543.178 627.734L512.814 658.184C513.69 659.13 514.411 660.246 514.976 661.404L554.764 645.049L555.032 645.685Z" fill="#262626"/>
<path d="M503.346 653.665C504.66 653.75 505.931 653.99 507.118 654.413L523.621 614.698C517.334 612.17 510.509 610.772 503.346 610.673V653.665Z" fill="#262626"/>
<path d="M480.686 615.023L497.824 654.498C499.082 654.032 500.41 653.75 501.795 653.665V610.673C494.123 610.8 486.804 612.382 480.135 615.263L480.686 615.023Z" fill="#262626"/>
<path d="M493.429 657.139C494.319 656.306 495.336 655.67 496.396 655.119L479.271 615.644C473.196 618.398 467.7 622.127 462.98 626.703L493.429 657.139Z" fill="#262626"/>
<path d="M516.276 668.141C516.205 669.44 515.951 670.655 515.541 671.841L555.3 688.239C557.773 682.025 559.186 675.245 559.299 668.169L516.276 668.141Z" fill="#262626"/>
<path d="M555.315 646.532L515.541 662.873C515.951 664.031 516.191 665.288 516.276 666.588L559.299 666.616C559.186 659.526 557.787 652.747 555.315 646.532Z" fill="#262626"/>
<path d="M501.793 681.022C500.478 680.966 499.221 680.725 498.034 680.273L481.531 719.988C487.805 722.502 494.643 723.901 501.793 724.014V681.022Z" fill="#262626"/>
<path d="M507.332 680.259C506.088 680.711 504.746 680.98 503.361 681.064V724.07C510.836 723.957 517.971 722.446 524.47 719.706L507.332 680.259Z" fill="#262626"/>
<path d="M514.96 673.296C514.395 674.455 513.674 675.528 512.826 676.488L543.26 706.868C548.064 701.896 551.992 696.106 554.733 689.68L514.96 673.296Z" fill="#262626"/>
<path d="M511.725 677.576C510.835 678.381 509.832 679.059 508.758 679.61L525.882 719.028C531.958 716.316 537.44 712.545 542.173 707.955L511.725 677.576Z" fill="#262626"/>
<path d="M225.709 645.035L265.497 661.418C266.062 660.26 266.782 659.215 267.63 658.227L237.182 627.875C232.392 632.776 228.45 638.581 225.709 645.035Z" fill="#262626"/>
<path d="M264.167 666.573C264.238 665.26 264.492 664.003 264.902 662.873L225.143 646.49C222.67 652.69 221.271 659.455 221.158 666.531L264.167 666.573Z" fill="#262626"/>
<path d="M225.114 688.168L264.902 671.841C264.492 670.655 264.238 669.426 264.167 668.113L221.158 668.084C221.257 675.174 222.656 681.954 225.114 688.168Z" fill="#262626"/>
<path d="M267.645 676.502C266.769 675.57 266.048 674.454 265.483 673.268L225.681 689.623L225.455 689.1C228.239 695.809 232.279 701.811 237.267 706.952L267.645 676.502Z" fill="#262626"/>
<path d="M271.896 679.736C270.751 679.157 269.706 678.437 268.745 677.632L238.367 708.068C243.27 712.814 249.021 716.683 255.379 719.466L271.896 679.736Z" fill="#262626"/>
<path d="M300.367 615.277L283.85 655.006C284.994 655.529 286.054 656.249 287 657.096L317.364 626.646C312.461 621.915 306.725 618.017 300.367 615.277Z" fill="#262626"/>
<path d="M330.307 645.685C327.538 638.934 323.483 632.903 318.467 627.734L288.104 658.184C288.965 659.13 289.686 660.246 290.265 661.404L330.053 645.049L330.307 645.685Z" fill="#262626"/>
<path d="M278.65 653.665C279.964 653.75 281.222 653.99 282.409 654.413L298.912 614.698C292.638 612.17 285.814 610.772 278.65 610.673V653.665Z" fill="#262626"/>
<path d="M255.987 615.023L273.125 654.498C274.383 654.032 275.711 653.75 277.11 653.665V610.673C269.423 610.8 262.105 612.382 255.436 615.263L255.987 615.023Z" fill="#262626"/>
<path d="M268.717 657.139C269.608 656.306 270.625 655.67 271.699 655.119L254.574 615.644C248.499 618.398 243.002 622.127 238.283 626.703L268.717 657.139Z" fill="#262626"/>
<path d="M277.096 681.022C275.782 680.966 274.51 680.725 273.323 680.273L256.82 719.988C263.108 722.502 269.932 723.901 277.096 724.014V681.022Z" fill="#262626"/>
<path d="M282.607 680.259C281.377 680.711 280.035 680.98 278.65 681.064V724.07C286.125 723.957 293.246 722.446 299.759 719.706L282.607 680.259Z" fill="#262626"/>
<path d="M290.251 673.296C289.686 674.455 288.965 675.528 288.117 676.488L318.551 706.868C323.355 701.896 327.297 696.106 330.038 689.68L290.251 673.296Z" fill="#262626"/>
<path d="M287.014 677.576C286.124 678.381 285.107 679.059 284.033 679.61L301.158 719.028C307.233 716.316 312.73 712.545 317.449 707.955L287.014 677.576Z" fill="#262626"/>
<path d="M489.374 664.088C489.473 663.692 489.487 663.226 489.614 662.873L449.854 646.49C447.664 651.984 446.364 657.916 446.025 664.088H489.374Z" fill="#262626"/>
<path d="M446.01 670.458C446.349 676.686 447.635 682.646 449.839 688.168L489.612 671.842C489.471 671.432 489.457 670.966 489.344 670.458H446.01Z" fill="#262626"/>
<path d="M342.98 664.088H439.03C440.287 637.903 456.07 615.531 478.521 604.925L303.291 604.826C325.855 615.418 341.722 637.86 342.98 664.088Z" fill="#9D072B"/>
<path d="M342.895 670.457C342.414 681.601 339.419 692.108 334.262 701.275H447.719C442.576 692.123 439.581 681.601 439.1 670.457H342.895Z" fill="#9D072B"/>
<path d="M291.099 670.458C291 670.924 290.971 671.418 290.83 671.842L330.575 688.239C332.78 682.674 334.094 676.728 334.419 670.458H291.099Z" fill="#262626"/>
<path d="M334.433 664.088C334.079 657.902 332.794 652.012 330.604 646.532L290.83 662.873C290.957 663.226 290.971 663.693 291.07 664.088H334.433Z" fill="#262626"/>
<rect x="339.178" y="664" width="102" height="7" fill="#C4C4C4"/>
<rect x="592.145" y="320.378" width="91.8914" height="6.20888" fill="#9D072B"/>
<rect x="373.592" y="320.378" width="90.6497" height="6.20888" rx="3.10444" fill="#9D072B"/>
<rect x="616.98" y="273.191" width="39.7368" height="16.1431" fill="#9D072B"/>
<path d="M432.04 23.0182C423.114 23.0182 414.758 25.5651 407.66 29.9078C407.66 29.4542 407.711 29.019 407.711 28.5654C407.711 12.7958 394.915 0 379.166 0C366.263 0 355.382 8.51766 351.83 20.2821C343.628 16.991 334.646 15.1418 325.286 15.1418C293.868 15.1418 267.253 35.404 257.603 63.5292C244.328 66.0761 234.274 77.7371 234.274 91.7523C234.274 101.93 239.577 110.886 247.594 115.995C237.702 121.032 230.961 131.26 230.961 143.09C230.961 145.366 231.2 147.556 231.68 149.689C231.441 149.669 231.2 149.593 230.961 149.593C221.096 149.593 213.083 157.611 213.083 167.476C213.083 177.341 221.096 185.339 230.961 185.339C239.724 185.339 247.018 178.974 248.508 170.624C252.422 172.496 256.792 173.548 261.376 173.548C270.617 173.548 278.851 169.419 284.465 162.917C288.859 169.496 296.321 173.839 304.843 173.839C315.24 173.839 324.069 167.358 327.672 158.237C353.762 157.369 376.323 142.63 388.1 121.082C392.499 124.777 398.088 127.08 404.258 127.08C412.828 127.08 420.316 122.809 424.853 116.281C427.205 116.663 429.604 116.904 432.05 116.904C457.972 116.904 479.029 95.8762 479.029 69.954C479.023 44.0417 457.965 23.017 432.041 23.017L432.04 23.0182Z" fill="#C4C4C4"/>
</svg>
