<svg width="5317" height="812" viewBox="0 0 5317 812" fill="none" xmlns="http://www.w3.org/2000/svg">
<g filter="url(#filter0_d_30_6521)">
<path d="M466.04 57.0182C457.114 57.0182 448.758 59.5651 441.66 63.9078C441.66 63.4542 441.711 63.019 441.711 62.5654C441.711 46.7958 428.915 34 413.166 34C400.263 34 389.382 42.5177 385.83 54.2821C377.628 50.991 368.646 49.1418 359.286 49.1418C327.868 49.1418 301.253 69.404 291.603 97.5292C278.328 100.076 268.274 111.737 268.274 125.752C268.274 135.93 273.577 144.886 281.594 149.995C271.702 155.032 264.961 165.26 264.961 177.09C264.961 179.366 265.2 181.556 265.68 183.689C265.441 183.669 265.2 183.593 264.961 183.593C255.096 183.593 247.083 191.611 247.083 201.476C247.083 211.341 255.096 219.339 264.961 219.339C273.724 219.339 281.018 212.974 282.508 204.624C286.422 206.496 290.792 207.548 295.376 207.548C304.617 207.548 312.851 203.419 318.465 196.917C322.859 203.496 330.321 207.839 338.843 207.839C349.24 207.839 358.069 201.358 361.672 192.237C387.762 191.369 410.323 176.63 422.1 155.082C426.499 158.777 432.088 161.08 438.258 161.08C446.828 161.08 454.316 156.809 458.853 150.281C461.205 150.663 463.604 150.904 466.05 150.904C491.972 150.904 513.029 129.876 513.029 103.954C513.023 78.0417 491.965 57.017 466.041 57.017L466.04 57.0182Z" fill="#C4C4C4"/>
<rect x="650.98" y="307.191" width="39.7368" height="16.1431" fill="#9D072B"/>
<rect x="626.145" y="354.378" width="91.8914" height="6.20888" fill="#9D072B"/>
<rect x="407.592" y="354.378" width="90.6497" height="6.20888" rx="3.10444" fill="#9D072B"/>
<path d="M1219.18 718.574C1219.18 717.306 1219.18 716.039 1219.18 714.772H1175.01V671.69H1220.44V704.635C1224.23 694.498 1230.54 686.896 1239.37 681.827H1230.54V661.553H1217.92V655.218H1176.27V543.711C1176.27 529.773 1187.63 518.369 1201.51 518.369H1217.92V376.452H2136.7V519.636H2154.37C2168.25 519.636 2179.61 531.04 2179.61 544.978V656.485H2135.43V661.553V662.82H2122.81V683.094H2113.98C2122.81 688.163 2129.12 695.765 2132.91 705.902V672.957H2178.34V716.039H2135.43C2135.43 717.306 2135.43 718.574 2135.43 719.841C2135.43 743.916 2116.5 762.923 2092.53 762.923C2069.81 762.923 2050.88 745.183 2049.62 722.375H2011.75C2010.49 745.183 1992.82 762.923 1968.84 762.923C1944.86 762.923 1925.93 743.916 1925.93 719.841C1925.93 703.368 1936.03 689.43 1948.65 681.827V662.82H1937.29L1866.62 713.505C1865.35 714.772 1862.83 714.772 1861.57 714.772H1477.9C1475.38 714.772 1474.12 714.772 1472.86 713.505L1403.44 664.088V681.827C1417.32 689.43 1426.16 703.368 1426.16 719.841C1426.16 743.916 1407.23 762.923 1383.25 762.923C1360.53 762.923 1341.6 745.183 1340.34 722.375H1302.48C1301.22 745.183 1283.55 762.923 1259.57 762.923C1238.11 761.656 1219.18 742.649 1219.18 718.574ZM1274.71 718.574C1274.71 710.971 1268.4 704.635 1260.83 704.635C1253.26 704.635 1246.95 710.971 1246.95 718.574C1246.95 726.176 1253.26 732.512 1260.83 732.512C1268.4 733.779 1274.71 727.443 1274.71 718.574ZM1398.39 718.574C1398.39 710.971 1392.08 704.635 1384.51 704.635C1376.94 704.635 1370.63 710.971 1370.63 718.574C1370.63 726.176 1376.94 732.512 1384.51 732.512C1392.08 733.779 1398.39 727.443 1398.39 718.574ZM1986.51 718.574C1986.51 710.971 1980.2 704.635 1972.63 704.635C1965.06 704.635 1958.75 710.971 1958.75 718.574C1958.75 726.176 1965.06 732.512 1972.63 732.512C1980.2 733.779 1986.51 727.443 1986.51 718.574ZM2110.19 718.574C2110.19 710.971 2103.88 704.635 2096.31 704.635C2088.74 704.635 2082.43 710.971 2082.43 718.574C2082.43 726.176 2088.74 732.512 2096.31 732.512C2103.88 733.779 2110.19 727.443 2110.19 718.574ZM1633.14 695.766V662.82H1433.73L1480.43 695.766H1633.14ZM1727.79 695.766V662.82H1652.07V695.766H1727.79ZM1862.83 695.766L1909.53 662.82H1746.72V695.766H1862.83ZM1303.74 690.697V683.094H1283.55C1287.33 685.629 1289.86 688.163 1293.64 690.697H1303.74ZM1363.06 683.094H1331.5V690.697H1354.22C1355.48 686.896 1359.27 684.361 1363.06 683.094ZM2025.64 690.697V683.094H1994.08C1997.87 685.629 2000.39 688.163 2004.18 690.697H2025.64ZM2074.86 683.094H2054.66V690.697H2066.02C2067.28 686.896 2071.07 684.361 2074.86 683.094ZM2007.97 640.012V392.924H1991.56V640.012H2007.97ZM1219.18 618.471V537.376H1202.78C1198.99 537.376 1196.46 539.91 1196.46 543.711V617.204H1219.18V618.471ZM2163.2 618.471V544.978C2163.2 541.177 2160.68 538.643 2156.89 538.643H2139.22V619.738H2163.2V618.471ZM1413.54 495.561V453.746H1262.09V495.561C1262.09 503.163 1268.4 509.499 1275.97 509.499H1399.66C1407.23 509.499 1413.54 503.163 1413.54 495.561ZM1594.01 495.561V453.746H1442.57V495.561C1442.57 503.163 1448.88 509.499 1456.45 509.499H1580.13C1587.7 509.499 1594.01 503.163 1594.01 495.561ZM1773.22 495.561V453.746H1621.78V495.561C1621.78 503.163 1628.09 509.499 1635.66 509.499H1759.34C1766.91 509.499 1773.22 503.163 1773.22 495.561ZM1953.7 495.561V453.746H1802.25V495.561C1802.25 503.163 1808.56 509.499 1816.13 509.499H1939.82C1947.39 509.499 1953.7 503.163 1953.7 495.561ZM2097.57 495.561V425.869C2097.57 418.266 2091.26 411.931 2083.69 411.931H2057.19C2049.62 411.931 2043.3 418.266 2043.3 425.869V495.561C2043.3 503.163 2049.62 509.499 2057.19 509.499H2084.95C2091.26 509.499 2097.57 503.163 2097.57 495.561ZM1413.54 439.807V425.869C1413.54 418.266 1407.23 411.931 1399.66 411.931H1275.97C1268.4 411.931 1262.09 418.266 1262.09 425.869V439.807H1413.54ZM1594.01 439.807V425.869C1594.01 418.266 1587.7 411.931 1580.13 411.931H1456.45C1448.88 411.931 1442.57 418.266 1442.57 425.869V439.807H1594.01ZM1773.22 439.807V425.869C1773.22 418.266 1766.91 411.931 1759.34 411.931H1635.66C1628.09 411.931 1621.78 418.266 1621.78 425.869V439.807H1773.22ZM1953.7 439.807V425.869C1953.7 418.266 1947.39 411.931 1939.82 411.931H1816.13C1808.56 411.931 1802.25 418.266 1802.25 425.869V439.807H1953.7ZM1219.18 356.178V328.301H2137.96V356.178H1219.18Z" fill="#262626"/>
<path d="M2243.59 721.057C2243.59 719.79 2243.59 718.523 2243.59 717.256H2199.48V674.174H2244.85V707.119C2248.63 696.982 2254.94 689.379 2263.76 684.311H2254.94V664.037H2242.33V657.701H2200.74V546.195C2200.74 532.256 2212.08 520.852 2225.95 520.852H2242.33V378.935H3159.97V522.12H3177.62C3191.49 522.12 3202.83 533.524 3202.83 547.462V658.968H3158.71V664.037V665.304H3146.11V685.578H3137.29C3146.11 690.646 3152.41 698.249 3156.19 708.386V675.441H3201.57V718.523H3158.71C3158.71 719.79 3158.71 721.057 3158.71 722.324C3158.71 746.399 3139.81 765.406 3115.86 765.406C3093.17 765.406 3074.26 747.667 3073 724.858H3035.18C3033.92 747.667 3016.28 765.406 2992.33 765.406C2968.38 765.406 2949.47 746.399 2949.47 722.324C2949.47 705.852 2959.56 691.913 2972.16 684.311V665.304H2960.82L2890.23 715.989C2888.97 717.256 2886.45 717.256 2885.19 717.256H2501.99C2499.47 717.256 2498.21 717.256 2496.95 715.989L2427.63 666.571V684.311C2441.49 691.913 2450.31 705.852 2450.31 722.324C2450.31 746.399 2431.41 765.406 2407.46 765.406C2384.77 765.406 2365.86 747.667 2364.6 724.858H2326.79C2325.53 747.667 2307.88 765.406 2283.93 765.406C2262.5 764.139 2243.59 745.132 2243.59 721.057ZM2299.05 721.057C2299.05 713.454 2292.75 707.119 2285.19 707.119C2277.63 707.119 2271.32 713.454 2271.32 721.057C2271.32 728.66 2277.63 734.995 2285.19 734.995C2292.75 736.263 2299.05 729.927 2299.05 721.057ZM2422.58 721.057C2422.58 713.454 2416.28 707.119 2408.72 707.119C2401.16 707.119 2394.85 713.454 2394.85 721.057C2394.85 728.66 2401.16 734.995 2408.72 734.995C2416.28 736.263 2422.58 729.927 2422.58 721.057ZM3009.97 721.057C3009.97 713.454 3003.67 707.119 2996.11 707.119C2988.55 707.119 2982.24 713.454 2982.24 721.057C2982.24 728.66 2988.55 734.995 2996.11 734.995C3003.67 736.263 3009.97 729.927 3009.97 721.057ZM3133.5 721.057C3133.5 713.454 3127.2 707.119 3119.64 707.119C3112.08 707.119 3105.77 713.454 3105.77 721.057C3105.77 728.66 3112.08 734.995 3119.64 734.995C3127.2 736.263 3133.5 729.927 3133.5 721.057ZM2657.04 698.249V665.304H2457.88L2504.52 698.249H2657.04ZM2751.57 698.249V665.304H2675.94V698.249H2751.57ZM2886.45 698.249L2933.08 665.304H2770.48V698.249H2886.45ZM2328.05 693.181V685.578H2307.88C2311.66 688.112 2314.18 690.646 2317.96 693.181H2328.05ZM2387.29 685.578H2355.78V693.181H2378.47C2379.73 689.379 2383.51 686.845 2387.29 685.578ZM3049.05 693.181V685.578H3017.54C3021.32 688.112 3023.84 690.646 3027.62 693.181H3049.05ZM3098.21 685.578H3078.04V693.181H3089.39C3090.65 689.379 3094.43 686.845 3098.21 685.578ZM3031.4 642.496V395.408H3015.02V642.496H3031.4ZM2243.59 620.955V539.859H2227.21C2223.43 539.859 2220.9 542.393 2220.9 546.195V619.688H2243.59V620.955ZM3186.44 620.955V547.462C3186.44 543.661 3183.92 541.126 3180.14 541.126H3162.49V622.222H3186.44V620.955ZM2437.71 498.044V456.229H2286.45V498.044C2286.45 505.647 2292.75 511.982 2300.32 511.982H2423.84C2431.41 511.982 2437.71 505.647 2437.71 498.044ZM2617.96 498.044V456.229H2466.7V498.044C2466.7 505.647 2473 511.982 2480.57 511.982H2604.09C2611.66 511.982 2617.96 505.647 2617.96 498.044ZM2796.95 498.044V456.229H2645.69V498.044C2645.69 505.647 2651.99 511.982 2659.56 511.982H2783.09C2790.65 511.982 2796.95 505.647 2796.95 498.044ZM2977.2 498.044V456.229H2825.94V498.044C2825.94 505.647 2832.24 511.982 2839.81 511.982H2963.34C2970.9 511.982 2977.2 505.647 2977.2 498.044ZM3120.9 498.044V428.353C3120.9 420.75 3114.6 414.414 3107.03 414.414H3080.56C3073 414.414 3066.7 420.75 3066.7 428.353V498.044C3066.7 505.647 3073 511.982 3080.56 511.982H3108.29C3114.6 511.982 3120.9 505.647 3120.9 498.044ZM2437.71 442.291V428.353C2437.71 420.75 2431.41 414.414 2423.84 414.414H2300.32C2292.75 414.414 2286.45 420.75 2286.45 428.353V442.291H2437.71ZM2617.96 442.291V428.353C2617.96 420.75 2611.66 414.414 2604.09 414.414H2480.57C2473 414.414 2466.7 420.75 2466.7 428.353V442.291H2617.96ZM2796.95 442.291V428.353C2796.95 420.75 2790.65 414.414 2783.09 414.414H2659.56C2651.99 414.414 2645.69 420.75 2645.69 428.353V442.291H2796.95ZM2977.2 442.291V428.353C2977.2 420.75 2970.9 414.414 2963.34 414.414H2839.81C2832.24 414.414 2825.94 420.75 2825.94 428.353V442.291H2977.2ZM2243.59 358.661V330.785H3161.23V358.661H2243.59Z" fill="#262626"/>
<path d="M3278.1 721.057C3278.1 719.79 3278.1 718.523 3278.1 717.256H3233.88V674.174H3279.37V707.119C3283.16 696.982 3289.47 689.379 3298.32 684.311H3289.47V664.037H3276.84V657.701H3235.14V546.195C3235.14 532.256 3246.51 520.852 3260.41 520.852H3276.84V378.935H4196.75V522.12H4214.44C4228.34 522.12 4239.71 533.524 4239.71 547.462V658.968H4195.49V664.037V665.304H4182.85V685.578H4174.01C4182.85 690.646 4189.17 698.249 4192.96 708.386V675.441H4238.45V718.523H4195.49C4195.49 719.79 4195.49 721.057 4195.49 722.324C4195.49 746.399 4176.53 765.406 4152.52 765.406C4129.78 765.406 4110.82 747.667 4109.56 724.858H4071.65C4070.39 747.667 4052.7 765.406 4028.69 765.406C4004.68 765.406 3985.73 746.399 3985.73 722.324C3985.73 705.852 3995.84 691.913 4008.47 684.311V665.304H3997.1L3926.34 715.989C3925.07 717.256 3922.55 717.256 3921.28 717.256H3537.14C3534.62 717.256 3533.35 717.256 3532.09 715.989L3462.59 666.571V684.311C3476.49 691.913 3485.33 705.852 3485.33 722.324C3485.33 746.399 3466.38 765.406 3442.37 765.406C3419.63 765.406 3400.67 747.667 3399.41 724.858H3361.5C3360.24 747.667 3342.55 765.406 3318.54 765.406C3297.06 764.139 3278.1 745.132 3278.1 721.057ZM3333.7 721.057C3333.7 713.454 3327.38 707.119 3319.8 707.119C3312.22 707.119 3305.9 713.454 3305.9 721.057C3305.9 728.66 3312.22 734.995 3319.8 734.995C3327.38 736.263 3333.7 729.927 3333.7 721.057ZM3457.54 721.057C3457.54 713.454 3451.22 707.119 3443.64 707.119C3436.05 707.119 3429.74 713.454 3429.74 721.057C3429.74 728.66 3436.05 734.995 3443.64 734.995C3451.22 736.263 3457.54 729.927 3457.54 721.057ZM4046.38 721.057C4046.38 713.454 4040.06 707.119 4032.48 707.119C4024.9 707.119 4018.58 713.454 4018.58 721.057C4018.58 728.66 4024.9 734.995 4032.48 734.995C4040.06 736.263 4046.38 729.927 4046.38 721.057ZM4170.21 721.057C4170.21 713.454 4163.9 707.119 4156.32 707.119C4148.73 707.119 4142.42 713.454 4142.42 721.057C4142.42 728.66 4148.73 734.995 4156.32 734.995C4163.9 736.263 4170.21 729.927 4170.21 721.057ZM3692.57 698.249V665.304H3492.92L3539.67 698.249H3692.57ZM3787.34 698.249V665.304H3711.52V698.249H3787.34ZM3922.55 698.249L3969.3 665.304H3806.29V698.249H3922.55ZM3362.76 693.181V685.578H3342.55C3346.34 688.112 3348.86 690.646 3352.65 693.181H3362.76ZM3422.15 685.578H3390.56V693.181H3413.31C3414.57 689.379 3418.36 686.845 3422.15 685.578ZM4085.55 693.181V685.578H4053.96C4057.75 688.112 4060.28 690.646 4064.07 693.181H4085.55ZM4134.83 685.578H4114.62V693.181H4125.99C4127.25 689.379 4131.04 686.845 4134.83 685.578ZM4067.86 642.496V395.408H4051.43V642.496H4067.86ZM3278.1 620.955V539.859H3261.67C3257.88 539.859 3255.36 542.393 3255.36 546.195V619.688H3278.1V620.955ZM4223.29 620.955V547.462C4223.29 543.661 4220.76 541.126 4216.97 541.126H4199.28V622.222H4223.29V620.955ZM3472.7 498.044V456.229H3321.06V498.044C3321.06 505.647 3327.38 511.982 3334.96 511.982H3458.8C3466.38 511.982 3472.7 505.647 3472.7 498.044ZM3653.4 498.044V456.229H3501.76V498.044C3501.76 505.647 3508.08 511.982 3515.66 511.982H3639.5C3647.08 511.982 3653.4 505.647 3653.4 498.044ZM3832.83 498.044V456.229H3681.2V498.044C3681.2 505.647 3687.51 511.982 3695.1 511.982H3818.93C3826.51 511.982 3832.83 505.647 3832.83 498.044ZM4013.53 498.044V456.229H3861.89V498.044C3861.89 505.647 3868.21 511.982 3875.79 511.982H3999.63C4007.21 511.982 4013.53 505.647 4013.53 498.044ZM4157.58 498.044V428.353C4157.58 420.75 4151.26 414.414 4143.68 414.414H4117.14C4109.56 414.414 4103.24 420.75 4103.24 428.353V498.044C4103.24 505.647 4109.56 511.982 4117.14 511.982H4144.94C4151.26 511.982 4157.58 505.647 4157.58 498.044ZM3472.7 442.291V428.353C3472.7 420.75 3466.38 414.414 3458.8 414.414H3334.96C3327.38 414.414 3321.06 420.75 3321.06 428.353V442.291H3472.7ZM3653.4 442.291V428.353C3653.4 420.75 3647.08 414.414 3639.5 414.414H3515.66C3508.08 414.414 3501.76 420.75 3501.76 428.353V442.291H3653.4ZM3832.83 442.291V428.353C3832.83 420.75 3826.51 414.414 3818.93 414.414H3695.1C3687.51 414.414 3681.2 420.75 3681.2 428.353V442.291H3832.83ZM4013.53 442.291V428.353C4013.53 420.75 4007.21 414.414 3999.63 414.414H3875.79C3868.21 414.414 3861.89 420.75 3861.89 428.353V442.291H4013.53ZM3278.1 358.661V330.785H4198.01V358.661H3278.1Z" fill="#262626"/>
<path d="M4311.15 721.057C4311.15 719.79 4311.15 718.523 4311.15 717.256H4267.03V674.174H4312.41V707.119C4316.19 696.982 4322.5 689.379 4331.32 684.311H4322.5V664.037H4309.89V657.701H4268.29V546.195C4268.29 532.256 4279.64 520.852 4293.5 520.852H4309.89V378.935H5227.53V522.12H5245.18C5259.04 522.12 5270.39 533.524 5270.39 547.462V658.968H5226.27V664.037V665.304H5213.67V685.578H5204.84C5213.67 690.646 5219.97 698.249 5223.75 708.386V675.441H5269.13V718.523H5226.27C5226.27 719.79 5226.27 721.057 5226.27 722.324C5226.27 746.399 5207.36 765.406 5183.41 765.406C5160.73 765.406 5141.82 747.667 5140.56 724.858H5102.74C5101.48 747.667 5083.84 765.406 5059.89 765.406C5035.94 765.406 5017.03 746.399 5017.03 722.324C5017.03 705.852 5027.11 691.913 5039.72 684.311V665.304H5028.37L4957.79 715.989C4956.52 717.256 4954 717.256 4952.74 717.256H4569.55C4567.03 717.256 4565.77 717.256 4564.51 715.989L4495.18 666.571V684.311C4509.05 691.913 4517.87 705.852 4517.87 722.324C4517.87 746.399 4498.96 765.406 4475.02 765.406C4452.33 765.406 4433.42 747.667 4432.16 724.858H4394.34C4393.08 747.667 4375.44 765.406 4351.49 765.406C4330.06 764.139 4311.15 745.132 4311.15 721.057ZM4366.61 721.057C4366.61 713.454 4360.31 707.119 4352.75 707.119C4345.18 707.119 4338.88 713.454 4338.88 721.057C4338.88 728.66 4345.18 734.995 4352.75 734.995C4360.31 736.263 4366.61 729.927 4366.61 721.057ZM4490.14 721.057C4490.14 713.454 4483.84 707.119 4476.28 707.119C4468.71 707.119 4462.41 713.454 4462.41 721.057C4462.41 728.66 4468.71 734.995 4476.28 734.995C4483.84 736.263 4490.14 729.927 4490.14 721.057ZM5077.53 721.057C5077.53 713.454 5071.23 707.119 5063.67 707.119C5056.1 707.119 5049.8 713.454 5049.8 721.057C5049.8 728.66 5056.1 734.995 5063.67 734.995C5071.23 736.263 5077.53 729.927 5077.53 721.057ZM5201.06 721.057C5201.06 713.454 5194.76 707.119 5187.2 707.119C5179.63 707.119 5173.33 713.454 5173.33 721.057C5173.33 728.66 5179.63 734.995 5187.2 734.995C5194.76 736.263 5201.06 729.927 5201.06 721.057ZM4724.59 698.249V665.304H4525.44L4572.07 698.249H4724.59ZM4819.13 698.249V665.304H4743.5V698.249H4819.13ZM4954 698.249L5000.64 665.304H4838.04V698.249H4954ZM4395.6 693.181V685.578H4375.44C4379.22 688.112 4381.74 690.646 4385.52 693.181H4395.6ZM4454.85 685.578H4423.33V693.181H4446.02C4447.28 689.379 4451.07 686.845 4454.85 685.578ZM5116.61 693.181V685.578H5085.1C5088.88 688.112 5091.4 690.646 5095.18 693.181H5116.61ZM5165.77 685.578H5145.6V693.181H5156.94C5158.2 689.379 5161.99 686.845 5165.77 685.578ZM5098.96 642.496V395.408H5082.57V642.496H5098.96ZM4311.15 620.955V539.859H4294.76C4290.98 539.859 4288.46 542.393 4288.46 546.195V619.688H4311.15V620.955ZM5254 620.955V547.462C5254 543.661 5251.48 541.126 5247.7 541.126H5230.05V622.222H5254V620.955ZM4505.27 498.044V456.229H4354.01V498.044C4354.01 505.647 4360.31 511.982 4367.87 511.982H4491.4C4498.96 511.982 4505.27 505.647 4505.27 498.044ZM4685.52 498.044V456.229H4534.26V498.044C4534.26 505.647 4540.56 511.982 4548.12 511.982H4671.65C4679.22 511.982 4685.52 505.647 4685.52 498.044ZM4864.51 498.044V456.229H4713.25V498.044C4713.25 505.647 4719.55 511.982 4727.11 511.982H4850.64C4858.21 511.982 4864.51 505.647 4864.51 498.044ZM5044.76 498.044V456.229H4893.5V498.044C4893.5 505.647 4899.8 511.982 4907.37 511.982H5030.89C5038.46 511.982 5044.76 505.647 5044.76 498.044ZM5188.46 498.044V428.353C5188.46 420.75 5182.15 414.414 5174.59 414.414H5148.12C5140.56 414.414 5134.26 420.75 5134.26 428.353V498.044C5134.26 505.647 5140.56 511.982 5148.12 511.982H5175.85C5182.15 511.982 5188.46 505.647 5188.46 498.044ZM4505.27 442.291V428.353C4505.27 420.75 4498.96 414.414 4491.4 414.414H4367.87C4360.31 414.414 4354.01 420.75 4354.01 428.353V442.291H4505.27ZM4685.52 442.291V428.353C4685.52 420.75 4679.22 414.414 4671.65 414.414H4548.12C4540.56 414.414 4534.26 420.75 4534.26 428.353V442.291H4685.52ZM4864.51 442.291V428.353C4864.51 420.75 4858.21 414.414 4850.64 414.414H4727.11C4719.55 414.414 4713.25 420.75 4713.25 428.353V442.291H4864.51ZM5044.76 442.291V428.353C5044.76 420.75 5038.46 414.414 5030.89 414.414H4907.37C4899.8 414.414 4893.5 420.75 4893.5 428.353V442.291H5044.76ZM4311.15 358.661V330.785H5228.79V358.661H4311.15Z" fill="#262626"/>
<path d="M1112.92 628.811H1181.22V653.646H1112.92V628.811Z" fill="#9D072B"/>
<path d="M2158 631H2227.54V657.077H2158V631Z" fill="#9D072B"/>
<path d="M3181.72 631.294H3247.53V657.372H3181.72V631.294Z" fill="#262626"/>
<path d="M4212.39 631.294H4280.69V657.372H4212.39V631.294Z" fill="#262626"/>
<g filter="url(#filter1_d_30_6521)">
<rect x="1398" y="546" width="462" height="68" rx="15" fill="#C4C4C4"/>
</g>
<g filter="url(#filter2_d_30_6521)">
<path d="M1465.12 589.82V599.662H1460.56V594H1439.59L1439.55 599.662H1434.99L1435.03 589.82H1438.26V578.914C1438.26 576.381 1438.74 574.227 1439.7 572.454C1440.69 570.681 1442.07 569.338 1443.84 568.426C1445.62 567.489 1447.68 567.02 1450.04 567.02C1452.42 567.02 1454.49 567.476 1456.27 568.388C1458.04 569.3 1459.41 570.655 1460.37 572.454C1461.36 574.227 1461.85 576.381 1461.85 578.914V589.82H1465.12ZM1456.91 589.82V578.458C1456.91 576.127 1456.31 574.367 1455.09 573.176C1453.87 571.96 1452.19 571.352 1450.04 571.352C1447.88 571.352 1446.2 571.96 1444.98 573.176C1443.79 574.367 1443.2 576.127 1443.2 578.458V589.82H1456.91ZM1488.52 573.708V594H1484V591.416C1483.24 592.328 1482.29 593.037 1481.15 593.544C1480.03 594.025 1478.82 594.266 1477.5 594.266C1474.79 594.266 1472.65 593.519 1471.08 592.024C1469.51 590.504 1468.72 588.262 1468.72 585.298V573.708H1473.47V584.652C1473.47 586.476 1473.88 587.844 1474.69 588.756C1475.52 589.643 1476.71 590.086 1478.26 590.086C1479.93 590.086 1481.26 589.567 1482.25 588.528C1483.26 587.464 1483.77 585.944 1483.77 583.968V573.708H1488.52ZM1494.93 573.708H1499.68V581.954H1509.91V573.708H1514.66V594H1509.91V585.982H1499.68V594H1494.93V573.708ZM1540.78 573.708V594H1536.26V591.378C1535.47 592.341 1534.5 593.063 1533.33 593.544C1532.19 594.025 1530.93 594.266 1529.53 594.266C1527.56 594.266 1525.78 593.835 1524.21 592.974C1522.67 592.113 1521.45 590.897 1520.57 589.326C1519.7 587.755 1519.27 585.931 1519.27 583.854C1519.27 581.777 1519.7 579.965 1520.57 578.42C1521.45 576.849 1522.67 575.633 1524.21 574.772C1525.78 573.911 1527.56 573.48 1529.53 573.48C1530.85 573.48 1532.05 573.708 1533.14 574.164C1534.26 574.62 1535.22 575.291 1536.03 576.178V573.708H1540.78ZM1530.07 590.2C1531.81 590.2 1533.26 589.617 1534.4 588.452C1535.54 587.287 1536.11 585.754 1536.11 583.854C1536.11 581.954 1535.54 580.421 1534.4 579.256C1533.26 578.091 1531.81 577.508 1530.07 577.508C1528.32 577.508 1526.87 578.091 1525.73 579.256C1524.62 580.421 1524.06 581.954 1524.06 583.854C1524.06 585.754 1524.62 587.287 1525.73 588.452C1526.87 589.617 1528.32 590.2 1530.07 590.2ZM1556.31 594.266C1554.2 594.266 1552.32 593.823 1550.64 592.936C1548.97 592.049 1547.67 590.821 1546.73 589.25C1545.79 587.654 1545.32 585.855 1545.32 583.854C1545.32 581.853 1545.79 580.067 1546.73 578.496C1547.67 576.925 1548.96 575.697 1550.61 574.81C1552.28 573.923 1554.18 573.48 1556.31 573.48C1558.31 573.48 1560.06 573.885 1561.55 574.696C1563.07 575.507 1564.21 576.672 1564.97 578.192L1561.32 580.32C1560.74 579.383 1560.01 578.686 1559.12 578.23C1558.26 577.749 1557.31 577.508 1556.27 577.508C1554.5 577.508 1553.03 578.091 1551.86 579.256C1550.7 580.396 1550.11 581.929 1550.11 583.854C1550.11 585.779 1550.68 587.325 1551.82 588.49C1552.99 589.63 1554.47 590.2 1556.27 590.2C1557.31 590.2 1558.26 589.972 1559.12 589.516C1560.01 589.035 1560.74 588.325 1561.32 587.388L1564.97 589.516C1564.19 591.036 1563.03 592.214 1561.51 593.05C1560.02 593.861 1558.28 594.266 1556.31 594.266ZM1594.76 573.48C1597.32 573.48 1599.35 574.227 1600.84 575.722C1602.34 577.191 1603.09 579.408 1603.09 582.372V594H1598.34V582.98C1598.34 581.207 1597.94 579.877 1597.16 578.99C1596.37 578.078 1595.25 577.622 1593.78 577.622C1592.18 577.622 1590.9 578.154 1589.94 579.218C1588.98 580.257 1588.49 581.751 1588.49 583.702V594H1583.74V582.98C1583.74 581.207 1583.35 579.877 1582.57 578.99C1581.78 578.078 1580.65 577.622 1579.18 577.622C1577.56 577.622 1576.27 578.141 1575.31 579.18C1574.37 580.219 1573.9 581.726 1573.9 583.702V594H1569.15V573.708H1573.67V576.292C1574.43 575.38 1575.38 574.683 1576.52 574.202C1577.66 573.721 1578.93 573.48 1580.32 573.48C1581.84 573.48 1583.19 573.771 1584.35 574.354C1585.54 574.911 1586.48 575.747 1587.16 576.862C1588 575.798 1589.08 574.975 1590.39 574.392C1591.71 573.784 1593.17 573.48 1594.76 573.48ZM1608.93 573.708H1613.68V594H1608.93V573.708ZM1611.33 570.364C1610.47 570.364 1609.74 570.098 1609.16 569.566C1608.58 569.009 1608.29 568.325 1608.29 567.514C1608.29 566.703 1608.58 566.032 1609.16 565.5C1609.74 564.943 1610.47 564.664 1611.33 564.664C1612.19 564.664 1612.91 564.93 1613.49 565.462C1614.08 565.969 1614.37 566.615 1614.37 567.4C1614.37 568.236 1614.08 568.945 1613.49 569.528C1612.94 570.085 1612.21 570.364 1611.33 570.364ZM1637.24 573.708V594H1632.99V587.882H1627.63L1623.49 594H1618.39L1623.18 587.236C1621.71 586.729 1620.59 585.957 1619.8 584.918C1619.04 583.854 1618.66 582.549 1618.66 581.004C1618.66 578.673 1619.48 576.875 1621.13 575.608C1622.78 574.341 1625.04 573.708 1627.93 573.708H1637.24ZM1628.08 577.698C1625.02 577.698 1623.49 578.851 1623.49 581.156C1623.49 583.436 1624.97 584.576 1627.93 584.576H1632.99V577.698H1628.08ZM1678.23 567.4V594H1673.36V571.58H1659.57V594H1654.7V567.4H1678.23ZM1694.24 594.266C1692.19 594.266 1690.34 593.823 1688.69 592.936C1687.04 592.049 1685.75 590.821 1684.81 589.25C1683.9 587.654 1683.45 585.855 1683.45 583.854C1683.45 581.853 1683.9 580.067 1684.81 578.496C1685.75 576.925 1687.04 575.697 1688.69 574.81C1690.34 573.923 1692.19 573.48 1694.24 573.48C1696.32 573.48 1698.18 573.923 1699.82 574.81C1701.47 575.697 1702.75 576.925 1703.66 578.496C1704.6 580.067 1705.07 581.853 1705.07 583.854C1705.07 585.855 1704.6 587.654 1703.66 589.25C1702.75 590.821 1701.47 592.049 1699.82 592.936C1698.18 593.823 1696.32 594.266 1694.24 594.266ZM1694.24 590.2C1695.99 590.2 1697.43 589.617 1698.57 588.452C1699.71 587.287 1700.28 585.754 1700.28 583.854C1700.28 581.954 1699.71 580.421 1698.57 579.256C1697.43 578.091 1695.99 577.508 1694.24 577.508C1692.49 577.508 1691.05 578.091 1689.91 579.256C1688.79 580.421 1688.23 581.954 1688.23 583.854C1688.23 585.754 1688.79 587.287 1689.91 588.452C1691.05 589.617 1692.49 590.2 1694.24 590.2ZM1729.22 573.708V594H1724.5V577.736H1714.51V594H1709.76V573.708H1729.22ZM1755.08 573.708V594H1750.37V577.736H1740.38V594H1735.63V573.708H1755.08ZM1771.07 590.238C1773.27 590.238 1775.11 589.503 1776.58 588.034L1779.08 590.96C1778.2 592.049 1777.06 592.873 1775.66 593.43C1774.27 593.987 1772.7 594.266 1770.95 594.266C1768.72 594.266 1766.76 593.823 1765.06 592.936C1763.37 592.049 1762.05 590.821 1761.11 589.25C1760.2 587.654 1759.74 585.855 1759.74 583.854C1759.74 581.878 1760.19 580.105 1761.07 578.534C1761.98 576.938 1763.23 575.697 1764.8 574.81C1766.39 573.923 1768.19 573.48 1770.19 573.48C1772.09 573.48 1773.82 573.898 1775.36 574.734C1776.93 575.545 1778.17 576.723 1779.08 578.268C1780 579.788 1780.45 581.574 1780.45 583.626L1764.91 586.666C1765.39 587.831 1766.16 588.718 1767.23 589.326C1768.29 589.934 1769.57 590.238 1771.07 590.238ZM1770.19 577.28C1768.44 577.28 1767.03 577.85 1765.94 578.99C1764.87 580.13 1764.34 581.663 1764.34 583.588V583.626L1775.82 581.422C1775.49 580.181 1774.82 579.18 1773.8 578.42C1772.81 577.66 1771.61 577.28 1770.19 577.28ZM1795.12 573.48C1797.23 573.48 1799.06 573.911 1800.63 574.772C1802.23 575.633 1803.46 576.849 1804.32 578.42C1805.21 579.991 1805.65 581.815 1805.65 583.892C1805.65 585.944 1805.23 587.755 1804.4 589.326C1803.56 590.897 1802.38 592.113 1800.86 592.974C1799.37 593.835 1797.63 594.266 1795.66 594.266C1792.84 594.266 1790.64 593.367 1789.04 591.568V601.372H1784.26V583.93C1784.26 581.878 1784.71 580.067 1785.62 578.496C1786.54 576.9 1787.8 575.671 1789.42 574.81C1791.07 573.923 1792.97 573.48 1795.12 573.48ZM1794.93 590.238C1796.71 590.238 1798.15 589.655 1799.27 588.49C1800.38 587.299 1800.94 585.767 1800.94 583.892C1800.94 582.017 1800.38 580.485 1799.27 579.294C1798.15 578.103 1796.71 577.508 1794.93 577.508C1793.14 577.508 1791.69 578.091 1790.6 579.256C1789.51 580.421 1788.97 581.954 1788.97 583.854C1788.97 585.754 1789.51 587.299 1790.6 588.49C1791.72 589.655 1793.16 590.238 1794.93 590.238ZM1830.16 573.708V594H1825.64V591.378C1824.85 592.341 1823.88 593.063 1822.71 593.544C1821.57 594.025 1820.31 594.266 1818.91 594.266C1816.94 594.266 1815.16 593.835 1813.59 592.974C1812.05 592.113 1810.83 590.897 1809.94 589.326C1809.08 587.755 1808.65 585.931 1808.65 583.854C1808.65 581.777 1809.08 579.965 1809.94 578.42C1810.83 576.849 1812.05 575.633 1813.59 574.772C1815.16 573.911 1816.94 573.48 1818.91 573.48C1820.23 573.48 1821.43 573.708 1822.52 574.164C1823.64 574.62 1824.6 575.291 1825.41 576.178V573.708H1830.16ZM1819.44 590.2C1821.19 590.2 1822.64 589.617 1823.78 588.452C1824.92 587.287 1825.49 585.754 1825.49 583.854C1825.49 581.954 1824.92 580.421 1823.78 579.256C1822.64 578.091 1821.19 577.508 1819.44 577.508C1817.7 577.508 1816.25 578.091 1815.11 579.256C1814 580.421 1813.44 581.954 1813.44 583.854C1813.44 585.754 1814 587.287 1815.11 588.452C1816.25 589.617 1817.7 590.2 1819.44 590.2Z" fill="#9D072B"/>
</g>
<path d="M893.76 624.146C893.647 624.442 893.534 624.697 893.449 624.979L893.76 624.146Z" fill="#262626"/>
<path d="M1018.68 574.163C1018.28 573.994 1017.82 573.81 1017.41 573.641L1018.68 574.163Z" fill="#262626"/>
<path d="M1068.61 698.774C1068.72 698.477 1068.84 698.181 1068.95 697.898L1068.61 698.774Z" fill="#262626"/>
<path d="M1048.55 594.403C1048.42 594.318 1048.31 594.176 1048.24 594.105L1048.55 594.403Z" fill="#262626"/>
<path d="M914.039 594.19C913.996 594.248 913.953 594.334 913.866 594.391L914.039 594.19Z" fill="#262626"/>
<path d="M1145.51 310.464C1178.36 310.69 1161.35 270.085 1218.07 244.056H853.506C853.506 244.056 835.138 265.015 853.506 285.677C1022.46 278.121 1128.4 307.766 1145.51 310.464Z" fill="#262626"/>
<path d="M676.115 580.547C675.819 580.702 675.621 580.858 675.324 581.027L676.115 580.547Z" fill="#262626"/>
<path d="M807.742 608.652C807.459 608.257 807.219 607.861 806.937 607.494L807.742 608.652Z" fill="#262626"/>
<path d="M821.179 642.068C821.151 641.899 821.123 641.786 821.095 641.631L821.179 642.068Z" fill="#262626"/>
<path d="M709.658 566.974C709.573 566.974 709.488 567.002 709.403 567.017L709.658 566.974Z" fill="#262626"/>
<path d="M648.181 711.951C648.35 712.248 648.506 712.446 648.661 712.7L648.181 711.951Z" fill="#262626"/>
<path d="M566.246 572.948C565.836 572.751 565.384 572.567 564.96 572.397L566.246 572.948Z" fill="#262626"/>
<path d="M616.122 697.531C616.277 697.235 616.391 696.952 616.489 696.656L616.122 697.531Z" fill="#262626"/>
<path d="M596.06 593.16C595.961 593.075 595.819 592.933 595.748 592.862L596.06 593.16Z" fill="#262626"/>
<path d="M461.595 592.947C461.538 593.034 461.48 593.063 461.422 593.12L461.595 592.947Z" fill="#262626"/>
<path d="M313.377 676.049C313.306 676.233 313.236 676.388 313.165 676.543L313.377 676.049Z" fill="#262626"/>
<path d="M387.993 646.249C387.739 646.122 387.47 646.009 387.216 645.938L387.993 646.249Z" fill="#262626"/>
<path d="M417.764 720.665C417.848 720.467 417.919 720.312 418.004 720.143L417.764 720.665Z" fill="#262626"/>
<path d="M405.799 658.328C405.727 658.299 405.655 658.213 405.598 658.155L405.799 658.328Z" fill="#262626"/>
<path d="M325.501 658.197C325.472 658.226 325.443 658.269 325.4 658.297L325.501 658.197Z" fill="#262626"/>
<path d="M343.288 750.522C343.444 750.593 343.613 750.65 343.783 750.734L343.288 750.522Z" fill="#262626"/>
<path d="M387.483 750.678C387.624 750.621 387.766 750.565 387.907 750.522L387.483 750.678Z" fill="#262626"/>
<path d="M88.6803 676.049C88.6096 676.233 88.5531 676.388 88.4824 676.543L88.6803 676.049Z" fill="#262626"/>
<path d="M163.282 646.249C163.028 646.122 162.774 646.009 162.52 645.938L163.282 646.249Z" fill="#262626"/>
<path d="M181.103 658.328C181.045 658.299 180.959 658.213 180.901 658.155L181.103 658.328Z" fill="#262626"/>
<path d="M100.791 658.197C100.762 658.226 100.733 658.269 100.69 658.297L100.791 658.197Z" fill="#262626"/>
<path d="M118.577 750.522C118.733 750.593 118.902 750.65 119.072 750.734L118.577 750.522Z" fill="#262626"/>
<path d="M162.789 750.678C162.93 750.621 163.071 750.565 163.198 750.522L162.789 750.678Z" fill="#262626"/>
<path d="M117.25 542.074V412.887C86.6317 470.892 85.9252 484.069 117.25 542.074Z" fill="#262626"/>
<path d="M312.204 287.485C312.26 286.638 312.402 285.777 312.402 284.943V255.1C312.402 241.556 302.54 234 284.384 234H221.24C203.098 234 193.236 241.556 193.236 255.1V284.929C193.236 285.762 193.378 286.652 193.434 287.485H312.204Z" fill="#262626"/>
<path d="M883.361 454.919H853.633V527.626H883.361V454.919Z" fill="#262626"/>
<path d="M814.836 454.919H781.745V527.626H814.836V454.919Z" fill="#262626"/>
<path d="M850.892 454.919H817.547V527.626H850.892V454.919Z" fill="#262626"/>
<path d="M562.305 454.919H528.748V527.626H562.305V454.919Z" fill="#262626"/>
<path d="M525.992 454.919H492.647V527.626H525.992V454.919Z" fill="#262626"/>
<path d="M489.905 454.919H456.829V527.626H489.905V454.919Z" fill="#262626"/>
<path d="M454.102 454.919H421.309V527.626H454.102V454.919Z" fill="#262626"/>
<path d="M778.975 454.919H745.446V527.626H778.975V454.919Z" fill="#262626"/>
<path d="M598.079 454.919H565.017V527.626H598.079V454.919Z" fill="#262626"/>
<path d="M706.634 454.919H673.571V527.626H706.634V454.919Z" fill="#262626"/>
<path d="M742.721 454.919H709.391V527.626H742.721V454.919Z" fill="#262626"/>
<path d="M634.152 454.919H600.821V527.626H634.152V454.919Z" fill="#262626"/>
<path d="M670.816 454.919H636.906V527.626H670.816V454.919Z" fill="#262626"/>
<path d="M371.984 581.804H56.1969C43.9469 581.804 34 591.761 34 603.977C34 616.251 43.9469 626.151 56.1969 626.151H371.984V639C392.74 641.02 410.599 646.588 421.168 663.31V626.137V581.747H371.984V581.804Z" fill="#262626"/>
<path d="M412.162 634.057H96.3747C84.1247 634.057 74.1777 644.014 74.1777 656.23C74.1777 668.504 84.1247 678.404 96.3747 678.404H412.162V691.253C432.917 693.272 450.777 698.841 461.345 715.563V678.39V634H412.162V634.057Z" fill="#262626"/>
<path d="M883.348 450.879V437.123H121.856V542.47H883.348V531.665H408.481V527.626H418.569V454.919H408.481V450.879H883.348Z" fill="#9D072B"/>
<path fill-rule="evenodd" clip-rule="evenodd" d="M754.194 412.464H883.349H883.377V433.889H121.871V412.464H233.195H272.46H304.137C307.373 395.007 321.064 391.038 328.991 391.25H334.416H346.468H420.647V352.072H417.962C414.585 352.072 411.844 350.448 411.844 348.456C411.844 346.451 414.585 344.841 417.962 344.841H420.788C422.059 336.578 438.69 308.303 456.747 308.303C474.323 308.303 491.01 337.892 492.677 344.841H495.531C498.908 344.841 501.649 346.451 501.649 348.456C501.649 350.448 498.908 352.072 495.531 352.072H492.832V391.25H508.332H520.384H629.207V345.815C629.207 340.971 640.143 324.107 654.908 314.729V301.072H668.458V280.791H668.5C668.5 277.373 671.227 274.619 674.675 274.619C678.108 274.619 680.835 277.387 680.835 280.791H680.878V301.072H693.311L693.241 314.899C708.133 324.715 719.436 342.51 719.436 345.815V391.25H742.156H754.194H882.84V401.348H754.194V412.464ZM314.918 412.464H334.43V401.348H329.005C320.329 401.348 316.543 407.012 314.918 412.464ZM346.468 412.464H420.647V401.348H346.468V412.464ZM492.832 412.464H508.332V401.348H492.832V412.464ZM520.384 412.464H629.207V401.348H520.384V412.464ZM719.436 412.464H742.156V401.348H719.436V412.464Z" fill="#262626"/>
<path d="M272.46 412.464V396.024C272.46 353.738 305.564 320.633 311.428 292.88H194.227C200.09 320.633 233.195 353.738 233.195 396.024V412.464H272.46Z" fill="#9D072B"/>
<path d="M628.678 643.142C708.178 643.142 680.633 643.142 728.178 643.142C778.52 643.142 749.178 643.142 828.371 643.142H882.839V548.359H121.842V577.072H427.159V643.142C478.178 643.142 479.276 643.142 530.678 643.142C578.194 643.142 566.678 643.142 628.678 643.142Z" fill="#262626"/>
<path d="M940.359 324.913H924.647C922.062 324.913 920.818 326.057 920.818 328.627V385.432C920.818 388.016 922.09 389.033 924.647 389.033H940.204C942.803 389.033 945.064 389.033 945.248 389.033C945.474 389.033 945.601 388.892 945.601 388.694C945.601 388.496 945.601 386.237 945.601 383.666V330.011C945.601 327.441 945.601 325.223 945.601 325.124C945.601 325.011 945.488 324.913 945.318 324.913C945.149 324.913 942.945 324.913 940.359 324.913Z" fill="#C4C4C4"/>
<path d="M980.317 316.495H915.549C914.051 316.495 912.836 317.724 912.836 319.249V394.781C912.836 396.292 914.051 397.535 915.549 397.535H980.317C981.815 397.535 983.044 396.292 983.044 394.781V319.249C983.072 317.724 981.843 316.495 980.317 316.495ZM978.339 325.308V388.821C978.339 390.318 978.339 391.688 978.339 391.815C978.339 391.956 978.24 392.084 978.084 392.084C977.971 392.084 976.615 392.084 975.103 392.084H920.211C918.699 392.084 917.456 390.841 917.456 389.329V324.63C917.456 323.119 918.699 321.876 920.211 321.876H974.877C976.389 321.876 977.774 321.876 978 321.876C978.197 321.876 978.31 322.031 978.31 322.215C978.339 322.384 978.339 323.797 978.339 325.308Z" fill="#C4C4C4"/>
<path d="M879 291.799V385.727H889.532L889.518 616.316C889.518 626.684 889.274 634.21 889.518 639.67C890.053 651.626 892.929 653.673 905.837 653.959C910.023 654.051 915.265 653.959 921.825 653.959C974.515 653.959 1029.39 653.959 1084.36 653.959H1117V319.985C1070.12 291.266 912.548 286.724 879 291.799ZM985.171 400.043C985.171 401.586 983.926 402.855 982.442 402.855H912.83C911.332 402.855 910.088 401.586 910.088 400.043V317.303C910.088 315.761 911.332 314.492 912.83 314.492H982.442C983.926 314.492 985.171 315.761 985.171 317.303V400.043ZM1083.38 402.869H1008.17C1008.17 402.869 1008.17 319.74 1008.17 315.775C1008 310.022 1083.38 325.146 1083.38 332.369C1083.38 339.592 1083.38 402.869 1083.38 402.869Z" fill="#262626"/>
<path d="M905.837 653.959C892.929 653.673 890.053 651.626 889.518 639.67V653.959H905.837Z" fill="#262626"/>
<path d="M1010.88 317.639C1010.88 321.269 1010.88 397.521 1010.88 397.521H1081.24C1081.24 397.521 1081.24 339.502 1081.24 332.864C1081.24 326.226 1010.71 312.371 1010.88 317.639ZM1076.49 392.041H1015.61C1015.61 392.041 1015.61 326.113 1015.61 322.963C1015.46 318.416 1076.49 330.392 1076.49 336.141C1076.49 341.875 1076.49 392.041 1076.49 392.041Z" fill="#C4C4C4"/>
<circle cx="681.178" cy="699" r="65" fill="#C4C4C4"/>
<circle cx="907.178" cy="699" r="65" fill="#C4C4C4"/>
<path d="M854.572 676.362L894.36 692.745C894.911 691.587 895.646 690.542 896.494 689.553L866.059 659.202C861.255 664.103 857.327 669.908 854.572 676.362Z" fill="#262626"/>
<path d="M896.522 707.829C895.66 706.897 894.925 705.781 894.36 704.595L854.558 720.95L854.332 720.427C857.115 727.136 861.156 733.138 866.144 738.279L896.522 707.829Z" fill="#262626"/>
<path d="M900.76 711.063C899.616 710.484 898.556 709.764 897.609 708.959L867.231 739.395C872.148 744.14 877.871 748.01 884.243 750.793L900.76 711.063Z" fill="#262626"/>
<path d="M929.23 646.604L912.728 686.333C913.872 686.856 914.918 687.576 915.864 688.424L946.228 657.973C941.325 653.242 935.603 649.344 929.23 646.604Z" fill="#262626"/>
<path d="M959.198 677.012C956.401 670.261 952.374 664.23 947.344 659.061L916.98 689.511C917.856 690.457 918.577 691.573 919.142 692.731L958.93 676.376L959.198 677.012Z" fill="#262626"/>
<path d="M907.514 684.992C908.828 685.076 910.099 685.317 911.286 685.74L927.789 646.025C921.502 643.497 914.677 642.099 907.514 642V684.992Z" fill="#262626"/>
<path d="M884.852 646.35L901.99 685.825C903.248 685.359 904.576 685.076 905.961 684.992V642C898.289 642.127 890.97 643.709 884.301 646.59L884.852 646.35Z" fill="#262626"/>
<path d="M897.596 688.466C898.486 687.633 899.503 686.997 900.563 686.446L883.438 646.971C877.363 649.725 871.867 653.454 867.147 658.03L897.596 688.466Z" fill="#262626"/>
<path d="M920.442 699.468C920.371 700.767 920.117 701.982 919.707 703.168L959.466 719.566C961.939 713.351 963.352 706.572 963.465 699.496L920.442 699.468Z" fill="#262626"/>
<path d="M959.481 677.859L919.707 694.2C920.117 695.358 920.357 696.615 920.442 697.915L963.465 697.943C963.352 690.853 961.953 684.074 959.481 677.859Z" fill="#262626"/>
<path d="M905.96 712.349C904.645 712.292 903.388 712.052 902.201 711.6L885.698 751.315C891.972 753.829 898.81 755.227 905.96 755.34V712.349Z" fill="#262626"/>
<path d="M911.498 711.586C910.254 712.038 908.912 712.306 907.527 712.391V755.397C915.002 755.284 922.137 753.773 928.636 751.033L911.498 711.586Z" fill="#262626"/>
<path d="M919.128 704.623C918.562 705.781 917.842 706.855 916.994 707.815L947.428 738.195C952.232 733.223 956.16 727.433 958.901 721.007L919.128 704.623Z" fill="#262626"/>
<path d="M915.892 708.903C915.002 709.708 913.999 710.386 912.925 710.936L930.049 750.355C936.125 747.643 941.607 743.872 946.34 739.282L915.892 708.903Z" fill="#262626"/>
<path d="M893.54 695.414C893.639 695.019 893.653 694.553 893.78 694.2L854.02 677.817C851.83 683.311 850.531 689.243 850.191 695.414H893.54Z" fill="#262626"/>
<path d="M850.178 701.785C850.517 708.013 851.803 713.973 854.007 719.495L893.78 703.169C893.639 702.759 893.625 702.293 893.512 701.785H850.178Z" fill="#262626"/>
<path d="M733.07 721.035L693.283 704.652C692.732 705.81 691.997 706.855 691.149 707.844L721.583 738.195C726.387 733.294 730.315 727.489 733.07 721.035Z" fill="#262626"/>
<path d="M691.121 689.568C691.983 690.5 692.717 691.616 693.283 692.802L733.084 676.447L733.311 676.97C730.527 670.261 726.486 664.259 721.499 659.118L691.121 689.568Z" fill="#262626"/>
<path d="M686.883 686.334C688.027 686.913 689.087 687.633 690.033 688.438L720.411 658.002C715.494 653.257 709.772 649.387 703.4 646.604L686.883 686.334Z" fill="#262626"/>
<path d="M658.412 750.793L674.915 711.064C673.771 710.541 672.725 709.821 671.778 708.974L641.415 739.424C646.318 744.155 652.04 748.053 658.412 750.793Z" fill="#262626"/>
<path d="M628.444 720.385C631.242 727.136 635.269 733.167 640.298 738.336L670.662 707.886C669.786 706.94 669.066 705.824 668.5 704.666L628.713 721.021L628.444 720.385Z" fill="#262626"/>
<path d="M680.129 712.405C678.815 712.321 677.543 712.08 676.356 711.657L659.854 751.372C666.141 753.9 672.965 755.298 680.129 755.397L680.129 712.405Z" fill="#262626"/>
<path d="M702.791 751.047L685.652 711.572C684.395 712.038 683.066 712.321 681.682 712.405L681.682 755.397C689.354 755.27 696.673 753.688 703.342 750.807L702.791 751.047Z" fill="#262626"/>
<path d="M690.047 708.931C689.157 709.764 688.139 710.4 687.08 710.951L704.204 750.426C710.28 747.672 715.776 743.943 720.495 739.367L690.047 708.931Z" fill="#262626"/>
<path d="M667.201 697.929C667.272 696.63 667.526 695.415 667.936 694.229L628.176 677.831C625.703 684.046 624.291 690.825 624.178 697.901L667.201 697.929Z" fill="#262626"/>
<path d="M628.162 719.538L667.936 703.197C667.526 702.039 667.286 700.782 667.201 699.482L624.178 699.454C624.291 706.544 625.689 713.323 628.162 719.538Z" fill="#262626"/>
<path d="M681.683 685.048C682.997 685.105 684.255 685.345 685.441 685.797L701.944 646.082C695.671 643.568 688.832 642.17 681.683 642.057L681.683 685.048Z" fill="#262626"/>
<path d="M676.145 685.811C677.388 685.359 678.731 685.091 680.115 685.006L680.115 642C672.641 642.113 665.506 643.624 659.006 646.364L676.145 685.811Z" fill="#262626"/>
<path d="M668.515 692.774C669.08 691.616 669.801 690.542 670.648 689.582L640.214 659.202C635.41 664.174 631.482 669.965 628.741 676.391L668.515 692.774Z" fill="#262626"/>
<path d="M671.751 688.495C672.641 687.69 673.644 687.012 674.718 686.461L657.593 647.042C651.518 649.754 646.036 653.525 641.302 658.115L671.751 688.495Z" fill="#262626"/>
<path d="M694.103 701.982C694.004 702.378 693.99 702.844 693.863 703.197L733.622 719.58C735.812 714.086 737.112 708.154 737.451 701.982L694.103 701.982Z" fill="#262626"/>
<path d="M737.465 695.613C737.126 689.384 735.84 683.424 733.636 677.902L693.862 694.228C694.003 694.638 694.018 695.104 694.131 695.613L737.465 695.613Z" fill="#262626"/>
<path d="M745.814 697H841.739C842.994 676.675 851.178 662 864.678 651.077L724.678 651C740.178 667 744.559 676.642 745.814 697Z" fill="#9D072B"/>
<path d="M745.781 703.59C745.301 714.387 742.306 724.568 737.148 733.449H850.606C845.463 724.582 842.467 714.387 841.987 703.59H745.781Z" fill="#9D072B"/>
<rect x="745.178" y="696" width="98" height="7" fill="#C4C4C4"/>
<circle cx="311.178" cy="701" r="65" fill="#C4C4C4"/>
<circle cx="536.178" cy="701" r="65" fill="#C4C4C4"/>
<path d="M484.404 679.035L524.192 695.418C524.743 694.26 525.478 693.215 526.326 692.227L495.891 661.875C491.087 666.776 487.159 672.581 484.404 679.035Z" fill="#262626"/>
<path d="M526.356 710.502C525.494 709.57 524.759 708.454 524.194 707.268L484.392 723.623L484.166 723.1C486.949 729.809 490.99 735.811 495.978 740.952L526.356 710.502Z" fill="#262626"/>
<path d="M530.593 713.736C529.449 713.157 528.389 712.437 527.442 711.632L497.064 742.068C501.981 746.814 507.704 750.683 514.076 753.466L530.593 713.736Z" fill="#262626"/>
<path d="M559.063 649.277L542.561 689.006C543.705 689.529 544.751 690.249 545.697 691.096L576.061 660.646C571.158 655.915 565.436 652.017 559.063 649.277Z" fill="#262626"/>
<path d="M589.032 679.685C586.235 672.934 582.208 666.903 577.178 661.734L546.814 692.184C547.69 693.13 548.411 694.246 548.976 695.404L588.764 679.049L589.032 679.685Z" fill="#262626"/>
<path d="M537.346 687.665C538.66 687.75 539.931 687.99 541.118 688.413L557.621 648.698C551.334 646.17 544.509 644.772 537.346 644.673V687.665Z" fill="#262626"/>
<path d="M514.686 649.023L531.824 688.498C533.082 688.032 534.41 687.75 535.795 687.665V644.673C528.123 644.8 520.804 646.382 514.135 649.263L514.686 649.023Z" fill="#262626"/>
<path d="M527.429 691.139C528.319 690.306 529.336 689.67 530.396 689.119L513.271 649.644C507.196 652.398 501.7 656.127 496.98 660.703L527.429 691.139Z" fill="#262626"/>
<path d="M550.276 702.141C550.205 703.44 549.951 704.655 549.541 705.841L589.3 722.239C591.773 716.025 593.186 709.245 593.299 702.169L550.276 702.141Z" fill="#262626"/>
<path d="M589.315 680.532L549.541 696.873C549.951 698.031 550.191 699.288 550.276 700.588L593.299 700.616C593.186 693.526 591.787 686.747 589.315 680.532Z" fill="#262626"/>
<path d="M535.793 715.022C534.478 714.966 533.221 714.725 532.034 714.273L515.531 753.988C521.805 756.502 528.643 757.901 535.793 758.014V715.022Z" fill="#262626"/>
<path d="M541.332 714.259C540.088 714.711 538.746 714.98 537.361 715.064V758.07C544.836 757.957 551.971 756.446 558.47 753.706L541.332 714.259Z" fill="#262626"/>
<path d="M548.96 707.296C548.395 708.455 547.674 709.528 546.826 710.488L577.26 740.868C582.064 735.896 585.992 730.106 588.733 723.68L548.96 707.296Z" fill="#262626"/>
<path d="M545.725 711.576C544.835 712.381 543.832 713.059 542.758 713.61L559.882 753.028C565.958 750.316 571.44 746.545 576.173 741.955L545.725 711.576Z" fill="#262626"/>
<path d="M259.709 679.035L299.497 695.418C300.062 694.26 300.782 693.215 301.63 692.227L271.182 661.875C266.392 666.776 262.45 672.581 259.709 679.035Z" fill="#262626"/>
<path d="M298.167 700.573C298.238 699.26 298.492 698.003 298.902 696.873L259.143 680.49C256.67 686.69 255.271 693.455 255.158 700.531L298.167 700.573Z" fill="#262626"/>
<path d="M259.114 722.168L298.902 705.841C298.492 704.655 298.238 703.426 298.167 702.113L255.158 702.084C255.257 709.174 256.656 715.954 259.114 722.168Z" fill="#262626"/>
<path d="M301.645 710.502C300.769 709.57 300.048 708.454 299.483 707.268L259.681 723.623L259.455 723.1C262.239 729.809 266.279 735.811 271.267 740.952L301.645 710.502Z" fill="#262626"/>
<path d="M305.896 713.736C304.751 713.157 303.706 712.437 302.745 711.632L272.367 742.068C277.27 746.814 283.021 750.683 289.379 753.466L305.896 713.736Z" fill="#262626"/>
<path d="M334.367 649.277L317.85 689.006C318.994 689.529 320.054 690.249 321 691.096L351.364 660.646C346.461 655.915 340.725 652.017 334.367 649.277Z" fill="#262626"/>
<path d="M364.307 679.685C361.538 672.934 357.483 666.903 352.467 661.734L322.104 692.184C322.965 693.13 323.686 694.246 324.265 695.404L364.053 679.049L364.307 679.685Z" fill="#262626"/>
<path d="M312.65 687.665C313.964 687.75 315.222 687.99 316.409 688.413L332.912 648.698C326.638 646.17 319.814 644.772 312.65 644.673V687.665Z" fill="#262626"/>
<path d="M289.987 649.023L307.125 688.498C308.383 688.032 309.711 687.75 311.11 687.665V644.673C303.423 644.8 296.105 646.382 289.436 649.263L289.987 649.023Z" fill="#262626"/>
<path d="M302.717 691.139C303.608 690.306 304.625 689.67 305.699 689.119L288.574 649.644C282.499 652.398 277.002 656.127 272.283 660.703L302.717 691.139Z" fill="#262626"/>
<path d="M311.096 715.022C309.782 714.966 308.51 714.725 307.323 714.273L290.82 753.988C297.108 756.502 303.932 757.901 311.096 758.014V715.022Z" fill="#262626"/>
<path d="M316.607 714.259C315.377 714.711 314.035 714.98 312.65 715.064V758.07C320.125 757.957 327.246 756.446 333.759 753.706L316.607 714.259Z" fill="#262626"/>
<path d="M324.251 707.296C323.686 708.455 322.965 709.528 322.117 710.488L352.551 740.868C357.355 735.896 361.297 730.106 364.038 723.68L324.251 707.296Z" fill="#262626"/>
<path d="M321.014 711.576C320.124 712.381 319.107 713.059 318.033 713.61L335.158 753.028C341.233 750.316 346.73 746.545 351.449 741.955L321.014 711.576Z" fill="#262626"/>
<path d="M523.374 698.088C523.473 697.692 523.487 697.226 523.614 696.873L483.854 680.49C481.664 685.984 480.364 691.916 480.025 698.088H523.374Z" fill="#262626"/>
<path d="M480.01 704.458C480.349 710.686 481.635 716.646 483.839 722.168L523.612 705.842C523.471 705.432 523.457 704.966 523.344 704.458H480.01Z" fill="#262626"/>
<path d="M376.98 698.088H473.03C474.287 671.903 490.07 649.531 512.521 638.925L337.291 638.826C359.855 649.418 375.722 671.86 376.98 698.088Z" fill="#9D072B"/>
<path d="M376.895 704.457C376.414 715.601 373.419 726.108 368.262 735.275H481.719C476.576 726.123 473.581 715.601 473.1 704.457H376.895Z" fill="#9D072B"/>
<path d="M325.099 704.458C325 704.924 324.971 705.418 324.83 705.842L364.575 722.239C366.78 716.674 368.094 710.728 368.419 704.458H325.099Z" fill="#262626"/>
<path d="M368.433 698.088C368.079 691.902 366.794 686.012 364.604 680.532L324.83 696.873C324.957 697.226 324.971 697.693 325.07 698.088H368.433Z" fill="#262626"/>
<rect x="373.178" y="698" width="102" height="7" fill="#C4C4C4"/>
<g filter="url(#filter3_d_30_6521)">
<rect x="2313" y="548" width="645" height="68" rx="15" fill="#C4C4C4"/>
</g>
<g filter="url(#filter4_d_30_6521)">
<path d="M2376.36 569.4V596H2371.42V584.6H2357.66V596H2352.72V569.4H2357.66V580.382H2371.42V569.4H2376.36ZM2403.05 575.708V596H2398.53V593.378C2397.74 594.341 2396.77 595.063 2395.6 595.544C2394.46 596.025 2393.19 596.266 2391.8 596.266C2389.83 596.266 2388.05 595.835 2386.48 594.974C2384.94 594.113 2383.72 592.897 2382.83 591.326C2381.97 589.755 2381.54 587.931 2381.54 585.854C2381.54 583.777 2381.97 581.965 2382.83 580.42C2383.72 578.849 2384.94 577.633 2386.48 576.772C2388.05 575.911 2389.83 575.48 2391.8 575.48C2393.12 575.48 2394.32 575.708 2395.41 576.164C2396.53 576.62 2397.49 577.291 2398.3 578.178V575.708H2403.05ZM2392.33 592.2C2394.08 592.2 2395.53 591.617 2396.67 590.452C2397.81 589.287 2398.38 587.754 2398.38 585.854C2398.38 583.954 2397.81 582.421 2396.67 581.256C2395.53 580.091 2394.08 579.508 2392.33 579.508C2390.59 579.508 2389.14 580.091 2388 581.256C2386.89 582.421 2386.33 583.954 2386.33 585.854C2386.33 587.754 2386.89 589.287 2388 590.452C2389.14 591.617 2390.59 592.2 2392.33 592.2ZM2428.57 575.708V596H2424.05V593.416C2423.29 594.328 2422.34 595.037 2421.2 595.544C2420.08 596.025 2418.87 596.266 2417.55 596.266C2414.84 596.266 2412.7 595.519 2411.13 594.024C2409.56 592.504 2408.77 590.262 2408.77 587.298V575.708H2413.52V586.652C2413.52 588.476 2413.93 589.844 2414.74 590.756C2415.57 591.643 2416.76 592.086 2418.31 592.086C2419.98 592.086 2421.31 591.567 2422.3 590.528C2423.31 589.464 2423.82 587.944 2423.82 585.968V575.708H2428.57ZM2418.61 573.314C2416.56 573.314 2414.99 572.845 2413.9 571.908C2412.84 570.945 2412.29 569.552 2412.27 567.728H2415.42C2415.45 568.64 2415.72 569.362 2416.26 569.894C2416.81 570.426 2417.59 570.692 2418.57 570.692C2419.54 570.692 2420.3 570.426 2420.85 569.894C2421.44 569.362 2421.74 568.64 2421.77 567.728H2425C2424.97 569.552 2424.41 570.945 2423.32 571.908C2422.24 572.845 2420.66 573.314 2418.61 573.314ZM2444.22 596.266C2442.11 596.266 2440.23 595.823 2438.56 594.936C2436.88 594.049 2435.58 592.821 2434.64 591.25C2433.7 589.654 2433.24 587.855 2433.24 585.854C2433.24 583.853 2433.7 582.067 2434.64 580.496C2435.58 578.925 2436.87 577.697 2438.52 576.81C2440.19 575.923 2442.09 575.48 2444.22 575.48C2446.22 575.48 2447.97 575.885 2449.46 576.696C2450.98 577.507 2452.12 578.672 2452.88 580.192L2449.23 582.32C2448.65 581.383 2447.92 580.686 2447.03 580.23C2446.17 579.749 2445.22 579.508 2444.18 579.508C2442.41 579.508 2440.94 580.091 2439.77 581.256C2438.61 582.396 2438.02 583.929 2438.02 585.854C2438.02 587.779 2438.59 589.325 2439.73 590.49C2440.9 591.63 2442.38 592.2 2444.18 592.2C2445.22 592.2 2446.17 591.972 2447.03 591.516C2447.92 591.035 2448.65 590.325 2449.23 589.388L2452.88 591.516C2452.1 593.036 2450.94 594.214 2449.42 595.05C2447.93 595.861 2446.19 596.266 2444.22 596.266ZM2482.68 575.48C2485.23 575.48 2487.26 576.227 2488.76 577.722C2490.25 579.191 2491 581.408 2491 584.372V596H2486.25V584.98C2486.25 583.207 2485.85 581.877 2485.07 580.99C2484.28 580.078 2483.16 579.622 2481.69 579.622C2480.09 579.622 2478.81 580.154 2477.85 581.218C2476.89 582.257 2476.41 583.751 2476.41 585.702V596H2471.66V584.98C2471.66 583.207 2471.26 581.877 2470.48 580.99C2469.69 580.078 2468.56 579.622 2467.1 579.622C2465.47 579.622 2464.18 580.141 2463.22 581.18C2462.28 582.219 2461.81 583.726 2461.81 585.702V596H2457.06V575.708H2461.59V578.292C2462.35 577.38 2463.3 576.683 2464.44 576.202C2465.58 575.721 2466.84 575.48 2468.24 575.48C2469.76 575.48 2471.1 575.771 2472.26 576.354C2473.45 576.911 2474.39 577.747 2475.08 578.862C2475.91 577.798 2476.99 576.975 2478.31 576.392C2479.62 575.784 2481.08 575.48 2482.68 575.48ZM2516.6 575.708V596H2512.08V593.378C2511.3 594.341 2510.32 595.063 2509.16 595.544C2508.02 596.025 2506.75 596.266 2505.36 596.266C2503.38 596.266 2501.61 595.835 2500.04 594.974C2498.49 594.113 2497.28 592.897 2496.39 591.326C2495.53 589.755 2495.1 587.931 2495.1 585.854C2495.1 583.777 2495.53 581.965 2496.39 580.42C2497.28 578.849 2498.49 577.633 2500.04 576.772C2501.61 575.911 2503.38 575.48 2505.36 575.48C2506.67 575.48 2507.88 575.708 2508.97 576.164C2510.08 576.62 2511.04 577.291 2511.85 578.178V575.708H2516.6ZM2505.89 592.2C2507.64 592.2 2509.08 591.617 2510.22 590.452C2511.36 589.287 2511.93 587.754 2511.93 585.854C2511.93 583.954 2511.36 582.421 2510.22 581.256C2509.08 580.091 2507.64 579.508 2505.89 579.508C2504.14 579.508 2502.7 580.091 2501.56 581.256C2500.44 582.421 2499.88 583.954 2499.88 585.854C2499.88 587.754 2500.44 589.287 2501.56 590.452C2502.7 591.617 2504.14 592.2 2505.89 592.2ZM2532.93 575.48C2535.03 575.48 2536.87 575.911 2538.44 576.772C2540.03 577.633 2541.26 578.849 2542.12 580.42C2543.01 581.991 2543.45 583.815 2543.45 585.892C2543.45 587.944 2543.04 589.755 2542.2 591.326C2541.36 592.897 2540.19 594.113 2538.67 594.974C2537.17 595.835 2535.44 596.266 2533.46 596.266C2530.65 596.266 2528.44 595.367 2526.85 593.568V603.372H2522.06V585.93C2522.06 583.878 2522.52 582.067 2523.43 580.496C2524.34 578.9 2525.61 577.671 2527.23 576.81C2528.87 575.923 2530.77 575.48 2532.93 575.48ZM2532.74 592.238C2534.51 592.238 2535.95 591.655 2537.07 590.49C2538.18 589.299 2538.74 587.767 2538.74 585.892C2538.74 584.017 2538.18 582.485 2537.07 581.294C2535.95 580.103 2534.51 579.508 2532.74 579.508C2530.94 579.508 2529.49 580.091 2528.41 581.256C2527.32 582.421 2526.77 583.954 2526.77 585.854C2526.77 587.754 2527.32 589.299 2528.41 590.49C2529.52 591.655 2530.96 592.238 2532.74 592.238ZM2548.2 575.708H2552.95V596H2548.2V575.708ZM2550.6 572.364C2549.74 572.364 2549.01 572.098 2548.43 571.566C2547.85 571.009 2547.56 570.325 2547.56 569.514C2547.56 568.703 2547.85 568.032 2548.43 567.5C2549.01 566.943 2549.74 566.664 2550.6 566.664C2551.46 566.664 2552.18 566.93 2552.76 567.462C2553.35 567.969 2553.64 568.615 2553.64 569.4C2553.64 570.236 2553.35 570.945 2552.76 571.528C2552.21 572.085 2551.48 572.364 2550.6 572.364ZM2589.28 575.708V596H2559.37V575.708H2564.12V591.972H2571.99V575.708H2576.74V591.972H2584.53V575.708H2589.28ZM2615.43 575.708V596H2610.9V593.378C2610.12 594.341 2609.14 595.063 2607.98 595.544C2606.84 596.025 2605.57 596.266 2604.18 596.266C2602.2 596.266 2600.43 595.835 2598.86 594.974C2597.31 594.113 2596.1 592.897 2595.21 591.326C2594.35 589.755 2593.92 587.931 2593.92 585.854C2593.92 583.777 2594.35 581.965 2595.21 580.42C2596.1 578.849 2597.31 577.633 2598.86 576.772C2600.43 575.911 2602.2 575.48 2604.18 575.48C2605.5 575.48 2606.7 575.708 2607.79 576.164C2608.9 576.62 2609.87 577.291 2610.68 578.178V575.708H2615.43ZM2604.71 592.2C2606.46 592.2 2607.9 591.617 2609.04 590.452C2610.18 589.287 2610.75 587.754 2610.75 585.854C2610.75 583.954 2610.18 582.421 2609.04 581.256C2607.9 580.091 2606.46 579.508 2604.71 579.508C2602.96 579.508 2601.52 580.091 2600.38 581.256C2599.26 582.421 2598.71 583.954 2598.71 585.854C2598.71 587.754 2599.26 589.287 2600.38 590.452C2601.52 591.617 2602.96 592.2 2604.71 592.2ZM2646.93 585.436C2649.43 586.196 2650.69 587.817 2650.69 590.3C2650.69 592.124 2650 593.53 2648.64 594.518C2647.27 595.506 2645.24 596 2642.56 596H2632.22V575.708H2642.14C2644.62 575.708 2646.56 576.164 2647.95 577.076C2649.34 577.988 2650.04 579.28 2650.04 580.952C2650.04 581.991 2649.76 582.89 2649.21 583.65C2648.67 584.41 2647.91 585.005 2646.93 585.436ZM2636.74 584.182H2641.72C2644.18 584.182 2645.41 583.333 2645.41 581.636C2645.41 579.989 2644.18 579.166 2641.72 579.166H2636.74V584.182ZM2642.18 592.542C2644.78 592.542 2646.09 591.693 2646.09 589.996C2646.09 589.109 2645.79 588.451 2645.18 588.02C2644.57 587.564 2643.62 587.336 2642.33 587.336H2636.74V592.542H2642.18ZM2675.32 575.708V592.922C2675.32 600.066 2671.81 603.638 2664.79 603.638C2662.94 603.638 2661.17 603.385 2659.47 602.878C2657.8 602.397 2656.42 601.687 2655.33 600.75L2657.46 597.178C2658.32 597.913 2659.37 598.495 2660.61 598.926C2661.85 599.357 2663.16 599.572 2664.52 599.572C2666.6 599.572 2668.12 599.065 2669.08 598.052C2670.07 597.064 2670.57 595.531 2670.57 593.454V592.504C2669.81 593.34 2668.88 593.986 2667.79 594.442C2666.7 594.873 2665.53 595.088 2664.26 595.088C2661.55 595.088 2659.41 594.341 2657.84 592.846C2656.29 591.351 2655.52 589.109 2655.52 586.12V575.708H2660.27V585.512C2660.27 587.311 2660.67 588.666 2661.48 589.578C2662.32 590.465 2663.5 590.908 2665.02 590.908C2666.72 590.908 2668.06 590.389 2669.05 589.35C2670.06 588.311 2670.57 586.804 2670.57 584.828V575.708H2675.32ZM2693.47 585.436C2694.74 585.791 2695.72 586.373 2696.4 587.184C2697.11 587.969 2697.46 588.919 2697.46 590.034C2697.46 591.275 2697.05 592.377 2696.21 593.34C2695.37 594.277 2694.22 595.012 2692.75 595.544C2691.28 596.076 2689.61 596.342 2687.74 596.342C2686.17 596.342 2684.63 596.165 2683.14 595.81C2681.64 595.43 2680.29 594.898 2679.07 594.214L2680.44 590.68C2681.43 591.237 2682.54 591.668 2683.78 591.972C2685.03 592.276 2686.27 592.428 2687.51 592.428C2689.1 592.428 2690.35 592.187 2691.23 591.706C2692.14 591.199 2692.6 590.515 2692.6 589.654C2692.6 588.869 2692.25 588.261 2691.54 587.83C2690.85 587.399 2689.88 587.184 2688.61 587.184H2684.66V583.992H2688.23C2689.42 583.992 2690.35 583.789 2691 583.384C2691.69 582.979 2692.03 582.409 2692.03 581.674C2692.03 580.939 2691.62 580.357 2690.81 579.926C2690 579.495 2688.89 579.28 2687.47 579.28C2685.44 579.28 2683.3 579.774 2681.05 580.762L2679.83 577.266C2682.49 576.025 2685.18 575.404 2687.89 575.404C2689.61 575.404 2691.16 575.645 2692.52 576.126C2693.89 576.582 2694.96 577.241 2695.72 578.102C2696.5 578.938 2696.89 579.901 2696.89 580.99C2696.89 581.978 2696.59 582.865 2695.98 583.65C2695.37 584.41 2694.54 585.005 2693.47 585.436ZM2711.25 596.532C2708.23 596.532 2705.93 595.823 2704.33 594.404C2702.74 592.96 2701.94 590.908 2701.94 588.248V575.708H2706.65V583.004C2707.31 582.472 2708.17 582.054 2709.23 581.75C2710.32 581.446 2711.5 581.294 2712.77 581.294C2715.3 581.294 2717.28 581.927 2718.7 583.194C2720.11 584.461 2720.82 586.259 2720.82 588.59C2720.82 591.098 2719.97 593.049 2718.28 594.442C2716.58 595.835 2714.24 596.532 2711.25 596.532ZM2711.29 593.036C2712.73 593.036 2713.87 592.643 2714.71 591.858C2715.54 591.073 2715.96 590.021 2715.96 588.704C2715.96 587.437 2715.55 586.449 2714.74 585.74C2713.96 585.005 2712.84 584.638 2711.4 584.638C2710.31 584.638 2709.35 584.841 2708.51 585.246C2707.7 585.651 2707.08 586.221 2706.65 586.956V588.666C2706.65 590.009 2707.07 591.073 2707.9 591.858C2708.74 592.643 2709.87 593.036 2711.29 593.036ZM2733.5 587.868H2729.82V596H2725.07V575.708H2729.82V583.916H2733.62L2739.62 575.708H2744.71L2737.34 585.474L2745.21 596H2739.62L2733.5 587.868ZM2756.93 596.266C2754.88 596.266 2753.03 595.823 2751.39 594.936C2749.74 594.049 2748.45 592.821 2747.51 591.25C2746.6 589.654 2746.14 587.855 2746.14 585.854C2746.14 583.853 2746.6 582.067 2747.51 580.496C2748.45 578.925 2749.74 577.697 2751.39 576.81C2753.03 575.923 2754.88 575.48 2756.93 575.48C2759.01 575.48 2760.87 575.923 2762.52 576.81C2764.17 577.697 2765.45 578.925 2766.36 580.496C2767.29 582.067 2767.76 583.853 2767.76 585.854C2767.76 587.855 2767.29 589.654 2766.36 591.25C2765.45 592.821 2764.17 594.049 2762.52 594.936C2760.87 595.823 2759.01 596.266 2756.93 596.266ZM2756.93 592.2C2758.68 592.2 2760.13 591.617 2761.27 590.452C2762.41 589.287 2762.98 587.754 2762.98 585.854C2762.98 583.954 2762.41 582.421 2761.27 581.256C2760.13 580.091 2758.68 579.508 2756.93 579.508C2755.19 579.508 2753.74 580.091 2752.6 581.256C2751.49 582.421 2750.93 583.954 2750.93 585.854C2750.93 587.754 2751.49 589.287 2752.6 590.452C2753.74 591.617 2755.19 592.2 2756.93 592.2ZM2780.89 587.868H2777.21V596H2772.46V575.708H2777.21V583.916H2781.01L2787.01 575.708H2792.1L2784.73 585.474L2792.6 596H2787.01L2780.89 587.868ZM2804.32 596.266C2802.27 596.266 2800.42 595.823 2798.77 594.936C2797.13 594.049 2795.84 592.821 2794.9 591.25C2793.99 589.654 2793.53 587.855 2793.53 585.854C2793.53 583.853 2793.99 582.067 2794.9 580.496C2795.84 578.925 2797.13 577.697 2798.77 576.81C2800.42 575.923 2802.27 575.48 2804.32 575.48C2806.4 575.48 2808.26 575.923 2809.91 576.81C2811.55 577.697 2812.83 578.925 2813.75 580.496C2814.68 582.067 2815.15 583.853 2815.15 585.854C2815.15 587.855 2814.68 589.654 2813.75 591.25C2812.83 592.821 2811.55 594.049 2809.91 594.936C2808.26 595.823 2806.4 596.266 2804.32 596.266ZM2804.32 592.2C2806.07 592.2 2807.51 591.617 2808.65 590.452C2809.79 589.287 2810.36 587.754 2810.36 585.854C2810.36 583.954 2809.79 582.421 2808.65 581.256C2807.51 580.091 2806.07 579.508 2804.32 579.508C2802.57 579.508 2801.13 580.091 2799.99 581.256C2798.88 582.421 2798.32 583.954 2798.32 585.854C2798.32 587.754 2798.88 589.287 2799.99 590.452C2801.13 591.617 2802.57 592.2 2804.32 592.2ZM2838.01 575.708V596H2833.26V579.736H2825.66L2825.47 583.764C2825.35 586.449 2825.09 588.704 2824.71 590.528C2824.36 592.327 2823.74 593.758 2822.85 594.822C2821.99 595.861 2820.8 596.38 2819.28 596.38C2818.57 596.38 2817.7 596.241 2816.66 595.962L2816.89 591.972C2817.24 592.048 2817.54 592.086 2817.8 592.086C2818.76 592.086 2819.48 591.706 2819.96 590.946C2820.45 590.161 2820.75 589.236 2820.88 588.172C2821.03 587.083 2821.15 585.537 2821.26 583.536L2821.6 575.708H2838.01ZM2844.41 575.708H2849.16V596H2844.41V575.708ZM2846.8 572.364C2845.94 572.364 2845.22 572.098 2844.64 571.566C2844.06 571.009 2843.76 570.325 2843.76 569.514C2843.76 568.703 2844.06 568.032 2844.64 567.5C2845.22 566.943 2845.94 566.664 2846.8 566.664C2847.67 566.664 2848.39 566.93 2848.97 567.462C2849.55 567.969 2849.84 568.615 2849.84 569.4C2849.84 570.236 2849.55 570.945 2848.97 571.528C2848.41 572.085 2847.69 572.364 2846.8 572.364ZM2874.81 575.708V596H2870.29V593.416C2869.53 594.328 2868.58 595.037 2867.44 595.544C2866.32 596.025 2865.11 596.266 2863.79 596.266C2861.08 596.266 2858.94 595.519 2857.37 594.024C2855.8 592.504 2855.01 590.262 2855.01 587.298V575.708H2859.76V586.652C2859.76 588.476 2860.17 589.844 2860.98 590.756C2861.81 591.643 2863 592.086 2864.55 592.086C2866.22 592.086 2867.55 591.567 2868.54 590.528C2869.55 589.464 2870.06 587.944 2870.06 585.968V575.708H2874.81ZM2864.85 573.314C2862.8 573.314 2861.23 572.845 2860.14 571.908C2859.08 570.945 2858.53 569.552 2858.51 567.728H2861.66C2861.69 568.64 2861.96 569.362 2862.5 569.894C2863.05 570.426 2863.83 570.692 2864.81 570.692C2865.78 570.692 2866.54 570.426 2867.09 569.894C2867.68 569.362 2867.98 568.64 2868.01 567.728H2871.24C2871.21 569.552 2870.65 570.945 2869.56 571.908C2868.48 572.845 2866.9 573.314 2864.85 573.314ZM2889.66 587.868H2885.97V596H2881.22V575.708H2885.97V583.916H2889.77L2895.78 575.708H2900.87L2893.5 585.474L2901.36 596H2895.78L2889.66 587.868ZM2923.81 575.708V596H2919.28V593.378C2918.5 594.341 2917.52 595.063 2916.36 595.544C2915.22 596.025 2913.95 596.266 2912.56 596.266C2910.58 596.266 2908.81 595.835 2907.24 594.974C2905.69 594.113 2904.48 592.897 2903.59 591.326C2902.73 589.755 2902.3 587.931 2902.3 585.854C2902.3 583.777 2902.73 581.965 2903.59 580.42C2904.48 578.849 2905.69 577.633 2907.24 576.772C2908.81 575.911 2910.58 575.48 2912.56 575.48C2913.87 575.48 2915.08 575.708 2916.17 576.164C2917.28 576.62 2918.24 577.291 2919.06 578.178V575.708H2923.81ZM2913.09 592.2C2914.84 592.2 2916.28 591.617 2917.42 590.452C2918.56 589.287 2919.13 587.754 2919.13 585.854C2919.13 583.954 2918.56 582.421 2917.42 581.256C2916.28 580.091 2914.84 579.508 2913.09 579.508C2911.34 579.508 2909.9 580.091 2908.76 581.256C2907.64 582.421 2907.09 583.954 2907.09 585.854C2907.09 587.754 2907.64 589.287 2908.76 590.452C2909.9 591.617 2911.34 592.2 2913.09 592.2Z" fill="#9D072B"/>
</g>
<g filter="url(#filter5_d_30_6521)">
<rect x="3384" y="548" width="585" height="68" rx="15" fill="#C4C4C4"/>
</g>
<g filter="url(#filter6_d_30_6521)">
<path d="M3442.76 576.012C3440.25 574.593 3437.64 573.732 3434.93 573.428V596H3429.99V573.428C3427.26 573.732 3424.64 574.593 3422.13 576.012L3420.42 572.212C3422.19 571.148 3424.09 570.35 3426.12 569.818C3428.17 569.286 3430.27 569.02 3432.43 569.02C3434.58 569.02 3436.68 569.286 3438.73 569.818C3440.79 570.35 3442.7 571.148 3444.47 572.212L3442.76 576.012ZM3466.99 575.708V592.922C3466.99 600.066 3463.49 603.638 3456.47 603.638C3454.62 603.638 3452.85 603.385 3451.15 602.878C3449.48 602.397 3448.1 601.687 3447.01 600.75L3449.13 597.178C3450 597.913 3451.05 598.495 3452.29 598.926C3453.53 599.357 3454.83 599.572 3456.2 599.572C3458.28 599.572 3459.8 599.065 3460.76 598.052C3461.75 597.064 3462.24 595.531 3462.24 593.454V592.504C3461.48 593.34 3460.56 593.986 3459.47 594.442C3458.38 594.873 3457.2 595.088 3455.94 595.088C3453.23 595.088 3451.09 594.341 3449.51 592.846C3447.97 591.351 3447.2 589.109 3447.2 586.12V575.708H3451.95V585.512C3451.95 587.311 3452.35 588.666 3453.16 589.578C3454 590.465 3455.18 590.908 3456.7 590.908C3458.39 590.908 3459.74 590.389 3460.72 589.35C3461.74 588.311 3462.24 586.804 3462.24 584.828V575.708H3466.99ZM3483.32 575.48C3485.42 575.48 3487.26 575.911 3488.83 576.772C3490.43 577.633 3491.66 578.849 3492.52 580.42C3493.4 581.991 3493.85 583.815 3493.85 585.892C3493.85 587.944 3493.43 589.755 3492.59 591.326C3491.76 592.897 3490.58 594.113 3489.06 594.974C3487.56 595.835 3485.83 596.266 3483.85 596.266C3481.04 596.266 3478.84 595.367 3477.24 593.568V603.372H3472.45V585.93C3472.45 583.878 3472.91 582.067 3473.82 580.496C3474.73 578.9 3476 577.671 3477.62 576.81C3479.27 575.923 3481.17 575.48 3483.32 575.48ZM3483.13 592.238C3484.9 592.238 3486.35 591.655 3487.46 590.49C3488.58 589.299 3489.14 587.767 3489.14 585.892C3489.14 584.017 3488.58 582.485 3487.46 581.294C3486.35 580.103 3484.9 579.508 3483.13 579.508C3481.33 579.508 3479.89 580.091 3478.8 581.256C3477.71 582.421 3477.17 583.954 3477.17 585.854C3477.17 587.754 3477.71 589.299 3478.8 590.49C3479.91 591.655 3481.36 592.238 3483.13 592.238ZM3517.83 575.708V596H3513.3V593.416C3512.54 594.328 3511.59 595.037 3510.45 595.544C3509.34 596.025 3508.12 596.266 3506.81 596.266C3504.1 596.266 3501.95 595.519 3500.38 594.024C3498.81 592.504 3498.03 590.262 3498.03 587.298V575.708H3502.78V586.652C3502.78 588.476 3503.18 589.844 3503.99 590.756C3504.83 591.643 3506.02 592.086 3507.57 592.086C3509.24 592.086 3510.57 591.567 3511.56 590.528C3512.57 589.464 3513.08 587.944 3513.08 585.968V575.708H3517.83ZM3533.47 596.266C3531.37 596.266 3529.48 595.823 3527.81 594.936C3526.14 594.049 3524.84 592.821 3523.9 591.25C3522.96 589.654 3522.49 587.855 3522.49 585.854C3522.49 583.853 3522.96 582.067 3523.9 580.496C3524.84 578.925 3526.13 577.697 3527.77 576.81C3529.45 575.923 3531.35 575.48 3533.47 575.48C3535.48 575.48 3537.22 575.885 3538.72 576.696C3540.24 577.507 3541.38 578.672 3542.14 580.192L3538.49 582.32C3537.91 581.383 3537.17 580.686 3536.29 580.23C3535.43 579.749 3534.48 579.508 3533.44 579.508C3531.66 579.508 3530.19 580.091 3529.03 581.256C3527.86 582.396 3527.28 583.929 3527.28 585.854C3527.28 587.779 3527.85 589.325 3528.99 590.49C3530.16 591.63 3531.64 592.2 3533.44 592.2C3534.48 592.2 3535.43 591.972 3536.29 591.516C3537.17 591.035 3537.91 590.325 3538.49 589.388L3542.14 591.516C3541.35 593.036 3540.2 594.214 3538.68 595.05C3537.19 595.861 3535.45 596.266 3533.47 596.266ZM3571.93 575.48C3574.49 575.48 3576.52 576.227 3578.01 577.722C3579.51 579.191 3580.25 581.408 3580.25 584.372V596H3575.5V584.98C3575.5 583.207 3575.11 581.877 3574.33 580.99C3573.54 580.078 3572.41 579.622 3570.94 579.622C3569.35 579.622 3568.07 580.154 3567.11 581.218C3566.14 582.257 3565.66 583.751 3565.66 585.702V596H3560.91V584.98C3560.91 583.207 3560.52 581.877 3559.73 580.99C3558.95 580.078 3557.82 579.622 3556.35 579.622C3554.73 579.622 3553.44 580.141 3552.48 581.18C3551.54 582.219 3551.07 583.726 3551.07 585.702V596H3546.32V575.708H3550.84V578.292C3551.6 577.38 3552.55 576.683 3553.69 576.202C3554.83 575.721 3556.1 575.48 3557.49 575.48C3559.01 575.48 3560.36 575.771 3561.52 576.354C3562.71 576.911 3563.65 577.747 3564.33 578.862C3565.17 577.798 3566.25 576.975 3567.56 576.392C3568.88 575.784 3570.34 575.48 3571.93 575.48ZM3605.33 575.708V596H3600.81V593.416C3600.05 594.328 3599.1 595.037 3597.96 595.544C3596.84 596.025 3595.63 596.266 3594.31 596.266C3591.6 596.266 3589.46 595.519 3587.89 594.024C3586.32 592.504 3585.53 590.262 3585.53 587.298V575.708H3590.28V586.652C3590.28 588.476 3590.69 589.844 3591.5 590.756C3592.33 591.643 3593.52 592.086 3595.07 592.086C3596.74 592.086 3598.07 591.567 3599.06 590.528C3600.07 589.464 3600.58 587.944 3600.58 585.968V575.708H3605.33ZM3628.96 575.708V596H3624.21V588.134C3622.26 589.071 3620.22 589.54 3618.09 589.54C3615.48 589.54 3613.48 588.945 3612.09 587.754C3610.69 586.538 3610 584.689 3610 582.206V575.708H3614.75V581.902C3614.75 583.194 3615.13 584.157 3615.89 584.79C3616.65 585.423 3617.72 585.74 3619.12 585.74C3620.89 585.74 3622.59 585.36 3624.21 584.6V575.708H3628.96ZM3635.35 575.708H3640.1V583.954H3650.32V575.708H3655.07V596H3650.32V587.982H3640.1V596H3635.35V575.708ZM3680.66 575.708V596H3676.14V593.416C3675.38 594.328 3674.43 595.037 3673.29 595.544C3672.18 596.025 3670.96 596.266 3669.64 596.266C3666.93 596.266 3664.79 595.519 3663.22 594.024C3661.65 592.504 3660.86 590.262 3660.86 587.298V575.708H3665.61V586.652C3665.61 588.476 3666.02 589.844 3666.83 590.756C3667.67 591.643 3668.86 592.086 3670.4 592.086C3672.07 592.086 3673.4 591.567 3674.39 590.528C3675.41 589.464 3675.91 587.944 3675.91 585.968V575.708H3680.66ZM3706.3 575.708V596H3701.78V593.416C3701.02 594.328 3700.07 595.037 3698.93 595.544C3697.82 596.025 3696.6 596.266 3695.28 596.266C3692.57 596.266 3690.43 595.519 3688.86 594.024C3687.29 592.504 3686.51 590.262 3686.51 587.298V575.708H3691.26V586.652C3691.26 588.476 3691.66 589.844 3692.47 590.756C3693.31 591.643 3694.5 592.086 3696.04 592.086C3697.72 592.086 3699.05 591.567 3700.03 590.528C3701.05 589.464 3701.55 587.944 3701.55 585.968V575.708H3706.3ZM3696.35 573.314C3694.3 573.314 3692.73 572.845 3691.64 571.908C3690.57 570.945 3690.03 569.552 3690 567.728H3693.16C3693.18 568.64 3693.46 569.362 3693.99 569.894C3694.55 570.426 3695.32 570.692 3696.31 570.692C3697.27 570.692 3698.03 570.426 3698.59 569.894C3699.17 569.362 3699.48 568.64 3699.5 567.728H3702.73C3702.71 569.552 3702.15 570.945 3701.06 571.908C3699.97 572.845 3698.4 573.314 3696.35 573.314ZM3743.17 596V582.548L3736.33 593.872H3734.28L3727.55 582.51V596H3723.22V575.708H3728.2L3735.42 588.4L3742.98 575.708H3747.43L3747.47 596H3743.17ZM3773.6 575.708V596H3769.07V593.378C3768.29 594.341 3767.31 595.063 3766.15 595.544C3765.01 596.025 3763.74 596.266 3762.35 596.266C3760.37 596.266 3758.6 595.835 3757.03 594.974C3755.48 594.113 3754.27 592.897 3753.38 591.326C3752.52 589.755 3752.09 587.931 3752.09 585.854C3752.09 583.777 3752.52 581.965 3753.38 580.42C3754.27 578.849 3755.48 577.633 3757.03 576.772C3758.6 575.911 3760.37 575.48 3762.35 575.48C3763.67 575.48 3764.87 575.708 3765.96 576.164C3767.07 576.62 3768.04 577.291 3768.85 578.178V575.708H3773.6ZM3762.88 592.2C3764.63 592.2 3766.07 591.617 3767.21 590.452C3768.35 589.287 3768.92 587.754 3768.92 585.854C3768.92 583.954 3768.35 582.421 3767.21 581.256C3766.07 580.091 3764.63 579.508 3762.88 579.508C3761.13 579.508 3759.69 580.091 3758.55 581.256C3757.43 582.421 3756.88 583.954 3756.88 585.854C3756.88 587.754 3757.43 589.287 3758.55 590.452C3759.69 591.617 3761.13 592.2 3762.88 592.2ZM3789.92 575.48C3792.02 575.48 3793.86 575.911 3795.43 576.772C3797.03 577.633 3798.25 578.849 3799.12 580.42C3800 581.991 3800.45 583.815 3800.45 585.892C3800.45 587.944 3800.03 589.755 3799.19 591.326C3798.36 592.897 3797.18 594.113 3795.66 594.974C3794.16 595.835 3792.43 596.266 3790.45 596.266C3787.64 596.266 3785.44 595.367 3783.84 593.568V603.372H3779.05V585.93C3779.05 583.878 3779.51 582.067 3780.42 580.496C3781.33 578.9 3782.6 577.671 3784.22 576.81C3785.87 575.923 3787.77 575.48 3789.92 575.48ZM3789.73 592.238C3791.5 592.238 3792.95 591.655 3794.06 590.49C3795.18 589.299 3795.73 587.767 3795.73 585.892C3795.73 584.017 3795.18 582.485 3794.06 581.294C3792.95 580.103 3791.5 579.508 3789.73 579.508C3787.93 579.508 3786.49 580.091 3785.4 581.256C3784.31 582.421 3783.76 583.954 3783.76 585.854C3783.76 587.754 3784.31 589.299 3785.4 590.49C3786.51 591.655 3787.96 592.238 3789.73 592.238ZM3835.1 575.708V596H3805.2V575.708H3809.95V591.972H3817.81V575.708H3822.56V591.972H3830.35V575.708H3835.1ZM3851.52 575.48C3853.62 575.48 3855.46 575.911 3857.03 576.772C3858.63 577.633 3859.86 578.849 3860.72 580.42C3861.6 581.991 3862.05 583.815 3862.05 585.892C3862.05 587.944 3861.63 589.755 3860.79 591.326C3859.96 592.897 3858.78 594.113 3857.26 594.974C3855.76 595.835 3854.03 596.266 3852.05 596.266C3849.24 596.266 3847.04 595.367 3845.44 593.568V603.372H3840.65V585.93C3840.65 583.878 3841.11 582.067 3842.02 580.496C3842.93 578.9 3844.2 577.671 3845.82 576.81C3847.47 575.923 3849.37 575.48 3851.52 575.48ZM3851.33 592.238C3853.1 592.238 3854.55 591.655 3855.66 590.49C3856.78 589.299 3857.33 587.767 3857.33 585.892C3857.33 584.017 3856.78 582.485 3855.66 581.294C3854.55 580.103 3853.1 579.508 3851.33 579.508C3849.53 579.508 3848.09 580.091 3847 581.256C3845.91 582.421 3845.36 583.954 3845.36 585.854C3845.36 587.754 3845.91 589.299 3847 590.49C3848.11 591.655 3849.56 592.238 3851.33 592.238ZM3886.37 575.708V592.922C3886.37 600.066 3882.86 603.638 3875.84 603.638C3873.99 603.638 3872.22 603.385 3870.52 602.878C3868.85 602.397 3867.47 601.687 3866.38 600.75L3868.51 597.178C3869.37 597.913 3870.42 598.495 3871.66 598.926C3872.9 599.357 3874.21 599.572 3875.58 599.572C3877.65 599.572 3879.17 599.065 3880.14 598.052C3881.12 597.064 3881.62 595.531 3881.62 593.454V592.504C3880.86 593.34 3879.93 593.986 3878.84 594.442C3877.75 594.873 3876.58 595.088 3875.31 595.088C3872.6 595.088 3870.46 594.341 3868.89 592.846C3867.34 591.351 3866.57 589.109 3866.57 586.12V575.708H3871.32V585.512C3871.32 587.311 3871.72 588.666 3872.54 589.578C3873.37 590.465 3874.55 590.908 3876.07 590.908C3877.77 590.908 3879.11 590.389 3880.1 589.35C3881.11 588.311 3881.62 586.804 3881.62 584.828V575.708H3886.37ZM3918.27 575.48C3920.83 575.48 3922.86 576.227 3924.35 577.722C3925.85 579.191 3926.6 581.408 3926.6 584.372V596H3921.85V584.98C3921.85 583.207 3921.45 581.877 3920.67 580.99C3919.88 580.078 3918.76 579.622 3917.29 579.622C3915.69 579.622 3914.41 580.154 3913.45 581.218C3912.49 582.257 3912 583.751 3912 585.702V596H3907.25V584.98C3907.25 583.207 3906.86 581.877 3906.08 580.99C3905.29 580.078 3904.16 579.622 3902.69 579.622C3901.07 579.622 3899.78 580.141 3898.82 581.18C3897.88 582.219 3897.41 583.726 3897.41 585.702V596H3892.66V575.708H3897.18V578.292C3897.94 577.38 3898.89 576.683 3900.03 576.202C3901.17 575.721 3902.44 575.48 3903.83 575.48C3905.35 575.48 3906.7 575.771 3907.86 576.354C3909.05 576.911 3909.99 577.747 3910.67 578.862C3911.51 577.798 3912.59 576.975 3913.9 576.392C3915.22 575.784 3916.68 575.48 3918.27 575.48Z" fill="#9D072B"/>
</g>
<g filter="url(#filter7_d_30_6521)">
<rect x="4459" y="548" width="475" height="68" rx="15" fill="#C4C4C4"/>
</g>
<g filter="url(#filter8_d_30_6521)">
<path d="M4509.4 569.172C4513 569.172 4515.81 570.084 4517.84 571.908C4519.86 573.707 4520.88 576.215 4520.88 579.432C4520.88 582.523 4519.95 584.955 4518.1 586.728C4516.25 588.476 4513.7 589.35 4510.43 589.35C4509.16 589.35 4507.95 589.211 4506.78 588.932C4505.61 588.653 4504.35 588.185 4502.98 587.526V596H4498.12V580.078C4498.12 576.582 4499.09 573.897 4501.04 572.022C4502.99 570.122 4505.78 569.172 4509.4 569.172ZM4509.55 585.474C4511.56 585.474 4513.11 584.955 4514.23 583.916C4515.37 582.877 4515.94 581.421 4515.94 579.546C4515.94 577.646 4515.37 576.164 4514.23 575.1C4513.09 574.011 4511.52 573.466 4509.52 573.466C4507.46 573.466 4505.86 574.036 4504.69 575.176C4503.55 576.316 4502.98 577.925 4502.98 580.002V583.232C4503.89 583.967 4504.91 584.524 4506.02 584.904C4507.16 585.284 4508.34 585.474 4509.55 585.474ZM4534.67 592.238C4536.88 592.238 4538.71 591.503 4540.18 590.034L4542.69 592.96C4541.8 594.049 4540.66 594.873 4539.27 595.43C4537.88 595.987 4536.31 596.266 4534.56 596.266C4532.33 596.266 4530.37 595.823 4528.67 594.936C4526.97 594.049 4525.65 592.821 4524.72 591.25C4523.8 589.654 4523.35 587.855 4523.35 585.854C4523.35 583.878 4523.79 582.105 4524.68 580.534C4525.59 578.938 4526.83 577.697 4528.4 576.81C4530 575.923 4531.8 575.48 4533.8 575.48C4535.7 575.48 4537.42 575.898 4538.97 576.734C4540.54 577.545 4541.78 578.723 4542.69 580.268C4543.6 581.788 4544.06 583.574 4544.06 585.626L4528.52 588.666C4529 589.831 4529.77 590.718 4530.83 591.326C4531.9 591.934 4533.18 592.238 4534.67 592.238ZM4533.8 579.28C4532.05 579.28 4530.63 579.85 4529.54 580.99C4528.48 582.13 4527.95 583.663 4527.95 585.588V585.626L4539.42 583.422C4539.09 582.181 4538.42 581.18 4537.41 580.42C4536.42 579.66 4535.22 579.28 4533.8 579.28ZM4560.45 585.436C4561.72 585.791 4562.69 586.373 4563.37 587.184C4564.08 587.969 4564.44 588.919 4564.44 590.034C4564.44 591.275 4564.02 592.377 4563.18 593.34C4562.35 594.277 4561.2 595.012 4559.73 595.544C4558.26 596.076 4556.59 596.342 4554.71 596.342C4553.14 596.342 4551.61 596.165 4550.11 595.81C4548.62 595.43 4547.26 594.898 4546.05 594.214L4547.41 590.68C4548.4 591.237 4549.52 591.668 4550.76 591.972C4552 592.276 4553.24 592.428 4554.48 592.428C4556.08 592.428 4557.32 592.187 4558.21 591.706C4559.12 591.199 4559.57 590.515 4559.57 589.654C4559.57 588.869 4559.22 588.261 4558.51 587.83C4557.83 587.399 4556.85 587.184 4555.58 587.184H4551.63V583.992H4555.2C4556.4 583.992 4557.32 583.789 4557.98 583.384C4558.66 582.979 4559 582.409 4559 581.674C4559 580.939 4558.6 580.357 4557.79 579.926C4556.98 579.495 4555.86 579.28 4554.44 579.28C4552.42 579.28 4550.28 579.774 4548.02 580.762L4546.81 577.266C4549.47 576.025 4552.15 575.404 4554.86 575.404C4556.59 575.404 4558.13 575.645 4559.5 576.126C4560.87 576.582 4561.93 577.241 4562.69 578.102C4563.48 578.938 4563.87 579.901 4563.87 580.99C4563.87 581.978 4563.56 582.865 4562.96 583.65C4562.35 584.41 4561.51 585.005 4560.45 585.436ZM4588.6 575.708V596H4584.07V593.416C4583.31 594.328 4582.36 595.037 4581.22 595.544C4580.11 596.025 4578.89 596.266 4577.58 596.266C4574.87 596.266 4572.72 595.519 4571.15 594.024C4569.58 592.504 4568.8 590.262 4568.8 587.298V575.708H4573.55V586.652C4573.55 588.476 4573.95 589.844 4574.76 590.756C4575.6 591.643 4576.79 592.086 4578.34 592.086C4580.01 592.086 4581.34 591.567 4582.33 590.528C4583.34 589.464 4583.85 587.944 4583.85 585.968V575.708H4588.6ZM4615 575.708V592.922C4615 600.066 4611.35 603.638 4604.05 603.638C4602.1 603.638 4600.25 603.385 4598.51 602.878C4596.76 602.397 4595.31 601.687 4594.17 600.75L4596.3 597.178C4597.19 597.913 4598.3 598.495 4599.65 598.926C4601.01 599.382 4602.4 599.61 4603.79 599.61C4606.02 599.61 4607.65 599.103 4608.69 598.09C4609.73 597.077 4610.25 595.531 4610.25 593.454V592.39C4609.44 593.277 4608.45 593.948 4607.28 594.404C4606.12 594.86 4604.84 595.088 4603.45 595.088C4601.52 595.088 4599.77 594.683 4598.2 593.872C4596.66 593.036 4595.43 591.871 4594.52 590.376C4593.63 588.881 4593.19 587.171 4593.19 585.246C4593.19 583.321 4593.63 581.623 4594.52 580.154C4595.43 578.659 4596.66 577.507 4598.2 576.696C4599.77 575.885 4601.52 575.48 4603.45 575.48C4604.92 575.48 4606.25 575.721 4607.44 576.202C4608.65 576.683 4609.67 577.418 4610.48 578.406V575.708H4615ZM4604.17 591.06C4605.97 591.06 4607.44 590.528 4608.58 589.464C4609.74 588.375 4610.32 586.969 4610.32 585.246C4610.32 583.549 4609.74 582.168 4608.58 581.104C4607.44 580.04 4605.97 579.508 4604.17 579.508C4602.34 579.508 4600.85 580.04 4599.68 581.104C4598.54 582.168 4597.97 583.549 4597.97 585.246C4597.97 586.969 4598.54 588.375 4599.68 589.464C4600.85 590.528 4602.34 591.06 4604.17 591.06ZM4630.97 592.238C4633.18 592.238 4635.01 591.503 4636.48 590.034L4638.99 592.96C4638.1 594.049 4636.96 594.873 4635.57 595.43C4634.18 595.987 4632.61 596.266 4630.86 596.266C4628.63 596.266 4626.66 595.823 4624.97 594.936C4623.27 594.049 4621.95 592.821 4621.02 591.25C4620.1 589.654 4619.65 587.855 4619.65 585.854C4619.65 583.878 4620.09 582.105 4620.98 580.534C4621.89 578.938 4623.13 577.697 4624.7 576.81C4626.3 575.923 4628.1 575.48 4630.1 575.48C4632 575.48 4633.72 575.898 4635.27 576.734C4636.84 577.545 4638.08 578.723 4638.99 580.268C4639.9 581.788 4640.36 583.574 4640.36 585.626L4624.82 588.666C4625.3 589.831 4626.07 590.718 4627.13 591.326C4628.2 591.934 4629.48 592.238 4630.97 592.238ZM4630.1 579.28C4628.35 579.28 4626.93 579.85 4625.84 580.99C4624.78 582.13 4624.25 583.663 4624.25 585.588V585.626L4635.72 583.422C4635.39 582.181 4634.72 581.18 4633.71 580.42C4632.72 579.66 4631.52 579.28 4630.1 579.28ZM4645 575.708H4649.75V583.954H4659.97V575.708H4664.72V596H4659.97V587.982H4649.75V596H4645V575.708ZM4693.35 591.972V600.674H4688.91V596H4671.08V575.708H4675.83V591.972H4685.52V575.708H4690.27V591.972H4693.35ZM4697.58 575.708H4702.33V596H4697.58V575.708ZM4699.97 572.364C4699.11 572.364 4698.39 572.098 4697.81 571.566C4697.23 571.009 4696.93 570.325 4696.93 569.514C4696.93 568.703 4697.23 568.032 4697.81 567.5C4698.39 566.943 4699.11 566.664 4699.97 566.664C4700.84 566.664 4701.56 566.93 4702.14 567.462C4702.72 567.969 4703.01 568.615 4703.01 569.4C4703.01 570.236 4702.72 570.945 4702.14 571.528C4701.58 572.085 4700.86 572.364 4699.97 572.364ZM4725.89 575.708V596H4721.63V589.882H4716.27L4712.13 596H4707.04L4711.83 589.236C4710.36 588.729 4709.23 587.957 4708.45 586.918C4707.69 585.854 4707.31 584.549 4707.31 583.004C4707.31 580.673 4708.13 578.875 4709.78 577.608C4711.42 576.341 4713.69 575.708 4716.58 575.708H4725.89ZM4716.73 579.698C4713.67 579.698 4712.13 580.851 4712.13 583.156C4712.13 585.436 4713.61 586.576 4716.58 586.576H4721.63V579.698H4716.73ZM4753.76 576.696C4755.69 576.696 4757.38 577.114 4758.85 577.95C4760.32 578.761 4761.46 579.901 4762.27 581.37C4763.11 582.839 4763.53 584.524 4763.53 586.424C4763.53 588.375 4763.07 590.11 4762.16 591.63C4761.25 593.125 4759.97 594.29 4758.32 595.126C4756.68 595.962 4754.8 596.38 4752.7 596.38C4749.18 596.38 4746.45 595.215 4744.53 592.884C4742.6 590.553 4741.64 587.197 4741.64 582.814C4741.64 578.735 4742.51 575.505 4744.26 573.124C4746.01 570.743 4748.68 569.172 4752.28 568.412L4761.7 566.398L4762.39 570.654L4753.84 572.402C4751.38 572.909 4749.54 573.77 4748.33 574.986C4747.11 576.202 4746.4 577.912 4746.2 580.116C4747.11 579.027 4748.21 578.191 4749.51 577.608C4750.8 577 4752.22 576.696 4753.76 576.696ZM4752.81 592.542C4754.56 592.542 4755.97 591.985 4757.03 590.87C4758.12 589.73 4758.66 588.286 4758.66 586.538C4758.66 584.79 4758.12 583.384 4757.03 582.32C4755.97 581.256 4754.56 580.724 4752.81 580.724C4751.04 580.724 4749.61 581.256 4748.52 582.32C4747.43 583.384 4746.88 584.79 4746.88 586.538C4746.88 588.311 4747.43 589.755 4748.52 590.87C4749.63 591.985 4751.06 592.542 4752.81 592.542ZM4787.89 575.708V596H4783.36V593.378C4782.58 594.341 4781.6 595.063 4780.44 595.544C4779.3 596.025 4778.03 596.266 4776.64 596.266C4774.66 596.266 4772.89 595.835 4771.32 594.974C4769.77 594.113 4768.56 592.897 4767.67 591.326C4766.81 589.755 4766.38 587.931 4766.38 585.854C4766.38 583.777 4766.81 581.965 4767.67 580.42C4768.56 578.849 4769.77 577.633 4771.32 576.772C4772.89 575.911 4774.66 575.48 4776.64 575.48C4777.95 575.48 4779.16 575.708 4780.25 576.164C4781.36 576.62 4782.32 577.291 4783.14 578.178V575.708H4787.89ZM4777.17 592.2C4778.92 592.2 4780.36 591.617 4781.5 590.452C4782.64 589.287 4783.21 587.754 4783.21 585.854C4783.21 583.954 4782.64 582.421 4781.5 581.256C4780.36 580.091 4778.92 579.508 4777.17 579.508C4775.42 579.508 4773.98 580.091 4772.84 581.256C4771.72 582.421 4771.17 583.954 4771.17 585.854C4771.17 587.754 4771.72 589.287 4772.84 590.452C4773.98 591.617 4775.42 592.2 4777.17 592.2ZM4804.21 575.48C4806.31 575.48 4808.15 575.911 4809.72 576.772C4811.31 577.633 4812.54 578.849 4813.4 580.42C4814.29 581.991 4814.73 583.815 4814.73 585.892C4814.73 587.944 4814.32 589.755 4813.48 591.326C4812.64 592.897 4811.47 594.113 4809.95 594.974C4808.45 595.835 4806.72 596.266 4804.74 596.266C4801.93 596.266 4799.72 595.367 4798.13 593.568V603.372H4793.34V585.93C4793.34 583.878 4793.8 582.067 4794.71 580.496C4795.62 578.9 4796.89 577.671 4798.51 576.81C4800.16 575.923 4802.06 575.48 4804.21 575.48ZM4804.02 592.238C4805.79 592.238 4807.24 591.655 4808.35 590.49C4809.47 589.299 4810.02 587.767 4810.02 585.892C4810.02 584.017 4809.47 582.485 4808.35 581.294C4807.24 580.103 4805.79 579.508 4804.02 579.508C4802.22 579.508 4800.78 580.091 4799.69 581.256C4798.6 582.421 4798.05 583.954 4798.05 585.854C4798.05 587.754 4798.6 589.299 4799.69 590.49C4800.8 591.655 4802.25 592.238 4804.02 592.238ZM4828.53 596.266C4826.48 596.266 4824.63 595.823 4822.98 594.936C4821.33 594.049 4820.04 592.821 4819.1 591.25C4818.19 589.654 4817.74 587.855 4817.74 585.854C4817.74 583.853 4818.19 582.067 4819.1 580.496C4820.04 578.925 4821.33 577.697 4822.98 576.81C4824.63 575.923 4826.48 575.48 4828.53 575.48C4830.61 575.48 4832.47 575.923 4834.11 576.81C4835.76 577.697 4837.04 578.925 4837.95 580.496C4838.89 582.067 4839.36 583.853 4839.36 585.854C4839.36 587.855 4838.89 589.654 4837.95 591.25C4837.04 592.821 4835.76 594.049 4834.11 594.936C4832.47 595.823 4830.61 596.266 4828.53 596.266ZM4828.53 592.2C4830.28 592.2 4831.72 591.617 4832.86 590.452C4834 589.287 4834.57 587.754 4834.57 585.854C4834.57 583.954 4834 582.421 4832.86 581.256C4831.72 580.091 4830.28 579.508 4828.53 579.508C4826.78 579.508 4825.34 580.091 4824.2 581.256C4823.08 582.421 4822.52 583.954 4822.52 585.854C4822.52 587.754 4823.08 589.287 4824.2 590.452C4825.34 591.617 4826.78 592.2 4828.53 592.2ZM4844.05 575.708H4848.8V583.954H4859.02V575.708H4863.77V596H4859.02V587.982H4848.8V596H4844.05V575.708ZM4889.9 575.708V596H4885.38V593.378C4884.59 594.341 4883.62 595.063 4882.45 595.544C4881.31 596.025 4880.04 596.266 4878.65 596.266C4876.68 596.266 4874.9 595.835 4873.33 594.974C4871.79 594.113 4870.57 592.897 4869.68 591.326C4868.82 589.755 4868.39 587.931 4868.39 585.854C4868.39 583.777 4868.82 581.965 4869.68 580.42C4870.57 578.849 4871.79 577.633 4873.33 576.772C4874.9 575.911 4876.68 575.48 4878.65 575.48C4879.97 575.48 4881.17 575.708 4882.26 576.164C4883.38 576.62 4884.34 577.291 4885.15 578.178V575.708H4889.9ZM4879.18 592.2C4880.93 592.2 4882.38 591.617 4883.52 590.452C4884.66 589.287 4885.23 587.754 4885.23 585.854C4885.23 583.954 4884.66 582.421 4883.52 581.256C4882.38 580.091 4880.93 579.508 4879.18 579.508C4877.44 579.508 4875.99 580.091 4874.85 581.256C4873.74 582.421 4873.18 583.954 4873.18 585.854C4873.18 587.754 4873.74 589.287 4874.85 590.452C4875.99 591.617 4877.44 592.2 4879.18 592.2Z" fill="#9D072B"/>
</g>
</g>
<defs>
<filter id="filter0_d_30_6521" x="0" y="0" width="5316.39" height="812" filterUnits="userSpaceOnUse" color-interpolation-filters="sRGB">
<feFlood flood-opacity="0" result="BackgroundImageFix"/>
<feColorMatrix in="SourceAlpha" type="matrix" values="0 0 0 0 0 0 0 0 0 0 0 0 0 0 0 0 0 0 127 0" result="hardAlpha"/>
<feOffset dx="6" dy="6"/>
<feGaussianBlur stdDeviation="20"/>
<feComposite in2="hardAlpha" operator="out"/>
<feColorMatrix type="matrix" values="0 0 0 0 0.175833 0 0 0 0 0.175833 0 0 0 0 0.175833 0 0 0 0.3 0"/>
<feBlend mode="normal" in2="BackgroundImageFix" result="effect1_dropShadow_30_6521"/>
<feBlend mode="normal" in="SourceGraphic" in2="effect1_dropShadow_30_6521" result="shape"/>
</filter>
<filter id="filter1_d_30_6521" x="1370" y="520" width="522" height="128" filterUnits="userSpaceOnUse" color-interpolation-filters="sRGB">
<feFlood flood-opacity="0" result="BackgroundImageFix"/>
<feColorMatrix in="SourceAlpha" type="matrix" values="0 0 0 0 0 0 0 0 0 0 0 0 0 0 0 0 0 0 127 0" result="hardAlpha"/>
<feOffset dx="2" dy="4"/>
<feGaussianBlur stdDeviation="15"/>
<feComposite in2="hardAlpha" operator="out"/>
<feColorMatrix type="matrix" values="0 0 0 0 0 0 0 0 0 0 0 0 0 0 0 0 0 0 0.25 0"/>
<feBlend mode="normal" in2="BackgroundImageFix" result="effect1_dropShadow_30_6521"/>
<feBlend mode="normal" in="SourceGraphic" in2="effect1_dropShadow_30_6521" result="shape"/>
</filter>
<filter id="filter2_d_30_6521" x="1416.99" y="546.664" width="435.173" height="76.708" filterUnits="userSpaceOnUse" color-interpolation-filters="sRGB">
<feFlood flood-opacity="0" result="BackgroundImageFix"/>
<feColorMatrix in="SourceAlpha" type="matrix" values="0 0 0 0 0 0 0 0 0 0 0 0 0 0 0 0 0 0 127 0" result="hardAlpha"/>
<feOffset dx="2" dy="2"/>
<feGaussianBlur stdDeviation="10"/>
<feComposite in2="hardAlpha" operator="out"/>
<feColorMatrix type="matrix" values="0 0 0 0 0 0 0 0 0 0 0 0 0 0 0 0 0 0 0.25 0"/>
<feBlend mode="normal" in2="BackgroundImageFix" result="effect1_dropShadow_30_6521"/>
<feBlend mode="normal" in="SourceGraphic" in2="effect1_dropShadow_30_6521" result="shape"/>
</filter>
<filter id="filter3_d_30_6521" x="2285" y="522" width="705" height="128" filterUnits="userSpaceOnUse" color-interpolation-filters="sRGB">
<feFlood flood-opacity="0" result="BackgroundImageFix"/>
<feColorMatrix in="SourceAlpha" type="matrix" values="0 0 0 0 0 0 0 0 0 0 0 0 0 0 0 0 0 0 127 0" result="hardAlpha"/>
<feOffset dx="2" dy="4"/>
<feGaussianBlur stdDeviation="15"/>
<feComposite in2="hardAlpha" operator="out"/>
<feColorMatrix type="matrix" values="0 0 0 0 0 0 0 0 0 0 0 0 0 0 0 0 0 0 0.25 0"/>
<feBlend mode="normal" in2="BackgroundImageFix" result="effect1_dropShadow_30_6521"/>
<feBlend mode="normal" in="SourceGraphic" in2="effect1_dropShadow_30_6521" result="shape"/>
</filter>
<filter id="filter4_d_30_6521" x="2334.72" y="548.664" width="611.082" height="76.9739" filterUnits="userSpaceOnUse" color-interpolation-filters="sRGB">
<feFlood flood-opacity="0" result="BackgroundImageFix"/>
<feColorMatrix in="SourceAlpha" type="matrix" values="0 0 0 0 0 0 0 0 0 0 0 0 0 0 0 0 0 0 127 0" result="hardAlpha"/>
<feOffset dx="2" dy="2"/>
<feGaussianBlur stdDeviation="10"/>
<feComposite in2="hardAlpha" operator="out"/>
<feColorMatrix type="matrix" values="0 0 0 0 0 0 0 0 0 0 0 0 0 0 0 0 0 0 0.25 0"/>
<feBlend mode="normal" in2="BackgroundImageFix" result="effect1_dropShadow_30_6521"/>
<feBlend mode="normal" in="SourceGraphic" in2="effect1_dropShadow_30_6521" result="shape"/>
</filter>
<filter id="filter5_d_30_6521" x="3356" y="522" width="645" height="128" filterUnits="userSpaceOnUse" color-interpolation-filters="sRGB">
<feFlood flood-opacity="0" result="BackgroundImageFix"/>
<feColorMatrix in="SourceAlpha" type="matrix" values="0 0 0 0 0 0 0 0 0 0 0 0 0 0 0 0 0 0 127 0" result="hardAlpha"/>
<feOffset dx="2" dy="4"/>
<feGaussianBlur stdDeviation="15"/>
<feComposite in2="hardAlpha" operator="out"/>
<feColorMatrix type="matrix" values="0 0 0 0 0 0 0 0 0 0 0 0 0 0 0 0 0 0 0.25 0"/>
<feBlend mode="normal" in2="BackgroundImageFix" result="effect1_dropShadow_30_6521"/>
<feBlend mode="normal" in="SourceGraphic" in2="effect1_dropShadow_30_6521" result="shape"/>
</filter>
<filter id="filter6_d_30_6521" x="3402.42" y="549.728" width="546.179" height="75.9099" filterUnits="userSpaceOnUse" color-interpolation-filters="sRGB">
<feFlood flood-opacity="0" result="BackgroundImageFix"/>
<feColorMatrix in="SourceAlpha" type="matrix" values="0 0 0 0 0 0 0 0 0 0 0 0 0 0 0 0 0 0 127 0" result="hardAlpha"/>
<feOffset dx="2" dy="2"/>
<feGaussianBlur stdDeviation="10"/>
<feComposite in2="hardAlpha" operator="out"/>
<feColorMatrix type="matrix" values="0 0 0 0 0 0 0 0 0 0 0 0 0 0 0 0 0 0 0.25 0"/>
<feBlend mode="normal" in2="BackgroundImageFix" result="effect1_dropShadow_30_6521"/>
<feBlend mode="normal" in="SourceGraphic" in2="effect1_dropShadow_30_6521" result="shape"/>
</filter>
<filter id="filter7_d_30_6521" x="4431" y="522" width="535" height="128" filterUnits="userSpaceOnUse" color-interpolation-filters="sRGB">
<feFlood flood-opacity="0" result="BackgroundImageFix"/>
<feColorMatrix in="SourceAlpha" type="matrix" values="0 0 0 0 0 0 0 0 0 0 0 0 0 0 0 0 0 0 127 0" result="hardAlpha"/>
<feOffset dx="2" dy="4"/>
<feGaussianBlur stdDeviation="15"/>
<feComposite in2="hardAlpha" operator="out"/>
<feColorMatrix type="matrix" values="0 0 0 0 0 0 0 0 0 0 0 0 0 0 0 0 0 0 0.25 0"/>
<feBlend mode="normal" in2="BackgroundImageFix" result="effect1_dropShadow_30_6521"/>
<feBlend mode="normal" in="SourceGraphic" in2="effect1_dropShadow_30_6521" result="shape"/>
</filter>
<filter id="filter8_d_30_6521" x="4480.12" y="548.398" width="431.783" height="77.24" filterUnits="userSpaceOnUse" color-interpolation-filters="sRGB">
<feFlood flood-opacity="0" result="BackgroundImageFix"/>
<feColorMatrix in="SourceAlpha" type="matrix" values="0 0 0 0 0 0 0 0 0 0 0 0 0 0 0 0 0 0 127 0" result="hardAlpha"/>
<feOffset dx="2" dy="2"/>
<feGaussianBlur stdDeviation="10"/>
<feComposite in2="hardAlpha" operator="out"/>
<feColorMatrix type="matrix" values="0 0 0 0 0 0 0 0 0 0 0 0 0 0 0 0 0 0 0.25 0"/>
<feBlend mode="normal" in2="BackgroundImageFix" result="effect1_dropShadow_30_6521"/>
<feBlend mode="normal" in="SourceGraphic" in2="effect1_dropShadow_30_6521" result="shape"/>
</filter>
</defs>
</svg>
