<svg width="1068" height="435" viewBox="0 0 1068 435" fill="none" xmlns="http://www.w3.org/2000/svg">
<path d="M107.182 390.574C107.182 389.306 107.182 388.039 107.182 386.772H63.0098V343.69H108.444V376.635C112.23 366.498 118.54 358.896 127.375 353.827H118.54V333.553H105.92V327.218H64.2718V215.711C64.2718 201.773 75.6303 190.369 89.5129 190.369H105.92V48.4515H1024.7V191.636H1042.37C1056.25 191.636 1067.61 203.04 1067.61 216.978V328.485H1023.43V333.553V334.82H1010.81V355.094H1001.98C1010.81 360.163 1017.12 367.765 1020.91 377.902V344.957H1066.34V388.039H1023.43C1023.43 389.306 1023.43 390.574 1023.43 391.841C1023.43 415.916 1004.5 434.923 980.525 434.923C957.808 434.923 938.877 417.183 937.615 394.375H899.753C898.491 417.183 880.823 434.923 856.843 434.923C832.864 434.923 813.933 415.916 813.933 391.841C813.933 375.368 824.03 361.43 836.651 353.827V334.82H825.292L754.617 385.505C753.355 386.772 750.831 386.772 749.569 386.772H365.903C363.379 386.772 362.117 386.772 360.855 385.505L291.442 336.088V353.827C305.325 361.43 314.159 375.368 314.159 391.841C314.159 415.916 295.228 434.923 271.249 434.923C248.532 434.923 229.601 417.183 228.339 394.375H190.478C189.215 417.183 171.547 434.923 147.568 434.923C126.113 433.656 107.182 414.649 107.182 390.574ZM162.712 390.574C162.712 382.971 156.402 376.635 148.83 376.635C141.257 376.635 134.947 382.971 134.947 390.574C134.947 398.176 141.257 404.512 148.83 404.512C156.402 405.779 162.712 399.443 162.712 390.574ZM286.394 390.574C286.394 382.971 280.084 376.635 272.511 376.635C264.939 376.635 258.629 382.971 258.629 390.574C258.629 398.176 264.939 404.512 272.511 404.512C280.084 405.779 286.394 399.443 286.394 390.574ZM874.512 390.574C874.512 382.971 868.202 376.635 860.63 376.635C853.057 376.635 846.747 382.971 846.747 390.574C846.747 398.176 853.057 404.512 860.63 404.512C868.202 405.779 874.512 399.443 874.512 390.574ZM998.194 390.574C998.194 382.971 991.883 376.635 984.311 376.635C976.739 376.635 970.429 382.971 970.429 390.574C970.429 398.176 976.739 404.512 984.311 404.512C991.883 405.779 998.194 399.443 998.194 390.574ZM521.136 367.766V334.82H321.731L368.427 367.766H521.136ZM615.791 367.766V334.82H540.067V367.766H615.791ZM750.831 367.766L797.527 334.82H634.721V367.766H750.831ZM191.74 362.697V355.094H171.547C175.333 357.629 177.857 360.163 181.643 362.697H191.74ZM251.056 355.094H219.505V362.697H242.222C243.484 358.896 247.27 356.361 251.056 355.094ZM913.636 362.697V355.094H882.085C885.871 357.629 888.395 360.163 892.181 362.697H913.636ZM962.856 355.094H942.663V362.697H954.022C955.284 358.896 959.07 356.361 962.856 355.094ZM895.967 312.012V64.9241H879.56V312.012H895.967ZM107.182 290.471V209.376H90.775C86.9888 209.376 84.4647 211.91 84.4647 215.711V289.204H107.182V290.471ZM1051.2 290.471V216.978C1051.2 213.177 1048.68 210.643 1044.89 210.643H1027.22V291.738H1051.2V290.471ZM301.538 167.561V125.746H150.092V167.561C150.092 175.163 156.402 181.499 163.974 181.499H287.656C295.228 181.499 301.538 175.163 301.538 167.561ZM482.013 167.561V125.746H330.566V167.561C330.566 175.163 336.876 181.499 344.448 181.499H468.13C475.702 181.499 482.013 175.163 482.013 167.561ZM661.225 167.561V125.746H509.778V167.561C509.778 175.163 516.088 181.499 523.66 181.499H647.342C654.914 181.499 661.225 175.163 661.225 167.561ZM841.699 167.561V125.746H690.252V167.561C690.252 175.163 696.562 181.499 704.135 181.499H827.816C835.388 181.499 841.699 175.163 841.699 167.561ZM985.573 167.561V97.8692C985.573 90.2665 979.263 83.9309 971.691 83.9309H945.187C937.615 83.9309 931.305 90.2665 931.305 97.8692V167.561C931.305 175.163 937.615 181.499 945.187 181.499H972.953C979.263 181.499 985.573 175.163 985.573 167.561ZM301.538 111.807V97.8692C301.538 90.2665 295.228 83.9309 287.656 83.9309H163.974C156.402 83.9309 150.092 90.2665 150.092 97.8692V111.807H301.538ZM482.013 111.807V97.8692C482.013 90.2665 475.702 83.9309 468.13 83.9309H344.448C336.876 83.9309 330.566 90.2665 330.566 97.8692V111.807H482.013ZM661.225 111.807V97.8692C661.225 90.2665 654.914 83.9309 647.342 83.9309H523.66C516.088 83.9309 509.778 90.2665 509.778 97.8692V111.807H661.225ZM841.699 111.807V97.8692C841.699 90.2665 835.388 83.9309 827.816 83.9309H704.135C696.562 83.9309 690.252 90.2665 690.252 97.8692V111.807H841.699ZM107.182 28.1776V0.301025H1025.96V28.1776H107.182Z" fill="#262626"/>
<g filter="url(#filter0_d_320_3)">
<rect x="286" y="218" width="462" height="68" rx="15" fill="#C4C4C4"/>
</g>
<path d="M0.920898 300.811H69.2186V325.646H0.920898V300.811Z" fill="#9D072B"/>
<defs>
<filter id="filter0_d_320_3" x="258" y="192" width="522" height="128" filterUnits="userSpaceOnUse" color-interpolation-filters="sRGB">
<feFlood flood-opacity="0" result="BackgroundImageFix"/>
<feColorMatrix in="SourceAlpha" type="matrix" values="0 0 0 0 0 0 0 0 0 0 0 0 0 0 0 0 0 0 127 0" result="hardAlpha"/>
<feOffset dx="2" dy="4"/>
<feGaussianBlur stdDeviation="15"/>
<feComposite in2="hardAlpha" operator="out"/>
<feColorMatrix type="matrix" values="0 0 0 0 0 0 0 0 0 0 0 0 0 0 0 0 0 0 0.25 0"/>
<feBlend mode="normal" in2="BackgroundImageFix" result="effect1_dropShadow_320_3"/>
<feBlend mode="normal" in="SourceGraphic" in2="effect1_dropShadow_320_3" result="shape"/>
</filter>
</defs>
</svg>
